<svg width="1440" height="1028" viewBox="0 0 1440 1028" fill="none" xmlns="http://www.w3.org/2000/svg">
<g opacity="0.3">
<path d="M12.44 444.981L864.516 1527.67L577.449 806.311L12.44 444.981Z" stroke="#D9D9D9" stroke-width="2.54393" stroke-miterlimit="10"/>
<path d="M-385.84 294.5L80.7973 428.372L438.997 -56.5639L-385.84 294.5Z" stroke="#D9D9D9" stroke-width="2.54393" stroke-miterlimit="10"/>
<path d="M-450.849 401.547L40.9154 1437.54L843.14 1599.01L142.312 1118.73L-450.849 401.547Z" stroke="#D9D9D9" stroke-width="2.54393" stroke-miterlimit="10"/>
<path d="M1101.35 804.64L378.566 -101.543L606.684 731.149L1101.06 805.583" stroke="#D9D9D9" stroke-width="2.54393" stroke-miterlimit="10"/>
<path d="M1048.27 766.366L835.944 1472.47L1333.36 1533.79L1048.27 766.366Z" stroke="#D9D9D9" stroke-width="2.54393" stroke-miterlimit="10"/>
<path d="M13.8678 1417.14L470.904 1948.66L472.145 1949.21L1202.17 1995.52L821.594 1580.89L470.904 1948.66" stroke="#D9D9D9" stroke-width="2.54393" stroke-miterlimit="10"/>
<path d="M1036.71 764.865L1731.4 1977.37L1220.21 1876.92" stroke="#D9D9D9" stroke-width="2.54393" stroke-miterlimit="10"/>
</g>
</svg>
