<svg width="746" height="486" viewBox="0 0 746 486" fill="none" xmlns="http://www.w3.org/2000/svg">
<path d="M0 419.371L176.829 0L750 19.5968V486L0 419.371Z" fill="#E1884A"/>
<path d="M188.33 195V191.76L188.12 191.07V185.4C188.12 184.3 187.79 183.45 187.13 182.85C186.47 182.23 185.47 181.92 184.13 181.92C183.23 181.92 182.34 182.06 181.46 182.34C180.6 182.62 179.87 183.01 179.27 183.51L177.8 180.78C178.66 180.12 179.68 179.63 180.86 179.31C182.06 178.97 183.3 178.8 184.58 178.8C186.9 178.8 188.69 179.36 189.95 180.48C191.23 181.58 191.87 183.29 191.87 185.61V195H188.33ZM183.29 195.21C182.09 195.21 181.04 195.01 180.14 194.61C179.24 194.19 178.54 193.62 178.04 192.9C177.56 192.16 177.32 191.33 177.32 190.41C177.32 189.51 177.53 188.7 177.95 187.98C178.39 187.26 179.1 186.69 180.08 186.27C181.06 185.85 182.36 185.64 183.98 185.64H188.63V188.13H184.25C182.97 188.13 182.11 188.34 181.67 188.76C181.23 189.16 181.01 189.66 181.01 190.26C181.01 190.94 181.28 191.48 181.82 191.88C182.36 192.28 183.11 192.48 184.07 192.48C184.99 192.48 185.81 192.27 186.53 191.85C187.27 191.43 187.8 190.81 188.12 189.99L188.75 192.24C188.39 193.18 187.74 193.91 186.8 194.43C185.88 194.95 184.71 195.21 183.29 195.21ZM212.324 195.21C210.644 195.21 209.144 194.86 207.824 194.16C206.524 193.44 205.504 192.46 204.764 191.22C204.024 189.98 203.654 188.57 203.654 186.99C203.654 185.39 204.024 183.98 204.764 182.76C205.504 181.52 206.524 180.55 207.824 179.85C209.144 179.15 210.644 178.8 212.324 178.8C213.884 178.8 215.254 179.12 216.434 179.76C217.634 180.38 218.544 181.3 219.164 182.52L216.284 184.2C215.804 183.44 215.214 182.88 214.514 182.52C213.834 182.16 213.094 181.98 212.294 181.98C211.374 181.98 210.544 182.18 209.804 182.58C209.064 182.98 208.484 183.56 208.064 184.32C207.644 185.06 207.434 185.95 207.434 186.99C207.434 188.03 207.644 188.93 208.064 189.69C208.484 190.43 209.064 191 209.804 191.4C210.544 191.8 211.374 192 212.294 192C213.094 192 213.834 191.82 214.514 191.46C215.214 191.1 215.804 190.54 216.284 189.78L219.164 191.46C218.544 192.66 217.634 193.59 216.434 194.25C215.254 194.89 213.884 195.21 212.324 195.21ZM232.275 195V191.76L232.065 191.07V185.4C232.065 184.3 231.735 183.45 231.075 182.85C230.415 182.23 229.415 181.92 228.075 181.92C227.175 181.92 226.285 182.06 225.405 182.34C224.545 182.62 223.815 183.01 223.215 183.51L221.745 180.78C222.605 180.12 223.625 179.63 224.805 179.31C226.005 178.97 227.245 178.8 228.525 178.8C230.845 178.8 232.635 179.36 233.895 180.48C235.175 181.58 235.815 183.29 235.815 185.61V195H232.275ZM227.235 195.21C226.035 195.21 224.985 195.01 224.085 194.61C223.185 194.19 222.485 193.62 221.985 192.9C221.505 192.16 221.265 191.33 221.265 190.41C221.265 189.51 221.475 188.7 221.895 187.98C222.335 187.26 223.045 186.69 224.025 186.27C225.005 185.85 226.305 185.64 227.925 185.64H232.575V188.13H228.195C226.915 188.13 226.055 188.34 225.615 188.76C225.175 189.16 224.955 189.66 224.955 190.26C224.955 190.94 225.225 191.48 225.765 191.88C226.305 192.28 227.055 192.48 228.015 192.48C228.935 192.48 229.755 192.27 230.475 191.85C231.215 191.43 231.745 190.81 232.065 189.99L232.695 192.24C232.335 193.18 231.685 193.91 230.745 194.43C229.825 194.95 228.655 195.21 227.235 195.21ZM240.628 195V178.98H244.198V183.39L243.778 182.1C244.258 181.02 245.008 180.2 246.028 179.64C247.068 179.08 248.358 178.8 249.898 178.8V182.37C249.738 182.33 249.588 182.31 249.448 182.31C249.308 182.29 249.168 182.28 249.028 182.28C247.608 182.28 246.478 182.7 245.638 183.54C244.798 184.36 244.378 185.59 244.378 187.23V195H240.628ZM260.463 195.21C258.683 195.21 257.123 194.86 255.783 194.16C254.463 193.44 253.433 192.46 252.693 191.22C251.973 189.98 251.613 188.57 251.613 186.99C251.613 185.39 251.963 183.98 252.663 182.76C253.383 181.52 254.363 180.55 255.603 179.85C256.863 179.15 258.293 178.8 259.893 178.8C261.453 178.8 262.843 179.14 264.063 179.82C265.283 180.5 266.243 181.46 266.943 182.7C267.643 183.94 267.993 185.4 267.993 187.08C267.993 187.24 267.983 187.42 267.963 187.62C267.963 187.82 267.953 188.01 267.933 188.19H254.583V185.7H265.953L264.483 186.48C264.503 185.56 264.313 184.75 263.913 184.05C263.513 183.35 262.963 182.8 262.263 182.4C261.583 182 260.793 181.8 259.893 181.8C258.973 181.8 258.163 182 257.463 182.4C256.783 182.8 256.243 183.36 255.843 184.08C255.463 184.78 255.273 185.61 255.273 186.57V187.17C255.273 188.13 255.493 188.98 255.933 189.72C256.373 190.46 256.993 191.03 257.793 191.43C258.593 191.83 259.513 192.03 260.553 192.03C261.453 192.03 262.263 191.89 262.983 191.61C263.703 191.33 264.343 190.89 264.903 190.29L266.913 192.6C266.193 193.44 265.283 194.09 264.183 194.55C263.103 194.99 261.863 195.21 260.463 195.21ZM279.125 195.21C277.345 195.21 275.785 194.86 274.445 194.16C273.125 193.44 272.095 192.46 271.355 191.22C270.635 189.98 270.275 188.57 270.275 186.99C270.275 185.39 270.625 183.98 271.325 182.76C272.045 181.52 273.025 180.55 274.265 179.85C275.525 179.15 276.955 178.8 278.555 178.8C280.115 178.8 281.505 179.14 282.725 179.82C283.945 180.5 284.905 181.46 285.605 182.7C286.305 183.94 286.655 185.4 286.655 187.08C286.655 187.24 286.645 187.42 286.625 187.62C286.625 187.82 286.615 188.01 286.595 188.19H273.245V185.7H284.615L283.145 186.48C283.165 185.56 282.975 184.75 282.575 184.05C282.175 183.35 281.625 182.8 280.925 182.4C280.245 182 279.455 181.8 278.555 181.8C277.635 181.8 276.825 182 276.125 182.4C275.445 182.8 274.905 183.36 274.505 184.08C274.125 184.78 273.935 185.61 273.935 186.57V187.17C273.935 188.13 274.155 188.98 274.595 189.72C275.035 190.46 275.655 191.03 276.455 191.43C277.255 191.83 278.175 192.03 279.215 192.03C280.115 192.03 280.925 191.89 281.645 191.61C282.365 191.33 283.005 190.89 283.565 190.29L285.575 192.6C284.855 193.44 283.945 194.09 282.845 194.55C281.765 194.99 280.525 195.21 279.125 195.21ZM290.257 195V178.98H293.827V183.39L293.407 182.1C293.887 181.02 294.637 180.2 295.657 179.64C296.697 179.08 297.987 178.8 299.527 178.8V182.37C299.367 182.33 299.217 182.31 299.077 182.31C298.937 182.29 298.797 182.28 298.657 182.28C297.237 182.28 296.107 182.7 295.267 183.54C294.427 184.36 294.007 185.59 294.007 187.23V195H290.257ZM311.146 195V178.98H314.896V195H311.146ZM313.036 176.34C312.336 176.34 311.756 176.12 311.296 175.68C310.856 175.24 310.636 174.71 310.636 174.09C310.636 173.45 310.856 172.92 311.296 172.5C311.756 172.06 312.336 171.84 313.036 171.84C313.736 171.84 314.306 172.05 314.746 172.47C315.206 172.87 315.436 173.38 315.436 174C315.436 174.66 315.216 175.22 314.776 175.68C314.336 176.12 313.756 176.34 313.036 176.34ZM328.907 178.8C330.187 178.8 331.327 179.05 332.327 179.55C333.347 180.05 334.147 180.82 334.727 181.86C335.307 182.88 335.597 184.2 335.597 185.82V195H331.847V186.3C331.847 184.88 331.507 183.82 330.827 183.12C330.167 182.42 329.237 182.07 328.037 182.07C327.157 182.07 326.377 182.25 325.697 182.61C325.017 182.97 324.487 183.51 324.107 184.23C323.747 184.93 323.567 185.82 323.567 186.9V195H319.817V178.98H323.387V183.3L322.757 181.98C323.317 180.96 324.127 180.18 325.187 179.64C326.267 179.08 327.507 178.8 328.907 178.8ZM354.676 195.21C352.916 195.21 351.556 194.76 350.596 193.86C349.636 192.94 349.156 191.59 349.156 189.81V175.44H352.906V189.72C352.906 190.48 353.096 191.07 353.476 191.49C353.876 191.91 354.426 192.12 355.126 192.12C355.966 192.12 356.666 191.9 357.226 191.46L358.276 194.13C357.836 194.49 357.296 194.76 356.656 194.94C356.016 195.12 355.356 195.21 354.676 195.21ZM346.516 182.1V179.1H357.196V182.1H346.516ZM368.363 195.21C366.583 195.21 365.023 194.86 363.683 194.16C362.363 193.44 361.333 192.46 360.593 191.22C359.873 189.98 359.513 188.57 359.513 186.99C359.513 185.39 359.863 183.98 360.563 182.76C361.283 181.52 362.263 180.55 363.503 179.85C364.763 179.15 366.193 178.8 367.793 178.8C369.353 178.8 370.743 179.14 371.963 179.82C373.183 180.5 374.143 181.46 374.843 182.7C375.543 183.94 375.893 185.4 375.893 187.08C375.893 187.24 375.883 187.42 375.863 187.62C375.863 187.82 375.853 188.01 375.833 188.19H362.483V185.7H373.853L372.383 186.48C372.403 185.56 372.213 184.75 371.813 184.05C371.413 183.35 370.863 182.8 370.163 182.4C369.483 182 368.693 181.8 367.793 181.8C366.873 181.8 366.063 182 365.363 182.4C364.683 182.8 364.143 183.36 363.743 184.08C363.363 184.78 363.173 185.61 363.173 186.57V187.17C363.173 188.13 363.393 188.98 363.833 189.72C364.273 190.46 364.893 191.03 365.693 191.43C366.493 191.83 367.413 192.03 368.453 192.03C369.353 192.03 370.163 191.89 370.883 191.61C371.603 191.33 372.243 190.89 372.803 190.29L374.813 192.6C374.093 193.44 373.183 194.09 372.083 194.55C371.003 194.99 369.763 195.21 368.363 195.21ZM386.845 195.21C385.165 195.21 383.665 194.86 382.345 194.16C381.045 193.44 380.025 192.46 379.285 191.22C378.545 189.98 378.175 188.57 378.175 186.99C378.175 185.39 378.545 183.98 379.285 182.76C380.025 181.52 381.045 180.55 382.345 179.85C383.665 179.15 385.165 178.8 386.845 178.8C388.405 178.8 389.775 179.12 390.955 179.76C392.155 180.38 393.065 181.3 393.685 182.52L390.805 184.2C390.325 183.44 389.735 182.88 389.035 182.52C388.355 182.16 387.615 181.98 386.815 181.98C385.895 181.98 385.065 182.18 384.325 182.58C383.585 182.98 383.005 183.56 382.585 184.32C382.165 185.06 381.955 185.95 381.955 186.99C381.955 188.03 382.165 188.93 382.585 189.69C383.005 190.43 383.585 191 384.325 191.4C385.065 191.8 385.895 192 386.815 192C387.615 192 388.355 191.82 389.035 191.46C389.735 191.1 390.325 190.54 390.805 189.78L393.685 191.46C393.065 192.66 392.155 193.59 390.955 194.25C389.775 194.89 388.405 195.21 386.845 195.21ZM405.87 178.8C407.15 178.8 408.29 179.05 409.29 179.55C410.31 180.05 411.11 180.82 411.69 181.86C412.27 182.88 412.56 184.2 412.56 185.82V195H408.81V186.3C408.81 184.88 408.47 183.82 407.79 183.12C407.13 182.42 406.2 182.07 405 182.07C404.12 182.07 403.34 182.25 402.66 182.61C401.98 182.97 401.45 183.51 401.07 184.23C400.71 184.93 400.53 185.82 400.53 186.9V195H396.78V172.74H400.53V183.3L399.72 181.98C400.28 180.96 401.09 180.18 402.15 179.64C403.23 179.08 404.47 178.8 405.87 178.8ZM418.517 195.21C417.837 195.21 417.257 194.98 416.777 194.52C416.297 194.04 416.057 193.44 416.057 192.72C416.057 191.96 416.297 191.36 416.777 190.92C417.257 190.46 417.837 190.23 418.517 190.23C419.197 190.23 419.777 190.46 420.257 190.92C420.737 191.36 420.977 191.96 420.977 192.72C420.977 193.44 420.737 194.04 420.257 194.52C419.777 194.98 419.197 195.21 418.517 195.21ZM438.243 195L431.283 174H435.333L441.543 192.99H439.533L445.983 174H449.583L455.853 192.99H453.903L460.263 174H463.983L457.023 195H452.883L447.153 177.87H448.233L442.413 195H438.243ZM466.946 195V178.98H470.696V195H466.946ZM468.836 176.34C468.136 176.34 467.556 176.12 467.096 175.68C466.656 175.24 466.436 174.71 466.436 174.09C466.436 173.45 466.656 172.92 467.096 172.5C467.556 172.06 468.136 171.84 468.836 171.84C469.536 171.84 470.106 172.05 470.546 172.47C471.006 172.87 471.236 173.38 471.236 174C471.236 174.66 471.016 175.22 470.576 175.68C470.136 176.12 469.556 176.34 468.836 176.34ZM481.648 195.21C479.888 195.21 478.528 194.76 477.568 193.86C476.608 192.94 476.128 191.59 476.128 189.81V175.44H479.878V189.72C479.878 190.48 480.068 191.07 480.448 191.49C480.848 191.91 481.398 192.12 482.098 192.12C482.938 192.12 483.638 191.9 484.198 191.46L485.248 194.13C484.808 194.49 484.268 194.76 483.628 194.94C482.988 195.12 482.328 195.21 481.648 195.21ZM473.488 182.1V179.1H484.168V182.1H473.488ZM497.423 178.8C498.703 178.8 499.843 179.05 500.843 179.55C501.863 180.05 502.663 180.82 503.243 181.86C503.823 182.88 504.113 184.2 504.113 185.82V195H500.363V186.3C500.363 184.88 500.023 183.82 499.343 183.12C498.683 182.42 497.753 182.07 496.553 182.07C495.673 182.07 494.893 182.25 494.213 182.61C493.533 182.97 493.003 183.51 492.623 184.23C492.263 184.93 492.083 185.82 492.083 186.9V195H488.333V172.74H492.083V183.3L491.273 181.98C491.833 180.96 492.643 180.18 493.703 179.64C494.783 179.08 496.023 178.8 497.423 178.8ZM508.87 195V178.98H512.62V195H508.87ZM510.76 176.34C510.06 176.34 509.48 176.12 509.02 175.68C508.58 175.24 508.36 174.71 508.36 174.09C508.36 173.45 508.58 172.92 509.02 172.5C509.48 172.06 510.06 171.84 510.76 171.84C511.46 171.84 512.03 172.05 512.47 172.47C512.93 172.87 513.16 173.38 513.16 174C513.16 174.66 512.94 175.22 512.5 175.68C512.06 176.12 511.48 176.34 510.76 176.34ZM526.632 178.8C527.912 178.8 529.052 179.05 530.052 179.55C531.072 180.05 531.872 180.82 532.452 181.86C533.032 182.88 533.322 184.2 533.322 185.82V195H529.572V186.3C529.572 184.88 529.232 183.82 528.552 183.12C527.892 182.42 526.962 182.07 525.762 182.07C524.882 182.07 524.102 182.25 523.422 182.61C522.742 182.97 522.212 183.51 521.832 184.23C521.472 184.93 521.292 185.82 521.292 186.9V195H517.542V178.98H521.112V183.3L520.482 181.98C521.042 180.96 521.852 180.18 522.912 179.64C523.992 179.08 525.232 178.8 526.632 178.8ZM552.4 195.21C550.64 195.21 549.28 194.76 548.32 193.86C547.36 192.94 546.88 191.59 546.88 189.81V175.44H550.63V189.72C550.63 190.48 550.82 191.07 551.2 191.49C551.6 191.91 552.15 192.12 552.85 192.12C553.69 192.12 554.39 191.9 554.95 191.46L556 194.13C555.56 194.49 555.02 194.76 554.38 194.94C553.74 195.12 553.08 195.21 552.4 195.21ZM544.24 182.1V179.1H554.92V182.1H544.24ZM568.175 178.8C569.455 178.8 570.595 179.05 571.595 179.55C572.615 180.05 573.415 180.82 573.995 181.86C574.575 182.88 574.865 184.2 574.865 185.82V195H571.115V186.3C571.115 184.88 570.775 183.82 570.095 183.12C569.435 182.42 568.505 182.07 567.305 182.07C566.425 182.07 565.645 182.25 564.965 182.61C564.285 182.97 563.755 183.51 563.375 184.23C563.015 184.93 562.835 185.82 562.835 186.9V195H559.085V172.74H562.835V183.3L562.025 181.98C562.585 180.96 563.395 180.18 564.455 179.64C565.535 179.08 566.775 178.8 568.175 178.8ZM579.622 195V178.98H583.192V183.39L582.772 182.1C583.252 181.02 584.002 180.2 585.022 179.64C586.062 179.08 587.352 178.8 588.892 178.8V182.37C588.732 182.33 588.582 182.31 588.442 182.31C588.302 182.29 588.162 182.28 588.022 182.28C586.602 182.28 585.472 182.7 584.632 183.54C583.792 184.36 583.372 185.59 583.372 187.23V195H579.622ZM599.457 195.21C597.677 195.21 596.117 194.86 594.777 194.16C593.457 193.44 592.427 192.46 591.687 191.22C590.967 189.98 590.607 188.57 590.607 186.99C590.607 185.39 590.957 183.98 591.657 182.76C592.377 181.52 593.357 180.55 594.597 179.85C595.857 179.15 597.287 178.8 598.887 178.8C600.447 178.8 601.837 179.14 603.057 179.82C604.277 180.5 605.237 181.46 605.937 182.7C606.637 183.94 606.987 185.4 606.987 187.08C606.987 187.24 606.977 187.42 606.957 187.62C606.957 187.82 606.947 188.01 606.927 188.19H593.577V185.7H604.947L603.477 186.48C603.497 185.56 603.307 184.75 602.907 184.05C602.507 183.35 601.957 182.8 601.257 182.4C600.577 182 599.787 181.8 598.887 181.8C597.967 181.8 597.157 182 596.457 182.4C595.777 182.8 595.237 183.36 594.837 184.08C594.457 184.78 594.267 185.61 594.267 186.57V187.17C594.267 188.13 594.487 188.98 594.927 189.72C595.367 190.46 595.987 191.03 596.787 191.43C597.587 191.83 598.507 192.03 599.547 192.03C600.447 192.03 601.257 191.89 601.977 191.61C602.697 191.33 603.337 190.89 603.897 190.29L605.907 192.6C605.187 193.44 604.277 194.09 603.177 194.55C602.097 194.99 600.857 195.21 599.457 195.21ZM618.119 195.21C616.339 195.21 614.779 194.86 613.439 194.16C612.119 193.44 611.089 192.46 610.349 191.22C609.629 189.98 609.269 188.57 609.269 186.99C609.269 185.39 609.619 183.98 610.319 182.76C611.039 181.52 612.019 180.55 613.259 179.85C614.519 179.15 615.949 178.8 617.549 178.8C619.109 178.8 620.499 179.14 621.719 179.82C622.939 180.5 623.899 181.46 624.599 182.7C625.299 183.94 625.649 185.4 625.649 187.08C625.649 187.24 625.639 187.42 625.619 187.62C625.619 187.82 625.609 188.01 625.589 188.19H612.239V185.7H623.609L622.139 186.48C622.159 185.56 621.969 184.75 621.569 184.05C621.169 183.35 620.619 182.8 619.919 182.4C619.239 182 618.449 181.8 617.549 181.8C616.629 181.8 615.819 182 615.119 182.4C614.439 182.8 613.899 183.36 613.499 184.08C613.119 184.78 612.929 185.61 612.929 186.57V187.17C612.929 188.13 613.149 188.98 613.589 189.72C614.029 190.46 614.649 191.03 615.449 191.43C616.249 191.83 617.169 192.03 618.209 192.03C619.109 192.03 619.919 191.89 620.639 191.61C621.359 191.33 621.999 190.89 622.559 190.29L624.569 192.6C623.849 193.44 622.939 194.09 621.839 194.55C620.759 194.99 619.519 195.21 618.119 195.21ZM198.68 215.8C199.96 215.8 201.09 216.05 202.07 216.55C203.07 217.05 203.85 217.82 204.41 218.86C204.97 219.88 205.25 221.2 205.25 222.82V232H201.5V223.3C201.5 221.88 201.19 220.82 200.57 220.12C199.95 219.42 199.06 219.07 197.9 219.07C197.08 219.07 196.35 219.25 195.71 219.61C195.09 219.97 194.6 220.5 194.24 221.2C193.9 221.9 193.73 222.79 193.73 223.87V232H189.98V223.3C189.98 221.88 189.67 220.82 189.05 220.12C188.43 219.42 187.54 219.07 186.38 219.07C185.56 219.07 184.83 219.25 184.19 219.61C183.57 219.97 183.08 220.5 182.72 221.2C182.38 221.9 182.21 222.79 182.21 223.87V232H178.46V215.98H182.03V220.24L181.4 218.98C181.94 217.94 182.72 217.15 183.74 216.61C184.78 216.07 185.96 215.8 187.28 215.8C188.78 215.8 190.08 216.17 191.18 216.91C192.3 217.65 193.04 218.77 193.4 220.27L191.93 219.76C192.45 218.56 193.31 217.6 194.51 216.88C195.71 216.16 197.1 215.8 198.68 215.8ZM217.271 232.21C215.631 232.21 214.171 231.86 212.891 231.16C211.611 230.44 210.601 229.46 209.861 228.22C209.121 226.98 208.751 225.57 208.751 223.99C208.751 222.39 209.121 220.98 209.861 219.76C210.601 218.52 211.611 217.55 212.891 216.85C214.171 216.15 215.631 215.8 217.271 215.8C218.931 215.8 220.401 216.15 221.681 216.85C222.981 217.55 223.991 218.51 224.711 219.73C225.451 220.95 225.821 222.37 225.821 223.99C225.821 225.57 225.451 226.98 224.711 228.22C223.991 229.46 222.981 230.44 221.681 231.16C220.401 231.86 218.931 232.21 217.271 232.21ZM217.271 229C218.191 229 219.011 228.8 219.731 228.4C220.451 228 221.011 227.42 221.411 226.66C221.831 225.9 222.041 225.01 222.041 223.99C222.041 222.95 221.831 222.06 221.411 221.32C221.011 220.56 220.451 219.98 219.731 219.58C219.011 219.18 218.201 218.98 217.301 218.98C216.381 218.98 215.561 219.18 214.841 219.58C214.141 219.98 213.581 220.56 213.161 221.32C212.741 222.06 212.531 222.95 212.531 223.99C212.531 225.01 212.741 225.9 213.161 226.66C213.581 227.42 214.141 228 214.841 228.4C215.561 228.8 216.371 229 217.271 229ZM238.497 215.8C239.777 215.8 240.917 216.05 241.917 216.55C242.937 217.05 243.737 217.82 244.317 218.86C244.897 219.88 245.187 221.2 245.187 222.82V232H241.437V223.3C241.437 221.88 241.097 220.82 240.417 220.12C239.757 219.42 238.827 219.07 237.627 219.07C236.747 219.07 235.967 219.25 235.287 219.61C234.607 219.97 234.077 220.51 233.697 221.23C233.337 221.93 233.157 222.82 233.157 223.9V232H229.407V215.98H232.977V220.3L232.347 218.98C232.907 217.96 233.717 217.18 234.777 216.64C235.857 216.08 237.097 215.8 238.497 215.8ZM255.974 232.21C254.214 232.21 252.854 231.76 251.894 230.86C250.934 229.94 250.454 228.59 250.454 226.81V212.44H254.204V226.72C254.204 227.48 254.394 228.07 254.774 228.49C255.174 228.91 255.724 229.12 256.424 229.12C257.264 229.12 257.964 228.9 258.524 228.46L259.574 231.13C259.134 231.49 258.594 231.76 257.954 231.94C257.314 232.12 256.654 232.21 255.974 232.21ZM247.814 219.1V216.1H258.494V219.1H247.814ZM271.749 215.8C273.029 215.8 274.169 216.05 275.169 216.55C276.189 217.05 276.989 217.82 277.569 218.86C278.149 219.88 278.439 221.2 278.439 222.82V232H274.689V223.3C274.689 221.88 274.349 220.82 273.669 220.12C273.009 219.42 272.079 219.07 270.879 219.07C269.999 219.07 269.219 219.25 268.539 219.61C267.859 219.97 267.329 220.51 266.949 221.23C266.589 221.93 266.409 222.82 266.409 223.9V232H262.659V209.74H266.409V220.3L265.599 218.98C266.159 217.96 266.969 217.18 268.029 216.64C269.109 216.08 270.349 215.8 271.749 215.8ZM288.146 232.21C286.806 232.21 285.516 232.04 284.276 231.7C283.056 231.34 282.086 230.91 281.366 230.41L282.806 227.56C283.526 228.02 284.386 228.4 285.386 228.7C286.386 229 287.386 229.15 288.386 229.15C289.566 229.15 290.416 228.99 290.936 228.67C291.476 228.35 291.746 227.92 291.746 227.38C291.746 226.94 291.566 226.61 291.206 226.39C290.846 226.15 290.376 225.97 289.796 225.85C289.216 225.73 288.566 225.62 287.846 225.52C287.146 225.42 286.436 225.29 285.716 225.13C285.016 224.95 284.376 224.7 283.796 224.38C283.216 224.04 282.746 223.59 282.386 223.03C282.026 222.47 281.846 221.73 281.846 220.81C281.846 219.79 282.136 218.91 282.716 218.17C283.296 217.41 284.106 216.83 285.146 216.43C286.206 216.01 287.456 215.8 288.896 215.8C289.976 215.8 291.066 215.92 292.166 216.16C293.266 216.4 294.176 216.74 294.896 217.18L293.456 220.03C292.696 219.57 291.926 219.26 291.146 219.1C290.386 218.92 289.626 218.83 288.866 218.83C287.726 218.83 286.876 219 286.316 219.34C285.776 219.68 285.506 220.11 285.506 220.63C285.506 221.11 285.686 221.47 286.046 221.71C286.406 221.95 286.876 222.14 287.456 222.28C288.036 222.42 288.676 222.54 289.376 222.64C290.096 222.72 290.806 222.85 291.506 223.03C292.206 223.21 292.846 223.46 293.426 223.78C294.026 224.08 294.506 224.51 294.866 225.07C295.226 225.63 295.406 226.36 295.406 227.26C295.406 228.26 295.106 229.13 294.506 229.87C293.926 230.61 293.096 231.19 292.016 231.61C290.936 232.01 289.646 232.21 288.146 232.21ZM314.127 232.21C312.487 232.21 311.027 231.86 309.747 231.16C308.467 230.44 307.457 229.46 306.717 228.22C305.977 226.98 305.607 225.57 305.607 223.99C305.607 222.39 305.977 220.98 306.717 219.76C307.457 218.52 308.467 217.55 309.747 216.85C311.027 216.15 312.487 215.8 314.127 215.8C315.787 215.8 317.257 216.15 318.537 216.85C319.837 217.55 320.847 218.51 321.567 219.73C322.307 220.95 322.677 222.37 322.677 223.99C322.677 225.57 322.307 226.98 321.567 228.22C320.847 229.46 319.837 230.44 318.537 231.16C317.257 231.86 315.787 232.21 314.127 232.21ZM314.127 229C315.047 229 315.867 228.8 316.587 228.4C317.307 228 317.867 227.42 318.267 226.66C318.687 225.9 318.897 225.01 318.897 223.99C318.897 222.95 318.687 222.06 318.267 221.32C317.867 220.56 317.307 219.98 316.587 219.58C315.867 219.18 315.057 218.98 314.157 218.98C313.237 218.98 312.417 219.18 311.697 219.58C310.997 219.98 310.437 220.56 310.017 221.32C309.597 222.06 309.387 222.95 309.387 223.99C309.387 225.01 309.597 225.9 310.017 226.66C310.437 227.42 310.997 228 311.697 228.4C312.417 228.8 313.227 229 314.127 229ZM326.773 232V215.08C326.773 213.4 327.263 212.06 328.243 211.06C329.243 210.04 330.663 209.53 332.503 209.53C333.163 209.53 333.783 209.6 334.363 209.74C334.963 209.88 335.463 210.1 335.863 210.4L334.843 213.22C334.563 213 334.243 212.84 333.883 212.74C333.523 212.62 333.153 212.56 332.773 212.56C331.993 212.56 331.403 212.78 331.003 213.22C330.603 213.64 330.403 214.28 330.403 215.14V216.94L330.523 218.62V232H326.773ZM324.133 219.1V216.1H334.813V219.1H324.133ZM352.888 238.03C351.408 238.03 349.958 237.83 348.538 237.43C347.138 237.05 345.988 236.49 345.088 235.75L346.768 232.93C347.468 233.51 348.348 233.97 349.408 234.31C350.488 234.67 351.578 234.85 352.678 234.85C354.438 234.85 355.728 234.44 356.548 233.62C357.368 232.82 357.778 231.61 357.778 229.99V227.14L358.078 223.51L357.958 219.88V215.98H361.528V229.57C361.528 232.47 360.788 234.6 359.308 235.96C357.828 237.34 355.688 238.03 352.888 238.03ZM352.408 231.28C350.888 231.28 349.508 230.96 348.268 230.32C347.048 229.66 346.078 228.75 345.358 227.59C344.658 226.43 344.308 225.07 344.308 223.51C344.308 221.97 344.658 220.62 345.358 219.46C346.078 218.3 347.048 217.4 348.268 216.76C349.508 216.12 350.888 215.8 352.408 215.8C353.768 215.8 354.988 216.07 356.068 216.61C357.148 217.15 358.008 217.99 358.648 219.13C359.308 220.27 359.638 221.73 359.638 223.51C359.638 225.29 359.308 226.76 358.648 227.92C358.008 229.06 357.148 229.91 356.068 230.47C354.988 231.01 353.768 231.28 352.408 231.28ZM352.978 228.1C353.918 228.1 354.758 227.91 355.498 227.53C356.238 227.13 356.808 226.59 357.208 225.91C357.628 225.21 357.838 224.41 357.838 223.51C357.838 222.61 357.628 221.82 357.208 221.14C356.808 220.44 356.238 219.91 355.498 219.55C354.758 219.17 353.918 218.98 352.978 218.98C352.038 218.98 351.188 219.17 350.428 219.55C349.688 219.91 349.108 220.44 348.688 221.14C348.288 221.82 348.088 222.61 348.088 223.51C348.088 224.41 348.288 225.21 348.688 225.91C349.108 226.59 349.688 227.13 350.428 227.53C351.188 227.91 352.038 228.1 352.978 228.1ZM366.458 232V215.98H370.028V220.39L369.608 219.1C370.088 218.02 370.838 217.2 371.858 216.64C372.898 216.08 374.188 215.8 375.728 215.8V219.37C375.568 219.33 375.418 219.31 375.278 219.31C375.138 219.29 374.998 219.28 374.858 219.28C373.438 219.28 372.308 219.7 371.468 220.54C370.628 221.36 370.208 222.59 370.208 224.23V232H366.458ZM387.637 232V228.76L387.427 228.07V222.4C387.427 221.3 387.097 220.45 386.437 219.85C385.777 219.23 384.777 218.92 383.437 218.92C382.537 218.92 381.647 219.06 380.767 219.34C379.907 219.62 379.177 220.01 378.577 220.51L377.107 217.78C377.967 217.12 378.987 216.63 380.167 216.31C381.367 215.97 382.607 215.8 383.887 215.8C386.207 215.8 387.997 216.36 389.257 217.48C390.537 218.58 391.177 220.29 391.177 222.61V232H387.637ZM382.597 232.21C381.397 232.21 380.347 232.01 379.447 231.61C378.547 231.19 377.847 230.62 377.347 229.9C376.867 229.16 376.627 228.33 376.627 227.41C376.627 226.51 376.837 225.7 377.257 224.98C377.697 224.26 378.407 223.69 379.387 223.27C380.367 222.85 381.667 222.64 383.287 222.64H387.937V225.13H383.557C382.277 225.13 381.417 225.34 380.977 225.76C380.537 226.16 380.317 226.66 380.317 227.26C380.317 227.94 380.587 228.48 381.127 228.88C381.667 229.28 382.417 229.48 383.377 229.48C384.297 229.48 385.117 229.27 385.837 228.85C386.577 228.43 387.107 227.81 387.427 226.99L388.057 229.24C387.697 230.18 387.047 230.91 386.107 231.43C385.187 231.95 384.017 232.21 382.597 232.21ZM402.799 232.21C401.259 232.21 399.869 231.87 398.629 231.19C397.409 230.49 396.449 229.53 395.749 228.31C395.049 227.09 394.699 225.65 394.699 223.99C394.699 222.33 395.049 220.89 395.749 219.67C396.449 218.45 397.409 217.5 398.629 216.82C399.869 216.14 401.259 215.8 402.799 215.8C404.139 215.8 405.339 216.1 406.399 216.7C407.459 217.28 408.299 218.17 408.919 219.37C409.539 220.57 409.849 222.11 409.849 223.99C409.849 225.85 409.549 227.39 408.949 228.61C408.349 229.81 407.519 230.71 406.459 231.31C405.399 231.91 404.179 232.21 402.799 232.21ZM403.249 229C404.149 229 404.949 228.8 405.649 228.4C406.369 228 406.939 227.42 407.359 226.66C407.799 225.9 408.019 225.01 408.019 223.99C408.019 222.95 407.799 222.06 407.359 221.32C406.939 220.56 406.369 219.98 405.649 219.58C404.949 219.18 404.149 218.98 403.249 218.98C402.349 218.98 401.539 219.18 400.819 219.58C400.119 219.98 399.549 220.56 399.109 221.32C398.689 222.06 398.479 222.95 398.479 223.99C398.479 225.01 398.689 225.9 399.109 226.66C399.549 227.42 400.119 228 400.819 228.4C401.539 228.8 402.349 229 403.249 229ZM408.109 232V228.22L408.259 223.96L407.959 219.7V209.74H411.679V232H408.109ZM423.394 232.21C422.034 232.21 420.834 231.96 419.794 231.46C418.754 230.94 417.944 230.16 417.364 229.12C416.784 228.06 416.494 226.73 416.494 225.13V215.98H420.244V224.62C420.244 226.06 420.564 227.14 421.204 227.86C421.864 228.56 422.794 228.91 423.994 228.91C424.874 228.91 425.634 228.73 426.274 228.37C426.934 228.01 427.444 227.47 427.804 226.75C428.184 226.03 428.374 225.14 428.374 224.08V215.98H432.124V232H428.554V227.68L429.184 229C428.644 230.04 427.854 230.84 426.814 231.4C425.774 231.94 424.634 232.21 423.394 232.21ZM446.904 232V228.76L446.694 228.07V222.4C446.694 221.3 446.364 220.45 445.704 219.85C445.044 219.23 444.044 218.92 442.704 218.92C441.804 218.92 440.914 219.06 440.034 219.34C439.174 219.62 438.444 220.01 437.844 220.51L436.374 217.78C437.234 217.12 438.254 216.63 439.434 216.31C440.634 215.97 441.874 215.8 443.154 215.8C445.474 215.8 447.264 216.36 448.524 217.48C449.804 218.58 450.444 220.29 450.444 222.61V232H446.904ZM441.864 232.21C440.664 232.21 439.614 232.01 438.714 231.61C437.814 231.19 437.114 230.62 436.614 229.9C436.134 229.16 435.894 228.33 435.894 227.41C435.894 226.51 436.104 225.7 436.524 224.98C436.964 224.26 437.674 223.69 438.654 223.27C439.634 222.85 440.934 222.64 442.554 222.64H447.204V225.13H442.824C441.544 225.13 440.684 225.34 440.244 225.76C439.804 226.16 439.584 226.66 439.584 227.26C439.584 227.94 439.854 228.48 440.394 228.88C440.934 229.28 441.684 229.48 442.644 229.48C443.564 229.48 444.384 229.27 445.104 228.85C445.844 228.43 446.374 227.81 446.694 226.99L447.324 229.24C446.964 230.18 446.314 230.91 445.374 231.43C444.454 231.95 443.284 232.21 441.864 232.21ZM461.287 232.21C459.527 232.21 458.167 231.76 457.207 230.86C456.247 229.94 455.767 228.59 455.767 226.81V212.44H459.517V226.72C459.517 227.48 459.707 228.07 460.087 228.49C460.487 228.91 461.037 229.12 461.737 229.12C462.577 229.12 463.277 228.9 463.837 228.46L464.887 231.13C464.447 231.49 463.907 231.76 463.267 231.94C462.627 232.12 461.967 232.21 461.287 232.21ZM453.127 219.1V216.1H463.807V219.1H453.127ZM467.972 232V215.98H471.722V232H467.972ZM469.862 213.34C469.162 213.34 468.582 213.12 468.122 212.68C467.682 212.24 467.462 211.71 467.462 211.09C467.462 210.45 467.682 209.92 468.122 209.5C468.582 209.06 469.162 208.84 469.862 208.84C470.562 208.84 471.132 209.05 471.572 209.47C472.032 209.87 472.262 210.38 472.262 211C472.262 211.66 472.042 212.22 471.602 212.68C471.162 213.12 470.582 213.34 469.862 213.34ZM483.844 232.21C482.204 232.21 480.744 231.86 479.464 231.16C478.184 230.44 477.174 229.46 476.434 228.22C475.694 226.98 475.324 225.57 475.324 223.99C475.324 222.39 475.694 220.98 476.434 219.76C477.174 218.52 478.184 217.55 479.464 216.85C480.744 216.15 482.204 215.8 483.844 215.8C485.504 215.8 486.974 216.15 488.254 216.85C489.554 217.55 490.564 218.51 491.284 219.73C492.024 220.95 492.394 222.37 492.394 223.99C492.394 225.57 492.024 226.98 491.284 228.22C490.564 229.46 489.554 230.44 488.254 231.16C486.974 231.86 485.504 232.21 483.844 232.21ZM483.844 229C484.764 229 485.584 228.8 486.304 228.4C487.024 228 487.584 227.42 487.984 226.66C488.404 225.9 488.614 225.01 488.614 223.99C488.614 222.95 488.404 222.06 487.984 221.32C487.584 220.56 487.024 219.98 486.304 219.58C485.584 219.18 484.774 218.98 483.874 218.98C482.954 218.98 482.134 219.18 481.414 219.58C480.714 219.98 480.154 220.56 479.734 221.32C479.314 222.06 479.104 222.95 479.104 223.99C479.104 225.01 479.314 225.9 479.734 226.66C480.154 227.42 480.714 228 481.414 228.4C482.134 228.8 482.944 229 483.844 229ZM505.07 215.8C506.35 215.8 507.49 216.05 508.49 216.55C509.51 217.05 510.31 217.82 510.89 218.86C511.47 219.88 511.76 221.2 511.76 222.82V232H508.01V223.3C508.01 221.88 507.67 220.82 506.99 220.12C506.33 219.42 505.4 219.07 504.2 219.07C503.32 219.07 502.54 219.25 501.86 219.61C501.18 219.97 500.65 220.51 500.27 221.23C499.91 221.93 499.73 222.82 499.73 223.9V232H495.98V215.98H499.55V220.3L498.92 218.98C499.48 217.96 500.29 217.18 501.35 216.64C502.43 216.08 503.67 215.8 505.07 215.8ZM515.527 236.53L517.267 229.9L517.777 232.12C517.077 232.12 516.487 231.91 516.007 231.49C515.547 231.05 515.317 230.46 515.317 229.72C515.317 228.96 515.547 228.36 516.007 227.92C516.487 227.46 517.067 227.23 517.747 227.23C518.447 227.23 519.027 227.46 519.487 227.92C519.947 228.38 520.177 228.98 520.177 229.72C520.177 229.92 520.157 230.14 520.117 230.38C520.077 230.6 520.007 230.86 519.907 231.16C519.827 231.46 519.687 231.84 519.487 232.3L517.957 236.53H515.527ZM532.492 232V211H536.392V232H532.492ZM178.46 269V246.74H182.21V269H178.46ZM197.002 269V265.76L196.792 265.07V259.4C196.792 258.3 196.462 257.45 195.802 256.85C195.142 256.23 194.142 255.92 192.802 255.92C191.902 255.92 191.012 256.06 190.132 256.34C189.272 256.62 188.542 257.01 187.942 257.51L186.472 254.78C187.332 254.12 188.352 253.63 189.532 253.31C190.732 252.97 191.972 252.8 193.252 252.8C195.572 252.8 197.362 253.36 198.622 254.48C199.902 255.58 200.542 257.29 200.542 259.61V269H197.002ZM191.962 269.21C190.762 269.21 189.712 269.01 188.812 268.61C187.912 268.19 187.212 267.62 186.712 266.9C186.232 266.16 185.992 265.33 185.992 264.41C185.992 263.51 186.202 262.7 186.622 261.98C187.062 261.26 187.772 260.69 188.752 260.27C189.732 259.85 191.032 259.64 192.652 259.64H197.302V262.13H192.922C191.642 262.13 190.782 262.34 190.342 262.76C189.902 263.16 189.682 263.66 189.682 264.26C189.682 264.94 189.952 265.48 190.492 265.88C191.032 266.28 191.782 266.48 192.742 266.48C193.662 266.48 194.482 266.27 195.202 265.85C195.942 265.43 196.472 264.81 196.792 263.99L197.422 266.24C197.062 267.18 196.412 267.91 195.472 268.43C194.552 268.95 193.382 269.21 191.962 269.21ZM214.445 252.8C215.725 252.8 216.865 253.05 217.865 253.55C218.885 254.05 219.685 254.82 220.265 255.86C220.845 256.88 221.135 258.2 221.135 259.82V269H217.385V260.3C217.385 258.88 217.045 257.82 216.365 257.12C215.705 256.42 214.775 256.07 213.575 256.07C212.695 256.07 211.915 256.25 211.235 256.61C210.555 256.97 210.025 257.51 209.645 258.23C209.285 258.93 209.105 259.82 209.105 260.9V269H205.355V252.98H208.925V257.3L208.295 255.98C208.855 254.96 209.665 254.18 210.725 253.64C211.805 253.08 213.045 252.8 214.445 252.8ZM232.701 269.21C231.161 269.21 229.771 268.87 228.531 268.19C227.311 267.49 226.351 266.53 225.651 265.31C224.951 264.09 224.601 262.65 224.601 260.99C224.601 259.33 224.951 257.89 225.651 256.67C226.351 255.45 227.311 254.5 228.531 253.82C229.771 253.14 231.161 252.8 232.701 252.8C234.041 252.8 235.241 253.1 236.301 253.7C237.361 254.28 238.201 255.17 238.821 256.37C239.441 257.57 239.751 259.11 239.751 260.99C239.751 262.85 239.451 264.39 238.851 265.61C238.251 266.81 237.421 267.71 236.361 268.31C235.301 268.91 234.081 269.21 232.701 269.21ZM233.151 266C234.051 266 234.851 265.8 235.551 265.4C236.271 265 236.841 264.42 237.261 263.66C237.701 262.9 237.921 262.01 237.921 260.99C237.921 259.95 237.701 259.06 237.261 258.32C236.841 257.56 236.271 256.98 235.551 256.58C234.851 256.18 234.051 255.98 233.151 255.98C232.251 255.98 231.441 256.18 230.721 256.58C230.021 256.98 229.451 257.56 229.011 258.32C228.591 259.06 228.381 259.95 228.381 260.99C228.381 262.01 228.591 262.9 229.011 263.66C229.451 264.42 230.021 265 230.721 265.4C231.441 265.8 232.251 266 233.151 266ZM238.011 269V265.22L238.161 260.96L237.861 256.7V246.74H241.581V269H238.011ZM254.047 269.21C252.267 269.21 250.707 268.86 249.367 268.16C248.047 267.44 247.017 266.46 246.277 265.22C245.557 263.98 245.197 262.57 245.197 260.99C245.197 259.39 245.547 257.98 246.247 256.76C246.967 255.52 247.947 254.55 249.187 253.85C250.447 253.15 251.877 252.8 253.477 252.8C255.037 252.8 256.427 253.14 257.647 253.82C258.867 254.5 259.827 255.46 260.527 256.7C261.227 257.94 261.577 259.4 261.577 261.08C261.577 261.24 261.567 261.42 261.547 261.62C261.547 261.82 261.537 262.01 261.517 262.19H248.167V259.7H259.537L258.067 260.48C258.087 259.56 257.897 258.75 257.497 258.05C257.097 257.35 256.547 256.8 255.847 256.4C255.167 256 254.377 255.8 253.477 255.8C252.557 255.8 251.747 256 251.047 256.4C250.367 256.8 249.827 257.36 249.427 258.08C249.047 258.78 248.857 259.61 248.857 260.57V261.17C248.857 262.13 249.077 262.98 249.517 263.72C249.957 264.46 250.577 265.03 251.377 265.43C252.177 265.83 253.097 266.03 254.137 266.03C255.037 266.03 255.847 265.89 256.567 265.61C257.287 265.33 257.927 264.89 258.487 264.29L260.497 266.6C259.777 267.44 258.867 268.09 257.767 268.55C256.687 268.99 255.447 269.21 254.047 269.21ZM271.959 269.21C270.419 269.21 269.029 268.87 267.789 268.19C266.569 267.49 265.609 266.53 264.909 265.31C264.209 264.09 263.859 262.65 263.859 260.99C263.859 259.33 264.209 257.89 264.909 256.67C265.609 255.45 266.569 254.5 267.789 253.82C269.029 253.14 270.419 252.8 271.959 252.8C273.299 252.8 274.499 253.1 275.559 253.7C276.619 254.28 277.459 255.17 278.079 256.37C278.699 257.57 279.009 259.11 279.009 260.99C279.009 262.85 278.709 264.39 278.109 265.61C277.509 266.81 276.679 267.71 275.619 268.31C274.559 268.91 273.339 269.21 271.959 269.21ZM272.409 266C273.309 266 274.109 265.8 274.809 265.4C275.529 265 276.099 264.42 276.519 263.66C276.959 262.9 277.179 262.01 277.179 260.99C277.179 259.95 276.959 259.06 276.519 258.32C276.099 257.56 275.529 256.98 274.809 256.58C274.109 256.18 273.309 255.98 272.409 255.98C271.509 255.98 270.699 256.18 269.979 256.58C269.279 256.98 268.709 257.56 268.269 258.32C267.849 259.06 267.639 259.95 267.639 260.99C267.639 262.01 267.849 262.9 268.269 263.66C268.709 264.42 269.279 265 269.979 265.4C270.699 265.8 271.509 266 272.409 266ZM277.269 269V265.22L277.419 260.96L277.119 256.7V246.74H280.839V269H277.269ZM314.285 252.8C315.565 252.8 316.695 253.05 317.675 253.55C318.675 254.05 319.455 254.82 320.015 255.86C320.575 256.88 320.855 258.2 320.855 259.82V269H317.105V260.3C317.105 258.88 316.795 257.82 316.175 257.12C315.555 256.42 314.665 256.07 313.505 256.07C312.685 256.07 311.955 256.25 311.315 256.61C310.695 256.97 310.205 257.5 309.845 258.2C309.505 258.9 309.335 259.79 309.335 260.87V269H305.585V260.3C305.585 258.88 305.275 257.82 304.655 257.12C304.035 256.42 303.145 256.07 301.985 256.07C301.165 256.07 300.435 256.25 299.795 256.61C299.175 256.97 298.685 257.5 298.325 258.2C297.985 258.9 297.815 259.79 297.815 260.87V269H294.065V252.98H297.635V257.24L297.005 255.98C297.545 254.94 298.325 254.15 299.345 253.61C300.385 253.07 301.565 252.8 302.885 252.8C304.385 252.8 305.685 253.17 306.785 253.91C307.905 254.65 308.645 255.77 309.005 257.27L307.535 256.76C308.055 255.56 308.915 254.6 310.115 253.88C311.315 253.16 312.705 252.8 314.285 252.8ZM326.675 275.03C325.895 275.03 325.115 274.9 324.335 274.64C323.555 274.38 322.905 274.02 322.385 273.56L323.885 270.8C324.265 271.14 324.695 271.41 325.175 271.61C325.655 271.81 326.145 271.91 326.645 271.91C327.325 271.91 327.875 271.74 328.295 271.4C328.715 271.06 329.105 270.49 329.465 269.69L330.395 267.59L330.695 267.14L336.755 252.98H340.355L332.855 270.29C332.355 271.49 331.795 272.44 331.175 273.14C330.575 273.84 329.895 274.33 329.135 274.61C328.395 274.89 327.575 275.03 326.675 275.03ZM329.975 269.57L322.745 252.98H326.645L332.525 266.81L329.975 269.57ZM351.499 269V252.08C351.499 250.4 351.989 249.06 352.969 248.06C353.969 247.04 355.389 246.53 357.229 246.53C357.889 246.53 358.509 246.6 359.089 246.74C359.689 246.88 360.189 247.1 360.589 247.4L359.569 250.22C359.289 250 358.969 249.84 358.609 249.74C358.249 249.62 357.879 249.56 357.499 249.56C356.719 249.56 356.129 249.78 355.729 250.22C355.329 250.64 355.129 251.28 355.129 252.14V253.94L355.249 255.62V269H351.499ZM348.859 256.1V253.1H359.539V256.1H348.859ZM362.179 269V252.98H365.929V269H362.179ZM364.069 250.34C363.369 250.34 362.789 250.12 362.329 249.68C361.889 249.24 361.669 248.71 361.669 248.09C361.669 247.45 361.889 246.92 362.329 246.5C362.789 246.06 363.369 245.84 364.069 245.84C364.769 245.84 365.339 246.05 365.779 246.47C366.239 246.87 366.469 247.38 366.469 248C366.469 248.66 366.249 249.22 365.809 249.68C365.369 250.12 364.789 250.34 364.069 250.34ZM370.853 269V252.98H374.423V257.39L374.003 256.1C374.483 255.02 375.233 254.2 376.253 253.64C377.293 253.08 378.583 252.8 380.123 252.8V256.37C379.963 256.33 379.813 256.31 379.673 256.31C379.533 256.29 379.393 256.28 379.253 256.28C377.833 256.28 376.703 256.7 375.863 257.54C375.023 258.36 374.603 259.59 374.603 261.23V269H370.853ZM388.4 269.21C387.06 269.21 385.77 269.04 384.53 268.7C383.31 268.34 382.34 267.91 381.62 267.41L383.06 264.56C383.78 265.02 384.64 265.4 385.64 265.7C386.64 266 387.64 266.15 388.64 266.15C389.82 266.15 390.67 265.99 391.19 265.67C391.73 265.35 392 264.92 392 264.38C392 263.94 391.82 263.61 391.46 263.39C391.1 263.15 390.63 262.97 390.05 262.85C389.47 262.73 388.82 262.62 388.1 262.52C387.4 262.42 386.69 262.29 385.97 262.13C385.27 261.95 384.63 261.7 384.05 261.38C383.47 261.04 383 260.59 382.64 260.03C382.28 259.47 382.1 258.73 382.1 257.81C382.1 256.79 382.39 255.91 382.97 255.17C383.55 254.41 384.36 253.83 385.4 253.43C386.46 253.01 387.71 252.8 389.15 252.8C390.23 252.8 391.32 252.92 392.42 253.16C393.52 253.4 394.43 253.74 395.15 254.18L393.71 257.03C392.95 256.57 392.18 256.26 391.4 256.1C390.64 255.92 389.88 255.83 389.12 255.83C387.98 255.83 387.13 256 386.57 256.34C386.03 256.68 385.76 257.11 385.76 257.63C385.76 258.11 385.94 258.47 386.3 258.71C386.66 258.95 387.13 259.14 387.71 259.28C388.29 259.42 388.93 259.54 389.63 259.64C390.35 259.72 391.06 259.85 391.76 260.03C392.46 260.21 393.1 260.46 393.68 260.78C394.28 261.08 394.76 261.51 395.12 262.07C395.48 262.63 395.66 263.36 395.66 264.26C395.66 265.26 395.36 266.13 394.76 266.87C394.18 267.61 393.35 268.19 392.27 268.61C391.19 269.01 389.9 269.21 388.4 269.21ZM404.92 269.21C403.16 269.21 401.8 268.76 400.84 267.86C399.88 266.94 399.4 265.59 399.4 263.81V249.44H403.15V263.72C403.15 264.48 403.34 265.07 403.72 265.49C404.12 265.91 404.67 266.12 405.37 266.12C406.21 266.12 406.91 265.9 407.47 265.46L408.52 268.13C408.08 268.49 407.54 268.76 406.9 268.94C406.26 269.12 405.6 269.21 404.92 269.21ZM396.76 256.1V253.1H407.44V256.1H396.76ZM418.246 275.03C417.546 275.03 416.886 274.95 416.266 274.79C415.626 274.65 415.086 274.42 414.646 274.1L415.726 271.31C416.306 271.73 417.036 271.94 417.916 271.94C418.596 271.94 419.126 271.72 419.506 271.28C419.886 270.86 420.076 270.23 420.076 269.39V252.98H423.826V269.3C423.826 271.06 423.336 272.45 422.356 273.47C421.396 274.51 420.026 275.03 418.246 275.03ZM421.936 250.34C421.236 250.34 420.656 250.12 420.196 249.68C419.756 249.24 419.536 248.71 419.536 248.09C419.536 247.45 419.756 246.92 420.196 246.5C420.656 246.06 421.236 245.84 421.936 245.84C422.636 245.84 423.206 246.05 423.646 246.47C424.106 246.87 424.336 247.38 424.336 248C424.336 248.66 424.116 249.22 423.676 249.68C423.236 250.12 422.656 250.34 421.936 250.34ZM435.943 269.21C434.303 269.21 432.843 268.86 431.563 268.16C430.283 267.44 429.273 266.46 428.533 265.22C427.793 263.98 427.423 262.57 427.423 260.99C427.423 259.39 427.793 257.98 428.533 256.76C429.273 255.52 430.283 254.55 431.563 253.85C432.843 253.15 434.303 252.8 435.943 252.8C437.603 252.8 439.073 253.15 440.353 253.85C441.653 254.55 442.663 255.51 443.383 256.73C444.123 257.95 444.493 259.37 444.493 260.99C444.493 262.57 444.123 263.98 443.383 265.22C442.663 266.46 441.653 267.44 440.353 268.16C439.073 268.86 437.603 269.21 435.943 269.21ZM435.943 266C436.863 266 437.683 265.8 438.403 265.4C439.123 265 439.683 264.42 440.083 263.66C440.503 262.9 440.713 262.01 440.713 260.99C440.713 259.95 440.503 259.06 440.083 258.32C439.683 257.56 439.123 256.98 438.403 256.58C437.683 256.18 436.873 255.98 435.973 255.98C435.053 255.98 434.233 256.18 433.513 256.58C432.813 256.98 432.253 257.56 431.833 258.32C431.413 259.06 431.203 259.95 431.203 260.99C431.203 262.01 431.413 262.9 431.833 263.66C432.253 264.42 432.813 265 433.513 265.4C434.233 265.8 435.043 266 435.943 266ZM456.959 269.21C455.599 269.21 454.389 268.91 453.329 268.31C452.269 267.71 451.429 266.81 450.809 265.61C450.209 264.39 449.909 262.85 449.909 260.99C449.909 259.11 450.219 257.57 450.839 256.37C451.479 255.17 452.329 254.28 453.389 253.7C454.469 253.1 455.659 252.8 456.959 252.8C458.539 252.8 459.929 253.14 461.129 253.82C462.349 254.5 463.309 255.45 464.009 256.67C464.729 257.89 465.089 259.33 465.089 260.99C465.089 262.65 464.729 264.09 464.009 265.31C463.309 266.53 462.349 267.49 461.129 268.19C459.929 268.87 458.539 269.21 456.959 269.21ZM448.079 269V246.74H451.829V256.7L451.529 260.96L451.649 265.22V269H448.079ZM456.539 266C457.439 266 458.239 265.8 458.939 265.4C459.659 265 460.229 264.42 460.649 263.66C461.069 262.9 461.279 262.01 461.279 260.99C461.279 259.95 461.069 259.06 460.649 258.32C460.229 257.56 459.659 256.98 458.939 256.58C458.239 256.18 457.439 255.98 456.539 255.98C455.639 255.98 454.829 256.18 454.109 256.58C453.389 256.98 452.819 257.56 452.399 258.32C451.979 259.06 451.769 259.95 451.769 260.99C451.769 262.01 451.979 262.9 452.399 263.66C452.819 264.42 453.389 265 454.109 265.4C454.829 265.8 455.639 266 456.539 266ZM486.807 269V265.76L486.597 265.07V259.4C486.597 258.3 486.267 257.45 485.607 256.85C484.947 256.23 483.947 255.92 482.607 255.92C481.707 255.92 480.817 256.06 479.937 256.34C479.077 256.62 478.347 257.01 477.747 257.51L476.277 254.78C477.137 254.12 478.157 253.63 479.337 253.31C480.537 252.97 481.777 252.8 483.057 252.8C485.377 252.8 487.167 253.36 488.427 254.48C489.707 255.58 490.347 257.29 490.347 259.61V269H486.807ZM481.767 269.21C480.567 269.21 479.517 269.01 478.617 268.61C477.717 268.19 477.017 267.62 476.517 266.9C476.037 266.16 475.797 265.33 475.797 264.41C475.797 263.51 476.007 262.7 476.427 261.98C476.867 261.26 477.577 260.69 478.557 260.27C479.537 259.85 480.837 259.64 482.457 259.64H487.107V262.13H482.727C481.447 262.13 480.587 262.34 480.147 262.76C479.707 263.16 479.487 263.66 479.487 264.26C479.487 264.94 479.757 265.48 480.297 265.88C480.837 266.28 481.587 266.48 482.547 266.48C483.467 266.48 484.287 266.27 485.007 265.85C485.747 265.43 486.277 264.81 486.597 263.99L487.227 266.24C486.867 267.18 486.217 267.91 485.277 268.43C484.357 268.95 483.187 269.21 481.767 269.21ZM500.109 269.21C498.769 269.21 497.479 269.04 496.239 268.7C495.019 268.34 494.049 267.91 493.329 267.41L494.769 264.56C495.489 265.02 496.349 265.4 497.349 265.7C498.349 266 499.349 266.15 500.349 266.15C501.529 266.15 502.379 265.99 502.899 265.67C503.439 265.35 503.709 264.92 503.709 264.38C503.709 263.94 503.529 263.61 503.169 263.39C502.809 263.15 502.339 262.97 501.759 262.85C501.179 262.73 500.529 262.62 499.809 262.52C499.109 262.42 498.399 262.29 497.679 262.13C496.979 261.95 496.339 261.7 495.759 261.38C495.179 261.04 494.709 260.59 494.349 260.03C493.989 259.47 493.809 258.73 493.809 257.81C493.809 256.79 494.099 255.91 494.679 255.17C495.259 254.41 496.069 253.83 497.109 253.43C498.169 253.01 499.419 252.8 500.859 252.8C501.939 252.8 503.029 252.92 504.129 253.16C505.229 253.4 506.139 253.74 506.859 254.18L505.419 257.03C504.659 256.57 503.889 256.26 503.109 256.1C502.349 255.92 501.589 255.83 500.829 255.83C499.689 255.83 498.839 256 498.279 256.34C497.739 256.68 497.469 257.11 497.469 257.63C497.469 258.11 497.649 258.47 498.009 258.71C498.369 258.95 498.839 259.14 499.419 259.28C499.999 259.42 500.639 259.54 501.339 259.64C502.059 259.72 502.769 259.85 503.469 260.03C504.169 260.21 504.809 260.46 505.389 260.78C505.989 261.08 506.469 261.51 506.829 262.07C507.189 262.63 507.369 263.36 507.369 264.26C507.369 265.26 507.069 266.13 506.469 266.87C505.889 267.61 505.059 268.19 503.979 268.61C502.899 269.01 501.609 269.21 500.109 269.21ZM528.76 269V265.76L528.55 265.07V259.4C528.55 258.3 528.22 257.45 527.56 256.85C526.9 256.23 525.9 255.92 524.56 255.92C523.66 255.92 522.77 256.06 521.89 256.34C521.03 256.62 520.3 257.01 519.7 257.51L518.23 254.78C519.09 254.12 520.11 253.63 521.29 253.31C522.49 252.97 523.73 252.8 525.01 252.8C527.33 252.8 529.12 253.36 530.38 254.48C531.66 255.58 532.3 257.29 532.3 259.61V269H528.76ZM523.72 269.21C522.52 269.21 521.47 269.01 520.57 268.61C519.67 268.19 518.97 267.62 518.47 266.9C517.99 266.16 517.75 265.33 517.75 264.41C517.75 263.51 517.96 262.7 518.38 261.98C518.82 261.26 519.53 260.69 520.51 260.27C521.49 259.85 522.79 259.64 524.41 259.64H529.06V262.13H524.68C523.4 262.13 522.54 262.34 522.1 262.76C521.66 263.16 521.44 263.66 521.44 264.26C521.44 264.94 521.71 265.48 522.25 265.88C522.79 266.28 523.54 266.48 524.5 266.48C525.42 266.48 526.24 266.27 526.96 265.85C527.7 265.43 528.23 264.81 528.55 263.99L529.18 266.24C528.82 267.18 528.17 267.91 527.23 268.43C526.31 268.95 525.14 269.21 523.72 269.21ZM545.913 269V252.08C545.913 250.4 546.403 249.06 547.383 248.06C548.383 247.04 549.803 246.53 551.643 246.53C552.303 246.53 552.923 246.6 553.503 246.74C554.103 246.88 554.603 247.1 555.003 247.4L553.983 250.22C553.703 250 553.383 249.84 553.023 249.74C552.663 249.62 552.293 249.56 551.913 249.56C551.133 249.56 550.543 249.78 550.143 250.22C549.743 250.64 549.543 251.28 549.543 252.14V253.94L549.663 255.62V269H545.913ZM543.273 256.1V253.1H553.953V256.1H543.273ZM556.507 269V252.98H560.077V257.39L559.657 256.1C560.137 255.02 560.887 254.2 561.907 253.64C562.947 253.08 564.237 252.8 565.777 252.8V256.37C565.617 256.33 565.467 256.31 565.327 256.31C565.187 256.29 565.047 256.28 564.907 256.28C563.487 256.28 562.357 256.7 561.517 257.54C560.677 258.36 560.257 259.59 560.257 261.23V269H556.507ZM576.012 269.21C574.372 269.21 572.912 268.86 571.632 268.16C570.352 267.44 569.342 266.46 568.602 265.22C567.862 263.98 567.492 262.57 567.492 260.99C567.492 259.39 567.862 257.98 568.602 256.76C569.342 255.52 570.352 254.55 571.632 253.85C572.912 253.15 574.372 252.8 576.012 252.8C577.672 252.8 579.142 253.15 580.422 253.85C581.722 254.55 582.732 255.51 583.452 256.73C584.192 257.95 584.562 259.37 584.562 260.99C584.562 262.57 584.192 263.98 583.452 265.22C582.732 266.46 581.722 267.44 580.422 268.16C579.142 268.86 577.672 269.21 576.012 269.21ZM576.012 266C576.932 266 577.752 265.8 578.472 265.4C579.192 265 579.752 264.42 580.152 263.66C580.572 262.9 580.782 262.01 580.782 260.99C580.782 259.95 580.572 259.06 580.152 258.32C579.752 257.56 579.192 256.98 578.472 256.58C577.752 256.18 576.942 255.98 576.042 255.98C575.122 255.98 574.302 256.18 573.582 256.58C572.882 256.98 572.322 257.56 571.902 258.32C571.482 259.06 571.272 259.95 571.272 260.99C571.272 262.01 571.482 262.9 571.902 263.66C572.322 264.42 572.882 265 573.582 265.4C574.302 265.8 575.112 266 576.012 266ZM597.238 252.8C598.518 252.8 599.658 253.05 600.658 253.55C601.678 254.05 602.478 254.82 603.058 255.86C603.638 256.88 603.928 258.2 603.928 259.82V269H600.178V260.3C600.178 258.88 599.838 257.82 599.158 257.12C598.498 256.42 597.568 256.07 596.368 256.07C595.488 256.07 594.708 256.25 594.028 256.61C593.348 256.97 592.818 257.51 592.438 258.23C592.078 258.93 591.898 259.82 591.898 260.9V269H588.148V252.98H591.718V257.3L591.088 255.98C591.648 254.96 592.458 254.18 593.518 253.64C594.598 253.08 595.838 252.8 597.238 252.8ZM614.715 269.21C612.955 269.21 611.595 268.76 610.635 267.86C609.675 266.94 609.195 265.59 609.195 263.81V249.44H612.945V263.72C612.945 264.48 613.135 265.07 613.515 265.49C613.915 265.91 614.465 266.12 615.165 266.12C616.005 266.12 616.705 265.9 617.265 265.46L618.315 268.13C617.875 268.49 617.335 268.76 616.695 268.94C616.055 269.12 615.395 269.21 614.715 269.21ZM606.555 256.1V253.1H617.235V256.1H606.555ZM620.296 262.22V259.1H628.546V262.22H620.296ZM185.99 306.21C184.21 306.21 182.65 305.86 181.31 305.16C179.99 304.44 178.96 303.46 178.22 302.22C177.5 300.98 177.14 299.57 177.14 297.99C177.14 296.39 177.49 294.98 178.19 293.76C178.91 292.52 179.89 291.55 181.13 290.85C182.39 290.15 183.82 289.8 185.42 289.8C186.98 289.8 188.37 290.14 189.59 290.82C190.81 291.5 191.77 292.46 192.47 293.7C193.17 294.94 193.52 296.4 193.52 298.08C193.52 298.24 193.51 298.42 193.49 298.62C193.49 298.82 193.48 299.01 193.46 299.19H180.11V296.7H191.48L190.01 297.48C190.03 296.56 189.84 295.75 189.44 295.05C189.04 294.35 188.49 293.8 187.79 293.4C187.11 293 186.32 292.8 185.42 292.8C184.5 292.8 183.69 293 182.99 293.4C182.31 293.8 181.77 294.36 181.37 295.08C180.99 295.78 180.8 296.61 180.8 297.57V298.17C180.8 299.13 181.02 299.98 181.46 300.72C181.9 301.46 182.52 302.03 183.32 302.43C184.12 302.83 185.04 303.03 186.08 303.03C186.98 303.03 187.79 302.89 188.51 302.61C189.23 302.33 189.87 301.89 190.43 301.29L192.44 303.6C191.72 304.44 190.81 305.09 189.71 305.55C188.63 305.99 187.39 306.21 185.99 306.21ZM206.212 289.8C207.492 289.8 208.632 290.05 209.632 290.55C210.652 291.05 211.452 291.82 212.032 292.86C212.612 293.88 212.902 295.2 212.902 296.82V306H209.152V297.3C209.152 295.88 208.812 294.82 208.132 294.12C207.472 293.42 206.542 293.07 205.342 293.07C204.462 293.07 203.682 293.25 203.002 293.61C202.322 293.97 201.792 294.51 201.412 295.23C201.052 295.93 200.872 296.82 200.872 297.9V306H197.122V289.98H200.692V294.3L200.062 292.98C200.622 291.96 201.432 291.18 202.492 290.64C203.572 290.08 204.812 289.8 206.212 289.8ZM224.469 306.21C222.929 306.21 221.539 305.87 220.299 305.19C219.079 304.49 218.119 303.53 217.419 302.31C216.719 301.09 216.369 299.65 216.369 297.99C216.369 296.33 216.719 294.89 217.419 293.67C218.119 292.45 219.079 291.5 220.299 290.82C221.539 290.14 222.929 289.8 224.469 289.8C225.809 289.8 227.009 290.1 228.069 290.7C229.129 291.28 229.969 292.17 230.589 293.37C231.209 294.57 231.519 296.11 231.519 297.99C231.519 299.85 231.219 301.39 230.619 302.61C230.019 303.81 229.189 304.71 228.129 305.31C227.069 305.91 225.849 306.21 224.469 306.21ZM224.919 303C225.819 303 226.619 302.8 227.319 302.4C228.039 302 228.609 301.42 229.029 300.66C229.469 299.9 229.689 299.01 229.689 297.99C229.689 296.95 229.469 296.06 229.029 295.32C228.609 294.56 228.039 293.98 227.319 293.58C226.619 293.18 225.819 292.98 224.919 292.98C224.019 292.98 223.209 293.18 222.489 293.58C221.789 293.98 221.219 294.56 220.779 295.32C220.359 296.06 220.149 296.95 220.149 297.99C220.149 299.01 220.359 299.9 220.779 300.66C221.219 301.42 221.789 302 222.489 302.4C223.209 302.8 224.019 303 224.919 303ZM229.779 306V302.22L229.929 297.96L229.629 293.7V283.74H233.349V306H229.779ZM253.355 306.21C251.815 306.21 250.425 305.87 249.185 305.19C247.965 304.49 247.005 303.53 246.305 302.31C245.605 301.09 245.255 299.65 245.255 297.99C245.255 296.33 245.605 294.89 246.305 293.67C247.005 292.45 247.965 291.5 249.185 290.82C250.425 290.14 251.815 289.8 253.355 289.8C254.695 289.8 255.895 290.1 256.955 290.7C258.015 291.28 258.855 292.17 259.475 293.37C260.095 294.57 260.405 296.11 260.405 297.99C260.405 299.85 260.105 301.39 259.505 302.61C258.905 303.81 258.075 304.71 257.015 305.31C255.955 305.91 254.735 306.21 253.355 306.21ZM253.805 303C254.705 303 255.505 302.8 256.205 302.4C256.925 302 257.495 301.42 257.915 300.66C258.355 299.9 258.575 299.01 258.575 297.99C258.575 296.95 258.355 296.06 257.915 295.32C257.495 294.56 256.925 293.98 256.205 293.58C255.505 293.18 254.705 292.98 253.805 292.98C252.905 292.98 252.095 293.18 251.375 293.58C250.675 293.98 250.105 294.56 249.665 295.32C249.245 296.06 249.035 296.95 249.035 297.99C249.035 299.01 249.245 299.9 249.665 300.66C250.105 301.42 250.675 302 251.375 302.4C252.095 302.8 252.905 303 253.805 303ZM258.665 306V302.22L258.815 297.96L258.515 293.7V283.74H262.235V306H258.665ZM274.701 306.21C272.921 306.21 271.361 305.86 270.021 305.16C268.701 304.44 267.671 303.46 266.931 302.22C266.211 300.98 265.851 299.57 265.851 297.99C265.851 296.39 266.201 294.98 266.901 293.76C267.621 292.52 268.601 291.55 269.841 290.85C271.101 290.15 272.531 289.8 274.131 289.8C275.691 289.8 277.081 290.14 278.301 290.82C279.521 291.5 280.481 292.46 281.181 293.7C281.881 294.94 282.231 296.4 282.231 298.08C282.231 298.24 282.221 298.42 282.201 298.62C282.201 298.82 282.191 299.01 282.171 299.19H268.821V296.7H280.191L278.721 297.48C278.741 296.56 278.551 295.75 278.151 295.05C277.751 294.35 277.201 293.8 276.501 293.4C275.821 293 275.031 292.8 274.131 292.8C273.211 292.8 272.401 293 271.701 293.4C271.021 293.8 270.481 294.36 270.081 295.08C269.701 295.78 269.511 296.61 269.511 297.57V298.17C269.511 299.13 269.731 299.98 270.171 300.72C270.611 301.46 271.231 302.03 272.031 302.43C272.831 302.83 273.751 303.03 274.791 303.03C275.691 303.03 276.501 302.89 277.221 302.61C277.941 302.33 278.581 301.89 279.141 301.29L281.151 303.6C280.431 304.44 279.521 305.09 278.421 305.55C277.341 305.99 276.101 306.21 274.701 306.21ZM289.8 306L282.93 289.98H286.83L292.74 304.11H290.82L296.94 289.98H300.54L293.67 306H289.8ZM309.974 306.21C308.194 306.21 306.634 305.86 305.294 305.16C303.974 304.44 302.944 303.46 302.204 302.22C301.484 300.98 301.124 299.57 301.124 297.99C301.124 296.39 301.474 294.98 302.174 293.76C302.894 292.52 303.874 291.55 305.114 290.85C306.374 290.15 307.804 289.8 309.404 289.8C310.964 289.8 312.354 290.14 313.574 290.82C314.794 291.5 315.754 292.46 316.454 293.7C317.154 294.94 317.504 296.4 317.504 298.08C317.504 298.24 317.494 298.42 317.474 298.62C317.474 298.82 317.464 299.01 317.444 299.19H304.094V296.7H315.464L313.994 297.48C314.014 296.56 313.824 295.75 313.424 295.05C313.024 294.35 312.474 293.8 311.774 293.4C311.094 293 310.304 292.8 309.404 292.8C308.484 292.8 307.674 293 306.974 293.4C306.294 293.8 305.754 294.36 305.354 295.08C304.974 295.78 304.784 296.61 304.784 297.57V298.17C304.784 299.13 305.004 299.98 305.444 300.72C305.884 301.46 306.504 302.03 307.304 302.43C308.104 302.83 309.024 303.03 310.064 303.03C310.964 303.03 311.774 302.89 312.494 302.61C313.214 302.33 313.854 301.89 314.414 301.29L316.424 303.6C315.704 304.44 314.794 305.09 313.694 305.55C312.614 305.99 311.374 306.21 309.974 306.21ZM321.106 306V283.74H324.856V306H321.106ZM336.978 306.21C335.338 306.21 333.878 305.86 332.598 305.16C331.318 304.44 330.308 303.46 329.568 302.22C328.828 300.98 328.458 299.57 328.458 297.99C328.458 296.39 328.828 294.98 329.568 293.76C330.308 292.52 331.318 291.55 332.598 290.85C333.878 290.15 335.338 289.8 336.978 289.8C338.638 289.8 340.108 290.15 341.388 290.85C342.688 291.55 343.698 292.51 344.418 293.73C345.158 294.95 345.528 296.37 345.528 297.99C345.528 299.57 345.158 300.98 344.418 302.22C343.698 303.46 342.688 304.44 341.388 305.16C340.108 305.86 338.638 306.21 336.978 306.21ZM336.978 303C337.898 303 338.718 302.8 339.438 302.4C340.158 302 340.718 301.42 341.118 300.66C341.538 299.9 341.748 299.01 341.748 297.99C341.748 296.95 341.538 296.06 341.118 295.32C340.718 294.56 340.158 293.98 339.438 293.58C338.718 293.18 337.908 292.98 337.008 292.98C336.088 292.98 335.268 293.18 334.548 293.58C333.848 293.98 333.288 294.56 332.868 295.32C332.448 296.06 332.238 296.95 332.238 297.99C332.238 299.01 332.448 299.9 332.868 300.66C333.288 301.42 333.848 302 334.548 302.4C335.268 302.8 336.078 303 336.978 303ZM357.994 306.21C356.694 306.21 355.504 305.91 354.424 305.31C353.364 304.71 352.514 303.81 351.874 302.61C351.254 301.39 350.944 299.85 350.944 297.99C350.944 296.11 351.244 294.57 351.844 293.37C352.464 292.17 353.304 291.28 354.364 290.7C355.424 290.1 356.634 289.8 357.994 289.8C359.574 289.8 360.964 290.14 362.164 290.82C363.384 291.5 364.344 292.45 365.044 293.67C365.764 294.89 366.124 296.33 366.124 297.99C366.124 299.65 365.764 301.1 365.044 302.34C364.344 303.56 363.384 304.51 362.164 305.19C360.964 305.87 359.574 306.21 357.994 306.21ZM349.114 311.82V289.98H352.684V293.76L352.564 298.02L352.864 302.28V311.82H349.114ZM357.574 303C358.474 303 359.274 302.8 359.974 302.4C360.694 302 361.264 301.42 361.684 300.66C362.104 299.9 362.314 299.01 362.314 297.99C362.314 296.95 362.104 296.06 361.684 295.32C361.264 294.56 360.694 293.98 359.974 293.58C359.274 293.18 358.474 292.98 357.574 292.98C356.674 292.98 355.864 293.18 355.144 293.58C354.424 293.98 353.854 294.56 353.434 295.32C353.014 296.06 352.804 296.95 352.804 297.99C352.804 299.01 353.014 299.9 353.434 300.66C353.854 301.42 354.424 302 355.144 302.4C355.864 302.8 356.674 303 357.574 303ZM377.211 306.21C375.431 306.21 373.871 305.86 372.531 305.16C371.211 304.44 370.181 303.46 369.441 302.22C368.721 300.98 368.361 299.57 368.361 297.99C368.361 296.39 368.711 294.98 369.411 293.76C370.131 292.52 371.111 291.55 372.351 290.85C373.611 290.15 375.041 289.8 376.641 289.8C378.201 289.8 379.591 290.14 380.811 290.82C382.031 291.5 382.991 292.46 383.691 293.7C384.391 294.94 384.741 296.4 384.741 298.08C384.741 298.24 384.731 298.42 384.711 298.62C384.711 298.82 384.701 299.01 384.681 299.19H371.331V296.7H382.701L381.231 297.48C381.251 296.56 381.061 295.75 380.661 295.05C380.261 294.35 379.711 293.8 379.011 293.4C378.331 293 377.541 292.8 376.641 292.8C375.721 292.8 374.911 293 374.211 293.4C373.531 293.8 372.991 294.36 372.591 295.08C372.211 295.78 372.021 296.61 372.021 297.57V298.17C372.021 299.13 372.241 299.98 372.681 300.72C373.121 301.46 373.741 302.03 374.541 302.43C375.341 302.83 376.261 303.03 377.301 303.03C378.201 303.03 379.011 302.89 379.731 302.61C380.451 302.33 381.091 301.89 381.651 301.29L383.661 303.6C382.941 304.44 382.031 305.09 380.931 305.55C379.851 305.99 378.611 306.21 377.211 306.21ZM388.343 306V289.98H391.913V294.39L391.493 293.1C391.973 292.02 392.723 291.2 393.743 290.64C394.783 290.08 396.073 289.8 397.613 289.8V293.37C397.453 293.33 397.303 293.31 397.163 293.31C397.023 293.29 396.883 293.28 396.743 293.28C395.323 293.28 394.193 293.7 393.353 294.54C392.513 295.36 392.093 296.59 392.093 298.23V306H388.343ZM401.18 299.04L400.46 285H404.9L404.15 299.04H401.18ZM402.68 306.21C401.98 306.21 401.4 305.98 400.94 305.52C400.48 305.06 400.25 304.51 400.25 303.87C400.25 303.23 400.48 302.69 400.94 302.25C401.4 301.79 401.98 301.56 402.68 301.56C403.38 301.56 403.95 301.79 404.39 302.25C404.83 302.69 405.05 303.23 405.05 303.87C405.05 304.51 404.83 305.06 404.39 305.52C403.95 305.98 403.38 306.21 402.68 306.21ZM408.779 293.31L408.539 285H411.779L411.509 293.31H408.779ZM414.569 293.31L414.329 285H417.569L417.299 293.31H414.569Z" fill="white"/>
<path d="M227.5 58.4L210.1 125L205.3 102.5C212.3 102.5 218.1 104.7 222.7 109.1C227.3 113.5 229.6 119.4 229.6 126.8C229.6 134.2 227.3 140.2 222.7 144.8C218.1 149.2 212.4 151.4 205.6 151.4C198.4 151.4 192.5 149.1 187.9 144.5C183.3 139.9 181 134 181 126.8C181 124.4 181.1 122.2 181.3 120.2C181.7 118 182.4 115.4 183.4 112.4C184.4 109.4 185.8 105.6 187.6 101L203.5 58.4H227.5ZM291.1 58.4L273.7 125L268.9 102.5C275.9 102.5 281.7 104.7 286.3 109.1C290.9 113.5 293.2 119.4 293.2 126.8C293.2 134.2 290.9 140.2 286.3 144.8C281.7 149.2 276 151.4 269.2 151.4C262 151.4 256.1 149.1 251.5 144.5C246.9 139.9 244.6 134 244.6 126.8C244.6 124.4 244.7 122.2 244.9 120.2C245.3 118 246 115.4 247 112.4C248 109.4 249.4 105.6 251.2 101L267.1 58.4H291.1Z" fill="white" fill-opacity="0.5"/>
<path d="M177.824 396V384.8H182.384C183.579 384.8 184.624 385.04 185.52 385.52C186.427 385.989 187.131 386.645 187.632 387.488C188.133 388.331 188.384 389.301 188.384 390.4C188.384 391.499 188.133 392.469 187.632 393.312C187.131 394.155 186.427 394.816 185.52 395.296C184.624 395.765 183.579 396 182.384 396H177.824ZM179.008 394.976H182.32C183.312 394.976 184.171 394.784 184.896 394.4C185.632 394.005 186.203 393.467 186.608 392.784C187.013 392.091 187.216 391.296 187.216 390.4C187.216 389.493 187.013 388.699 186.608 388.016C186.203 387.333 185.632 386.8 184.896 386.416C184.171 386.021 183.312 385.824 182.32 385.824H179.008V394.976ZM196.067 396V394.144L196.019 393.84V390.736C196.019 390.021 195.816 389.472 195.411 389.088C195.016 388.704 194.424 388.512 193.635 388.512C193.091 388.512 192.573 388.603 192.083 388.784C191.592 388.965 191.176 389.205 190.835 389.504L190.323 388.656C190.749 388.293 191.261 388.016 191.859 387.824C192.456 387.621 193.085 387.52 193.747 387.52C194.835 387.52 195.672 387.792 196.259 388.336C196.856 388.869 197.155 389.685 197.155 390.784V396H196.067ZM193.171 396.08C192.541 396.08 191.992 395.979 191.523 395.776C191.064 395.563 190.712 395.275 190.467 394.912C190.221 394.539 190.099 394.112 190.099 393.632C190.099 393.195 190.2 392.8 190.403 392.448C190.616 392.085 190.957 391.797 191.427 391.584C191.907 391.36 192.547 391.248 193.347 391.248H196.243V392.096H193.379C192.568 392.096 192.003 392.24 191.683 392.528C191.373 392.816 191.219 393.173 191.219 393.6C191.219 394.08 191.405 394.464 191.779 394.752C192.152 395.04 192.675 395.184 193.347 395.184C193.987 395.184 194.536 395.04 194.995 394.752C195.464 394.453 195.805 394.027 196.019 393.472L196.275 394.256C196.061 394.811 195.688 395.253 195.155 395.584C194.632 395.915 193.971 396.08 193.171 396.08ZM202.244 396L198.516 387.6H199.7L203.124 395.392H202.564L206.036 387.6H207.156L203.412 396H202.244ZM208.756 396V387.6H209.892V396H208.756ZM209.332 385.744C209.097 385.744 208.9 385.664 208.74 385.504C208.58 385.344 208.5 385.152 208.5 384.928C208.5 384.704 208.58 384.517 208.74 384.368C208.9 384.208 209.097 384.128 209.332 384.128C209.567 384.128 209.764 384.203 209.924 384.352C210.084 384.501 210.164 384.688 210.164 384.912C210.164 385.147 210.084 385.344 209.924 385.504C209.775 385.664 209.577 385.744 209.332 385.744ZM216.397 396.08C215.597 396.08 214.877 395.899 214.237 395.536C213.607 395.173 213.111 394.672 212.749 394.032C212.386 393.381 212.205 392.635 212.205 391.792C212.205 390.939 212.386 390.192 212.749 389.552C213.111 388.912 213.607 388.416 214.237 388.064C214.877 387.701 215.597 387.52 216.397 387.52C217.133 387.52 217.789 387.685 218.365 388.016C218.951 388.347 219.415 388.832 219.757 389.472C220.109 390.101 220.285 390.875 220.285 391.792C220.285 392.699 220.114 393.472 219.773 394.112C219.431 394.752 218.967 395.243 218.381 395.584C217.805 395.915 217.143 396.08 216.397 396.08ZM216.477 395.072C217.074 395.072 217.607 394.939 218.077 394.672C218.557 394.395 218.93 394.011 219.197 393.52C219.474 393.019 219.613 392.443 219.613 391.792C219.613 391.131 219.474 390.555 219.197 390.064C218.93 389.573 218.557 389.195 218.077 388.928C217.607 388.651 217.074 388.512 216.477 388.512C215.89 388.512 215.362 388.651 214.893 388.928C214.423 389.195 214.05 389.573 213.773 390.064C213.495 390.555 213.357 391.131 213.357 391.792C213.357 392.443 213.495 393.019 213.773 393.52C214.05 394.011 214.423 394.395 214.893 394.672C215.362 394.939 215.89 395.072 216.477 395.072ZM219.645 396V393.472L219.757 391.776L219.597 390.08V384.128H220.733V396H219.645ZM233.22 396.096C232.377 396.096 231.593 395.957 230.868 395.68C230.153 395.392 229.529 394.992 228.996 394.48C228.473 393.957 228.063 393.355 227.764 392.672C227.476 391.979 227.332 391.221 227.332 390.4C227.332 389.579 227.476 388.827 227.764 388.144C228.063 387.451 228.473 386.848 228.996 386.336C229.529 385.813 230.153 385.413 230.868 385.136C231.583 384.848 232.367 384.704 233.22 384.704C234.063 384.704 234.841 384.848 235.556 385.136C236.271 385.413 236.889 385.808 237.412 386.32C237.945 386.832 238.356 387.435 238.644 388.128C238.943 388.821 239.092 389.579 239.092 390.4C239.092 391.221 238.943 391.979 238.644 392.672C238.356 393.365 237.945 393.968 237.412 394.48C236.889 394.992 236.271 395.392 235.556 395.68C234.841 395.957 234.063 396.096 233.22 396.096ZM233.22 395.04C233.892 395.04 234.511 394.928 235.076 394.704C235.652 394.469 236.148 394.144 236.564 393.728C236.991 393.301 237.321 392.811 237.556 392.256C237.791 391.691 237.908 391.072 237.908 390.4C237.908 389.728 237.791 389.115 237.556 388.56C237.321 387.995 236.991 387.504 236.564 387.088C236.148 386.661 235.652 386.336 235.076 386.112C234.511 385.877 233.892 385.76 233.22 385.76C232.548 385.76 231.924 385.877 231.348 386.112C230.772 386.336 230.271 386.661 229.844 387.088C229.428 387.504 229.097 387.995 228.852 388.56C228.617 389.115 228.5 389.728 228.5 390.4C228.5 391.061 228.617 391.675 228.852 392.24C229.097 392.805 229.428 393.301 229.844 393.728C230.271 394.144 230.772 394.469 231.348 394.704C231.924 394.928 232.548 395.04 233.22 395.04ZM241.305 396.08C241.071 396.08 240.868 395.995 240.697 395.824C240.537 395.653 240.457 395.445 240.457 395.2C240.457 394.944 240.537 394.736 240.697 394.576C240.868 394.416 241.071 394.336 241.305 394.336C241.54 394.336 241.737 394.416 241.897 394.576C242.068 394.736 242.153 394.944 242.153 395.2C242.153 395.445 242.068 395.653 241.897 395.824C241.737 395.995 241.54 396.08 241.305 396.08ZM243.896 398.336L244.6 395.376L244.728 396.064C244.483 396.064 244.275 395.984 244.104 395.824C243.944 395.664 243.864 395.456 243.864 395.2C243.864 394.944 243.944 394.736 244.104 394.576C244.275 394.416 244.477 394.336 244.712 394.336C244.957 394.336 245.155 394.421 245.304 394.592C245.464 394.763 245.544 394.965 245.544 395.2C245.544 395.285 245.539 395.371 245.528 395.456C245.517 395.541 245.496 395.637 245.464 395.744C245.432 395.851 245.389 395.979 245.336 396.128L244.664 398.336H243.896ZM260.594 384.8H261.762V396H260.594V384.8ZM253.586 396H252.402V384.8H253.586V396ZM260.706 390.832H253.458V389.792H260.706V390.832ZM270.442 396V394.144L270.394 393.84V390.736C270.394 390.021 270.191 389.472 269.786 389.088C269.391 388.704 268.799 388.512 268.01 388.512C267.466 388.512 266.948 388.603 266.458 388.784C265.967 388.965 265.551 389.205 265.21 389.504L264.698 388.656C265.124 388.293 265.636 388.016 266.234 387.824C266.831 387.621 267.46 387.52 268.122 387.52C269.21 387.52 270.047 387.792 270.634 388.336C271.231 388.869 271.53 389.685 271.53 390.784V396H270.442ZM267.546 396.08C266.916 396.08 266.367 395.979 265.898 395.776C265.439 395.563 265.087 395.275 264.842 394.912C264.596 394.539 264.474 394.112 264.474 393.632C264.474 393.195 264.575 392.8 264.778 392.448C264.991 392.085 265.332 391.797 265.802 391.584C266.282 391.36 266.922 391.248 267.722 391.248H270.618V392.096H267.754C266.943 392.096 266.378 392.24 266.058 392.528C265.748 392.816 265.594 393.173 265.594 393.6C265.594 394.08 265.78 394.464 266.154 394.752C266.527 395.04 267.05 395.184 267.722 395.184C268.362 395.184 268.911 395.04 269.37 394.752C269.839 394.453 270.18 394.027 270.394 393.472L270.65 394.256C270.436 394.811 270.063 395.253 269.53 395.584C269.007 395.915 268.346 396.08 267.546 396.08ZM278.183 396.08C277.309 396.08 276.541 395.899 275.879 395.536C275.218 395.163 274.701 394.656 274.327 394.016C273.954 393.365 273.767 392.624 273.767 391.792C273.767 390.96 273.943 390.224 274.295 389.584C274.658 388.944 275.149 388.443 275.767 388.08C276.397 387.707 277.101 387.52 277.879 387.52C278.669 387.52 279.367 387.701 279.975 388.064C280.594 388.416 281.079 388.917 281.431 389.568C281.783 390.208 281.959 390.949 281.959 391.792C281.959 391.845 281.954 391.904 281.943 391.968C281.943 392.021 281.943 392.08 281.943 392.144H274.631V391.296H281.335L280.887 391.632C280.887 391.024 280.754 390.485 280.487 390.016C280.231 389.536 279.879 389.163 279.431 388.896C278.983 388.629 278.466 388.496 277.879 388.496C277.303 388.496 276.786 388.629 276.327 388.896C275.869 389.163 275.511 389.536 275.255 390.016C274.999 390.496 274.871 391.045 274.871 391.664V391.84C274.871 392.48 275.01 393.045 275.287 393.536C275.575 394.016 275.97 394.395 276.471 394.672C276.983 394.939 277.565 395.072 278.215 395.072C278.727 395.072 279.202 394.981 279.639 394.8C280.087 394.619 280.471 394.341 280.791 393.968L281.431 394.704C281.058 395.152 280.589 395.493 280.023 395.728C279.469 395.963 278.855 396.08 278.183 396.08ZM284.272 396V384.128H285.408V396H284.272ZM290.824 396.08C290.131 396.08 289.475 395.984 288.856 395.792C288.238 395.589 287.752 395.339 287.4 395.04L287.912 394.144C288.254 394.4 288.691 394.624 289.224 394.816C289.758 394.997 290.318 395.088 290.904 395.088C291.704 395.088 292.28 394.965 292.632 394.72C292.984 394.464 293.16 394.128 293.16 393.712C293.16 393.403 293.059 393.163 292.856 392.992C292.664 392.811 292.408 392.677 292.088 392.592C291.768 392.496 291.411 392.416 291.016 392.352C290.622 392.288 290.227 392.213 289.832 392.128C289.448 392.043 289.096 391.92 288.776 391.76C288.456 391.589 288.195 391.36 287.992 391.072C287.8 390.784 287.704 390.4 287.704 389.92C287.704 389.461 287.832 389.051 288.088 388.688C288.344 388.325 288.718 388.043 289.208 387.84C289.71 387.627 290.318 387.52 291.032 387.52C291.576 387.52 292.12 387.595 292.664 387.744C293.208 387.883 293.656 388.069 294.008 388.304L293.512 389.216C293.139 388.96 292.739 388.779 292.312 388.672C291.886 388.555 291.459 388.496 291.032 388.496C290.275 388.496 289.715 388.629 289.352 388.896C289 389.152 288.824 389.483 288.824 389.888C288.824 390.208 288.92 390.459 289.112 390.64C289.315 390.821 289.576 390.965 289.896 391.072C290.227 391.168 290.584 391.248 290.968 391.312C291.363 391.376 291.752 391.456 292.136 391.552C292.531 391.637 292.888 391.76 293.208 391.92C293.539 392.069 293.8 392.288 293.992 392.576C294.195 392.853 294.296 393.221 294.296 393.68C294.296 394.171 294.158 394.597 293.88 394.96C293.614 395.312 293.219 395.589 292.696 395.792C292.184 395.984 291.56 396.08 290.824 396.08ZM299.805 396.08C298.994 396.08 298.264 395.899 297.613 395.536C296.973 395.163 296.466 394.656 296.093 394.016C295.72 393.365 295.533 392.624 295.533 391.792C295.533 390.949 295.72 390.208 296.093 389.568C296.466 388.928 296.973 388.427 297.613 388.064C298.253 387.701 298.984 387.52 299.805 387.52C300.637 387.52 301.373 387.701 302.013 388.064C302.664 388.427 303.17 388.928 303.533 389.568C303.906 390.208 304.093 390.949 304.093 391.792C304.093 392.624 303.906 393.365 303.533 394.016C303.17 394.656 302.664 395.163 302.013 395.536C301.362 395.899 300.626 396.08 299.805 396.08ZM299.805 395.072C300.413 395.072 300.952 394.939 301.421 394.672C301.89 394.395 302.258 394.011 302.525 393.52C302.802 393.019 302.941 392.443 302.941 391.792C302.941 391.131 302.802 390.555 302.525 390.064C302.258 389.573 301.89 389.195 301.421 388.928C300.952 388.651 300.418 388.512 299.821 388.512C299.224 388.512 298.69 388.651 298.221 388.928C297.752 389.195 297.378 389.573 297.101 390.064C296.824 390.555 296.685 391.131 296.685 391.792C296.685 392.443 296.824 393.019 297.101 393.52C297.378 394.011 297.752 394.395 298.221 394.672C298.69 394.939 299.218 395.072 299.805 395.072ZM306.604 396V386.544C306.604 385.797 306.823 385.195 307.26 384.736C307.697 384.277 308.327 384.048 309.148 384.048C309.468 384.048 309.777 384.091 310.076 384.176C310.375 384.261 310.625 384.395 310.828 384.576L310.444 385.424C310.284 385.285 310.097 385.184 309.884 385.12C309.671 385.045 309.441 385.008 309.196 385.008C308.716 385.008 308.348 385.141 308.092 385.408C307.836 385.675 307.708 386.069 307.708 386.592V387.872L307.74 388.4V396H306.604ZM305.1 388.544V387.6H310.3V388.544H305.1ZM314.49 396.08C313.701 396.08 313.093 395.867 312.666 395.44C312.239 395.013 312.026 394.411 312.026 393.632V385.744H313.162V393.568C313.162 394.059 313.285 394.437 313.53 394.704C313.786 394.971 314.149 395.104 314.618 395.104C315.119 395.104 315.535 394.96 315.866 394.672L316.266 395.488C316.042 395.691 315.77 395.84 315.45 395.936C315.141 396.032 314.821 396.08 314.49 396.08ZM310.522 388.544V387.6H315.722V388.544H310.522ZM322.762 396V384.8H327.594C328.842 384.8 329.807 385.051 330.49 385.552C331.183 386.053 331.53 386.763 331.53 387.68C331.53 388.288 331.386 388.8 331.098 389.216C330.82 389.632 330.436 389.947 329.946 390.16C329.466 390.373 328.938 390.48 328.362 390.48L328.634 390.096C329.348 390.096 329.962 390.208 330.474 390.432C330.996 390.645 331.402 390.971 331.69 391.408C331.978 391.835 332.122 392.368 332.122 393.008C332.122 393.957 331.77 394.693 331.066 395.216C330.372 395.739 329.322 396 327.914 396H322.762ZM323.946 395.024H327.898C328.879 395.024 329.631 394.859 330.154 394.528C330.676 394.187 330.938 393.648 330.938 392.912C330.938 392.187 330.676 391.659 330.154 391.328C329.631 390.987 328.879 390.816 327.898 390.816H323.818V389.84H327.514C328.41 389.84 329.103 389.669 329.594 389.328C330.095 388.987 330.345 388.48 330.345 387.808C330.345 387.125 330.095 386.619 329.594 386.288C329.103 385.947 328.41 385.776 327.514 385.776H323.946V395.024ZM338.008 396.08C337.197 396.08 336.467 395.899 335.816 395.536C335.176 395.163 334.669 394.656 334.296 394.016C333.923 393.365 333.736 392.624 333.736 391.792C333.736 390.949 333.923 390.208 334.296 389.568C334.669 388.928 335.176 388.427 335.816 388.064C336.456 387.701 337.187 387.52 338.008 387.52C338.84 387.52 339.576 387.701 340.216 388.064C340.867 388.427 341.373 388.928 341.736 389.568C342.109 390.208 342.296 390.949 342.296 391.792C342.296 392.624 342.109 393.365 341.736 394.016C341.373 394.656 340.867 395.163 340.216 395.536C339.565 395.899 338.829 396.08 338.008 396.08ZM338.008 395.072C338.616 395.072 339.155 394.939 339.624 394.672C340.093 394.395 340.461 394.011 340.728 393.52C341.005 393.019 341.144 392.443 341.144 391.792C341.144 391.131 341.005 390.555 340.728 390.064C340.461 389.573 340.093 389.195 339.624 388.928C339.155 388.651 338.621 388.512 338.024 388.512C337.427 388.512 336.893 388.651 336.424 388.928C335.955 389.195 335.581 389.573 335.304 390.064C335.027 390.555 334.888 391.131 334.888 391.792C334.888 392.443 335.027 393.019 335.304 393.52C335.581 394.011 335.955 394.395 336.424 394.672C336.893 394.939 337.421 395.072 338.008 395.072ZM348.039 396.08C347.229 396.08 346.498 395.899 345.847 395.536C345.207 395.163 344.701 394.656 344.327 394.016C343.954 393.365 343.767 392.624 343.767 391.792C343.767 390.949 343.954 390.208 344.327 389.568C344.701 388.928 345.207 388.427 345.847 388.064C346.487 387.701 347.218 387.52 348.039 387.52C348.871 387.52 349.607 387.701 350.247 388.064C350.898 388.427 351.405 388.928 351.767 389.568C352.141 390.208 352.327 390.949 352.327 391.792C352.327 392.624 352.141 393.365 351.767 394.016C351.405 394.656 350.898 395.163 350.247 395.536C349.597 395.899 348.861 396.08 348.039 396.08ZM348.039 395.072C348.647 395.072 349.186 394.939 349.655 394.672C350.125 394.395 350.493 394.011 350.759 393.52C351.037 393.019 351.175 392.443 351.175 391.792C351.175 391.131 351.037 390.555 350.759 390.064C350.493 389.573 350.125 389.195 349.655 388.928C349.186 388.651 348.653 388.512 348.055 388.512C347.458 388.512 346.925 388.651 346.455 388.928C345.986 389.195 345.613 389.573 345.335 390.064C345.058 390.555 344.919 391.131 344.919 391.792C344.919 392.443 345.058 393.019 345.335 393.52C345.613 394.011 345.986 394.395 346.455 394.672C346.925 394.939 347.453 395.072 348.039 395.072ZM357.303 396.08C356.513 396.08 355.905 395.867 355.479 395.44C355.052 395.013 354.839 394.411 354.839 393.632V385.744H355.975V393.568C355.975 394.059 356.097 394.437 356.343 394.704C356.599 394.971 356.961 395.104 357.431 395.104C357.932 395.104 358.348 394.96 358.679 394.672L359.079 395.488C358.855 395.691 358.583 395.84 358.263 395.936C357.953 396.032 357.633 396.08 357.303 396.08ZM353.335 388.544V387.6H358.535V388.544H353.335ZM364.338 396.08C363.506 396.08 362.759 395.899 362.098 395.536C361.447 395.163 360.935 394.656 360.562 394.016C360.188 393.365 360.002 392.624 360.002 391.792C360.002 390.949 360.188 390.208 360.562 389.568C360.935 388.928 361.447 388.427 362.098 388.064C362.759 387.701 363.506 387.52 364.338 387.52C365.052 387.52 365.698 387.659 366.274 387.936C366.85 388.213 367.303 388.629 367.634 389.184L366.786 389.76C366.498 389.333 366.14 389.019 365.714 388.816C365.287 388.613 364.823 388.512 364.322 388.512C363.724 388.512 363.186 388.651 362.706 388.928C362.226 389.195 361.847 389.573 361.57 390.064C361.292 390.555 361.154 391.131 361.154 391.792C361.154 392.453 361.292 393.029 361.57 393.52C361.847 394.011 362.226 394.395 362.706 394.672C363.186 394.939 363.724 395.072 364.322 395.072C364.823 395.072 365.287 394.971 365.714 394.768C366.14 394.565 366.498 394.256 366.786 393.84L367.634 394.416C367.303 394.96 366.85 395.376 366.274 395.664C365.698 395.941 365.052 396.08 364.338 396.08ZM375.129 396V394.144L375.081 393.84V390.736C375.081 390.021 374.879 389.472 374.473 389.088C374.079 388.704 373.487 388.512 372.697 388.512C372.153 388.512 371.636 388.603 371.145 388.784C370.655 388.965 370.239 389.205 369.897 389.504L369.385 388.656C369.812 388.293 370.324 388.016 370.921 387.824C371.519 387.621 372.148 387.52 372.809 387.52C373.897 387.52 374.735 387.792 375.321 388.336C375.919 388.869 376.217 389.685 376.217 390.784V396H375.129ZM372.233 396.08C371.604 396.08 371.055 395.979 370.585 395.776C370.127 395.563 369.775 395.275 369.529 394.912C369.284 394.539 369.161 394.112 369.161 393.632C369.161 393.195 369.263 392.8 369.465 392.448C369.679 392.085 370.02 391.797 370.489 391.584C370.969 391.36 371.609 391.248 372.409 391.248H375.305V392.096H372.441C371.631 392.096 371.065 392.24 370.745 392.528C370.436 392.816 370.281 393.173 370.281 393.6C370.281 394.08 370.468 394.464 370.841 394.752C371.215 395.04 371.737 395.184 372.409 395.184C373.049 395.184 373.599 395.04 374.057 394.752C374.527 394.453 374.868 394.027 375.081 393.472L375.337 394.256C375.124 394.811 374.751 395.253 374.217 395.584C373.695 395.915 373.033 396.08 372.233 396.08ZM389.799 387.52C390.481 387.52 391.073 387.653 391.575 387.92C392.087 388.176 392.481 388.571 392.759 389.104C393.047 389.637 393.191 390.309 393.191 391.12V396H392.055V391.232C392.055 390.347 391.841 389.68 391.415 389.232C390.999 388.773 390.407 388.544 389.639 388.544C389.063 388.544 388.561 388.667 388.135 388.912C387.719 389.147 387.393 389.493 387.159 389.952C386.935 390.4 386.823 390.944 386.823 391.584V396H385.687V391.232C385.687 390.347 385.473 389.68 385.047 389.232C384.62 388.773 384.023 388.544 383.255 388.544C382.689 388.544 382.193 388.667 381.767 388.912C381.34 389.147 381.009 389.493 380.775 389.952C380.551 390.4 380.439 390.944 380.439 391.584V396H379.303V387.6H380.391V389.872L380.215 389.472C380.471 388.864 380.881 388.389 381.447 388.048C382.023 387.696 382.7 387.52 383.479 387.52C384.3 387.52 384.999 387.728 385.575 388.144C386.151 388.549 386.524 389.163 386.695 389.984L386.247 389.808C386.492 389.125 386.924 388.576 387.543 388.16C388.172 387.733 388.924 387.52 389.799 387.52ZM400.608 396.08C399.882 396.08 399.226 395.915 398.64 395.584C398.053 395.243 397.584 394.757 397.232 394.128C396.89 393.488 396.72 392.709 396.72 391.792C396.72 390.875 396.89 390.101 397.232 389.472C397.573 388.832 398.037 388.347 398.624 388.016C399.21 387.685 399.872 387.52 400.608 387.52C401.408 387.52 402.122 387.701 402.752 388.064C403.392 388.416 403.893 388.917 404.256 389.568C404.618 390.208 404.8 390.949 404.8 391.792C404.8 392.645 404.618 393.392 404.256 394.032C403.893 394.672 403.392 395.173 402.752 395.536C402.122 395.899 401.408 396.08 400.608 396.08ZM396.272 399.104V387.6H397.36V390.128L397.248 391.808L397.408 393.504V399.104H396.272ZM400.528 395.072C401.125 395.072 401.658 394.939 402.128 394.672C402.597 394.395 402.97 394.011 403.248 393.52C403.525 393.019 403.664 392.443 403.664 391.792C403.664 391.141 403.525 390.571 403.248 390.08C402.97 389.589 402.597 389.205 402.128 388.928C401.658 388.651 401.125 388.512 400.528 388.512C399.93 388.512 399.392 388.651 398.911 388.928C398.442 389.205 398.069 389.589 397.792 390.08C397.525 390.571 397.392 391.141 397.392 391.792C397.392 392.443 397.525 393.019 397.792 393.52C398.069 394.011 398.442 394.395 398.911 394.672C399.392 394.939 399.93 395.072 400.528 395.072ZM416.455 396.096C415.601 396.096 414.812 395.957 414.087 395.68C413.372 395.392 412.748 394.992 412.215 394.48C411.692 393.968 411.281 393.365 410.983 392.672C410.695 391.979 410.551 391.221 410.551 390.4C410.551 389.579 410.695 388.821 410.983 388.128C411.281 387.435 411.697 386.832 412.231 386.32C412.764 385.808 413.388 385.413 414.103 385.136C414.828 384.848 415.617 384.704 416.471 384.704C417.324 384.704 418.103 384.837 418.807 385.104C419.521 385.371 420.129 385.776 420.631 386.32L419.895 387.072C419.425 386.603 418.908 386.267 418.343 386.064C417.777 385.861 417.169 385.76 416.519 385.76C415.825 385.76 415.185 385.877 414.599 386.112C414.023 386.336 413.516 386.661 413.079 387.088C412.652 387.504 412.316 387.995 412.071 388.56C411.836 389.115 411.719 389.728 411.719 390.4C411.719 391.061 411.836 391.675 412.071 392.24C412.316 392.805 412.652 393.301 413.079 393.728C413.516 394.144 414.023 394.469 414.599 394.704C415.185 394.928 415.82 395.04 416.503 395.04C417.143 395.04 417.745 394.944 418.311 394.752C418.887 394.56 419.415 394.235 419.895 393.776L420.567 394.672C420.033 395.141 419.409 395.499 418.695 395.744C417.98 395.979 417.233 396.096 416.455 396.096ZM419.431 394.528V390.4H420.567V394.672L419.431 394.528ZM423.678 396V387.6H424.766V389.888L424.654 389.488C424.888 388.848 425.283 388.363 425.838 388.032C426.392 387.691 427.08 387.52 427.902 387.52V388.624C427.859 388.624 427.816 388.624 427.774 388.624C427.731 388.613 427.688 388.608 427.646 388.608C426.76 388.608 426.067 388.88 425.566 389.424C425.064 389.957 424.814 390.72 424.814 391.712V396H423.678ZM434.614 396V394.144L434.566 393.84V390.736C434.566 390.021 434.363 389.472 433.958 389.088C433.563 388.704 432.971 388.512 432.182 388.512C431.638 388.512 431.12 388.603 430.63 388.784C430.139 388.965 429.723 389.205 429.382 389.504L428.87 388.656C429.296 388.293 429.808 388.016 430.406 387.824C431.003 387.621 431.632 387.52 432.294 387.52C433.382 387.52 434.219 387.792 434.806 388.336C435.403 388.869 435.702 389.685 435.702 390.784V396H434.614ZM431.718 396.08C431.088 396.08 430.539 395.979 430.07 395.776C429.611 395.563 429.259 395.275 429.014 394.912C428.768 394.539 428.646 394.112 428.646 393.632C428.646 393.195 428.747 392.8 428.95 392.448C429.163 392.085 429.504 391.797 429.974 391.584C430.454 391.36 431.094 391.248 431.894 391.248H434.79V392.096H431.926C431.115 392.096 430.55 392.24 430.23 392.528C429.92 392.816 429.766 393.173 429.766 393.6C429.766 394.08 429.952 394.464 430.326 394.752C430.699 395.04 431.222 395.184 431.894 395.184C432.534 395.184 433.083 395.04 433.542 394.752C434.011 394.453 434.352 394.027 434.566 393.472L434.822 394.256C434.608 394.811 434.235 395.253 433.702 395.584C433.179 395.915 432.518 396.08 431.718 396.08ZM442.131 396.08C441.331 396.08 440.611 395.899 439.971 395.536C439.342 395.173 438.846 394.672 438.483 394.032C438.12 393.381 437.939 392.635 437.939 391.792C437.939 390.939 438.12 390.192 438.483 389.552C438.846 388.912 439.342 388.416 439.971 388.064C440.611 387.701 441.331 387.52 442.131 387.52C442.867 387.52 443.523 387.685 444.099 388.016C444.686 388.347 445.15 388.832 445.491 389.472C445.843 390.101 446.019 390.875 446.019 391.792C446.019 392.699 445.848 393.472 445.507 394.112C445.166 394.752 444.702 395.243 444.115 395.584C443.539 395.915 442.878 396.08 442.131 396.08ZM442.211 395.072C442.808 395.072 443.342 394.939 443.811 394.672C444.291 394.395 444.664 394.011 444.931 393.52C445.208 393.019 445.347 392.443 445.347 391.792C445.347 391.131 445.208 390.555 444.931 390.064C444.664 389.573 444.291 389.195 443.811 388.928C443.342 388.651 442.808 388.512 442.211 388.512C441.624 388.512 441.096 388.651 440.627 388.928C440.158 389.195 439.784 389.573 439.507 390.064C439.23 390.555 439.091 391.131 439.091 391.792C439.091 392.443 439.23 393.019 439.507 393.52C439.784 394.011 440.158 394.395 440.627 394.672C441.096 394.939 441.624 395.072 442.211 395.072ZM445.379 396V393.472L445.491 391.776L445.331 390.08V384.128H446.467V396H445.379ZM453.103 396.08C452.388 396.08 451.764 395.947 451.231 395.68C450.698 395.413 450.282 395.013 449.983 394.48C449.695 393.947 449.551 393.28 449.551 392.48V387.6H450.687V392.352C450.687 393.248 450.906 393.925 451.343 394.384C451.791 394.832 452.415 395.056 453.215 395.056C453.802 395.056 454.308 394.939 454.735 394.704C455.172 394.459 455.503 394.107 455.727 393.648C455.962 393.189 456.079 392.64 456.079 392V387.6H457.215V396H456.127V393.696L456.303 394.112C456.036 394.731 455.62 395.216 455.055 395.568C454.5 395.909 453.85 396.08 453.103 396.08ZM465.645 396V394.144L465.597 393.84V390.736C465.597 390.021 465.394 389.472 464.989 389.088C464.594 388.704 464.002 388.512 463.213 388.512C462.669 388.512 462.152 388.603 461.661 388.784C461.17 388.965 460.754 389.205 460.413 389.504L459.901 388.656C460.328 388.293 460.84 388.016 461.437 387.824C462.034 387.621 462.664 387.52 463.325 387.52C464.413 387.52 465.25 387.792 465.837 388.336C466.434 388.869 466.733 389.685 466.733 390.784V396H465.645ZM462.749 396.08C462.12 396.08 461.57 395.979 461.101 395.776C460.642 395.563 460.29 395.275 460.045 394.912C459.8 394.539 459.677 394.112 459.677 393.632C459.677 393.195 459.778 392.8 459.981 392.448C460.194 392.085 460.536 391.797 461.005 391.584C461.485 391.36 462.125 391.248 462.925 391.248H465.821V392.096H462.957C462.146 392.096 461.581 392.24 461.261 392.528C460.952 392.816 460.797 393.173 460.797 393.6C460.797 394.08 460.984 394.464 461.357 394.752C461.73 395.04 462.253 395.184 462.925 395.184C463.565 395.184 464.114 395.04 464.573 394.752C465.042 394.453 465.384 394.027 465.597 393.472L465.853 394.256C465.64 394.811 465.266 395.253 464.733 395.584C464.21 395.915 463.549 396.08 462.749 396.08ZM472.474 396.08C471.685 396.08 471.077 395.867 470.65 395.44C470.224 395.013 470.01 394.411 470.01 393.632V385.744H471.146V393.568C471.146 394.059 471.269 394.437 471.514 394.704C471.77 394.971 472.133 395.104 472.602 395.104C473.104 395.104 473.52 394.96 473.85 394.672L474.25 395.488C474.026 395.691 473.754 395.84 473.434 395.936C473.125 396.032 472.805 396.08 472.474 396.08ZM468.506 388.544V387.6H473.706V388.544H468.506ZM479.59 396.08C478.715 396.08 477.947 395.899 477.286 395.536C476.624 395.163 476.107 394.656 475.734 394.016C475.36 393.365 475.174 392.624 475.174 391.792C475.174 390.96 475.35 390.224 475.702 389.584C476.064 388.944 476.555 388.443 477.174 388.08C477.803 387.707 478.507 387.52 479.286 387.52C480.075 387.52 480.774 387.701 481.382 388.064C482 388.416 482.486 388.917 482.838 389.568C483.19 390.208 483.366 390.949 483.366 391.792C483.366 391.845 483.36 391.904 483.35 391.968C483.35 392.021 483.35 392.08 483.35 392.144H476.038V391.296H482.742L482.294 391.632C482.294 391.024 482.16 390.485 481.894 390.016C481.638 389.536 481.286 389.163 480.838 388.896C480.39 388.629 479.872 388.496 479.286 388.496C478.71 388.496 478.192 388.629 477.734 388.896C477.275 389.163 476.918 389.536 476.662 390.016C476.406 390.496 476.278 391.045 476.278 391.664V391.84C476.278 392.48 476.416 393.045 476.694 393.536C476.982 394.016 477.376 394.395 477.878 394.672C478.39 394.939 478.971 395.072 479.622 395.072C480.134 395.072 480.608 394.981 481.046 394.8C481.494 394.619 481.878 394.341 482.198 393.968L482.838 394.704C482.464 395.152 481.995 395.493 481.43 395.728C480.875 395.963 480.262 396.08 479.59 396.08Z" fill="white"/>
<path d="M179.834 107.196H186.116V109.176H179.834V107.196ZM180.032 114H177.692V101.4H186.89V103.362H180.032V114ZM191.313 106.638H197.577V108.564H191.313V106.638ZM191.493 112.038H198.603V114H189.153V101.4H198.351V103.362H191.493V112.038ZM199.43 114L205.1 101.4H207.404L213.092 114H210.644L205.766 102.642H206.702L201.842 114H199.43ZM202.04 111.084L202.67 109.248H209.474L210.104 111.084H202.04ZM216.617 114V103.38H212.441V101.4H223.133V103.38H218.957V114H216.617ZM230.079 114.18C228.351 114.18 226.995 113.694 226.011 112.722C225.039 111.75 224.553 110.346 224.553 108.51V101.4H226.893V108.42C226.893 109.716 227.169 110.658 227.721 111.246C228.285 111.834 229.077 112.128 230.097 112.128C231.117 112.128 231.903 111.834 232.455 111.246C233.007 110.658 233.283 109.716 233.283 108.42V101.4H235.587V108.51C235.587 110.346 235.095 111.75 234.111 112.722C233.139 113.694 231.795 114.18 230.079 114.18ZM238.864 114V101.4H244.048C245.164 101.4 246.118 101.58 246.91 101.94C247.714 102.3 248.332 102.816 248.764 103.488C249.196 104.16 249.412 104.958 249.412 105.882C249.412 106.806 249.196 107.604 248.764 108.276C248.332 108.936 247.714 109.446 246.91 109.806C246.118 110.154 245.164 110.328 244.048 110.328H240.16L241.204 109.266V114H238.864ZM247.108 114L243.922 109.428H246.424L249.628 114H247.108ZM241.204 109.518L240.16 108.402H243.94C244.972 108.402 245.746 108.18 246.262 107.736C246.79 107.292 247.054 106.674 247.054 105.882C247.054 105.078 246.79 104.46 246.262 104.028C245.746 103.596 244.972 103.38 243.94 103.38H240.16L241.204 102.228V109.518ZM254.19 106.638H260.454V108.564H254.19V106.638ZM254.37 112.038H261.48V114H252.03V101.4H261.228V103.362H254.37V112.038ZM264.088 114V101.4H269.596C270.964 101.4 272.164 101.664 273.196 102.192C274.228 102.72 275.032 103.452 275.608 104.388C276.184 105.324 276.472 106.428 276.472 107.7C276.472 108.96 276.184 110.064 275.608 111.012C275.032 111.948 274.228 112.68 273.196 113.208C272.164 113.736 270.964 114 269.596 114H264.088ZM266.428 112.02H269.488C270.436 112.02 271.252 111.84 271.936 111.48C272.632 111.12 273.166 110.616 273.538 109.968C273.922 109.32 274.114 108.564 274.114 107.7C274.114 106.824 273.922 106.068 273.538 105.432C273.166 104.784 272.632 104.28 271.936 103.92C271.252 103.56 270.436 103.38 269.488 103.38H266.428V112.02ZM287.84 114.18C286.856 114.18 285.914 114.042 285.014 113.766C284.114 113.478 283.4 113.112 282.872 112.668L283.682 110.85C284.186 111.246 284.81 111.576 285.554 111.84C286.298 112.104 287.06 112.236 287.84 112.236C288.5 112.236 289.034 112.164 289.442 112.02C289.85 111.876 290.15 111.684 290.342 111.444C290.534 111.192 290.63 110.91 290.63 110.598C290.63 110.214 290.492 109.908 290.216 109.68C289.94 109.44 289.58 109.254 289.136 109.122C288.704 108.978 288.218 108.846 287.678 108.726C287.15 108.606 286.616 108.468 286.076 108.312C285.548 108.144 285.062 107.934 284.618 107.682C284.186 107.418 283.832 107.07 283.556 106.638C283.28 106.206 283.142 105.654 283.142 104.982C283.142 104.298 283.322 103.674 283.682 103.11C284.054 102.534 284.612 102.078 285.356 101.742C286.112 101.394 287.066 101.22 288.218 101.22C288.974 101.22 289.724 101.316 290.468 101.508C291.212 101.7 291.86 101.976 292.412 102.336L291.674 104.154C291.11 103.818 290.528 103.572 289.928 103.416C289.328 103.248 288.752 103.164 288.2 103.164C287.552 103.164 287.024 103.242 286.616 103.398C286.22 103.554 285.926 103.758 285.734 104.01C285.554 104.262 285.464 104.55 285.464 104.874C285.464 105.258 285.596 105.57 285.86 105.81C286.136 106.038 286.49 106.218 286.922 106.35C287.366 106.482 287.858 106.614 288.398 106.746C288.938 106.866 289.472 107.004 290 107.16C290.54 107.316 291.026 107.52 291.458 107.772C291.902 108.024 292.256 108.366 292.52 108.798C292.796 109.23 292.934 109.776 292.934 110.436C292.934 111.108 292.748 111.732 292.376 112.308C292.016 112.872 291.458 113.328 290.702 113.676C289.946 114.012 288.992 114.18 287.84 114.18ZM297.635 114V103.38H293.459V101.4H304.151V103.38H299.975V114H297.635ZM311.635 114.18C310.651 114.18 309.745 114.018 308.917 113.694C308.089 113.37 307.369 112.92 306.757 112.344C306.145 111.756 305.671 111.072 305.335 110.292C304.999 109.5 304.831 108.636 304.831 107.7C304.831 106.764 304.999 105.906 305.335 105.126C305.671 104.334 306.145 103.65 306.757 103.074C307.369 102.486 308.089 102.03 308.917 101.706C309.745 101.382 310.645 101.22 311.617 101.22C312.601 101.22 313.501 101.382 314.317 101.706C315.145 102.03 315.865 102.486 316.477 103.074C317.089 103.65 317.563 104.334 317.899 105.126C318.235 105.906 318.403 106.764 318.403 107.7C318.403 108.636 318.235 109.5 317.899 110.292C317.563 111.084 317.089 111.768 316.477 112.344C315.865 112.92 315.145 113.37 314.317 113.694C313.501 114.018 312.607 114.18 311.635 114.18ZM311.617 112.128C312.253 112.128 312.841 112.02 313.381 111.804C313.921 111.588 314.389 111.282 314.785 110.886C315.181 110.478 315.487 110.01 315.703 109.482C315.931 108.942 316.045 108.348 316.045 107.7C316.045 107.052 315.931 106.464 315.703 105.936C315.487 105.396 315.181 104.928 314.785 104.532C314.389 104.124 313.921 103.812 313.381 103.596C312.841 103.38 312.253 103.272 311.617 103.272C310.981 103.272 310.393 103.38 309.853 103.596C309.325 103.812 308.857 104.124 308.449 104.532C308.053 104.928 307.741 105.396 307.513 105.936C307.297 106.464 307.189 107.052 307.189 107.7C307.189 108.336 307.297 108.924 307.513 109.464C307.741 110.004 308.053 110.478 308.449 110.886C308.845 111.282 309.313 111.588 309.853 111.804C310.393 112.02 310.981 112.128 311.617 112.128ZM320.883 114V101.4H326.067C327.183 101.4 328.137 101.58 328.929 101.94C329.733 102.3 330.351 102.816 330.783 103.488C331.215 104.16 331.431 104.958 331.431 105.882C331.431 106.806 331.215 107.604 330.783 108.276C330.351 108.936 329.733 109.446 328.929 109.806C328.137 110.154 327.183 110.328 326.067 110.328H322.179L323.223 109.266V114H320.883ZM329.127 114L325.941 109.428H328.443L331.647 114H329.127ZM323.223 109.518L322.179 108.402H325.959C326.991 108.402 327.765 108.18 328.281 107.736C328.809 107.292 329.073 106.674 329.073 105.882C329.073 105.078 328.809 104.46 328.281 104.028C327.765 103.596 326.991 103.38 325.959 103.38H322.179L323.223 102.228V109.518ZM336.97 114V109.014L337.492 110.454L332.02 101.4H334.522L338.914 108.69H337.51L341.938 101.4H344.242L338.77 110.454L339.31 109.014V114H336.97Z" fill="white"/>
</svg>
