<svg width="17" height="17" viewBox="0 0 17 17" fill="none" xmlns="http://www.w3.org/2000/svg">
<path fill-rule="evenodd" clip-rule="evenodd" d="M5.67202 0.911043C5.60333 0.654844 5.43568 0.436425 5.20595 0.303837C4.97621 0.171249 4.70322 0.135352 4.44702 0.204043C4.19082 0.272734 3.9724 0.440386 3.83981 0.670118C3.70723 0.89985 3.67133 1.17284 3.74002 1.42904L3.99902 2.39504C4.06771 2.65124 4.23536 2.86966 4.4651 3.00225C4.69483 3.13484 4.96782 3.17073 5.22402 3.10204C5.48022 3.03335 5.69864 2.8657 5.83123 2.63597C5.96382 2.40624 5.99971 2.13324 5.93102 1.87704L5.67202 0.911043ZM1.42902 3.74004C1.30194 3.7054 1.16927 3.69621 1.03863 3.71298C0.907992 3.72976 0.781952 3.77218 0.667753 3.83781C0.553553 3.90344 0.453443 3.99098 0.373173 4.09541C0.292903 4.19984 0.234054 4.3191 0.200005 4.44633C0.165957 4.57357 0.15738 4.70628 0.174767 4.83684C0.192154 4.96741 0.235163 5.09325 0.301323 5.20714C0.367483 5.32103 0.455491 5.42073 0.560293 5.50051C0.665095 5.5803 0.784626 5.63859 0.912021 5.67204L1.87802 5.93104C2.13376 5.9982 2.40568 5.96134 2.63432 5.82853C2.86295 5.69572 3.02968 5.47776 3.09803 5.22234C3.16638 4.96692 3.13079 4.69482 2.99904 4.46557C2.8673 4.23633 2.65012 4.06858 2.39502 3.99904L1.42902 3.74004ZM10.243 3.17104C10.3359 3.07813 10.4095 2.96785 10.4597 2.84648C10.5099 2.72511 10.5358 2.59504 10.5357 2.46369C10.5357 2.33234 10.5098 2.20229 10.4595 2.08096C10.4091 1.95962 10.3354 1.84939 10.2425 1.75654C10.1496 1.6637 10.0393 1.59006 9.91796 1.53984C9.79659 1.48962 9.66652 1.46379 9.53517 1.46384C9.40382 1.46389 9.27377 1.4898 9.15243 1.54011C9.0311 1.59042 8.92087 1.66413 8.82802 1.75704L8.12102 2.46404C8.02811 2.55695 7.95441 2.66725 7.90413 2.78865C7.85385 2.91004 7.82796 3.04015 7.82796 3.17154C7.82796 3.30294 7.85385 3.43305 7.90413 3.55444C7.95441 3.67583 8.02811 3.78613 8.12102 3.87904C8.21393 3.97195 8.32423 4.04565 8.44562 4.09594C8.56702 4.14622 8.69713 4.1721 8.82852 4.1721C8.95992 4.1721 9.09002 4.14622 9.21142 4.09594C9.33281 4.04565 9.44311 3.97195 9.53602 3.87904L10.243 3.17104ZM3.17202 10.243L3.87902 9.53604C4.06679 9.34854 4.17239 9.09411 4.17258 8.82875C4.17276 8.56339 4.06753 8.30882 3.88002 8.12104C3.69251 7.93327 3.43809 7.82767 3.17273 7.82749C2.90736 7.8273 2.65279 7.93253 2.46502 8.12004L1.75702 8.82704C1.56938 9.01468 1.46396 9.26918 1.46396 9.53454C1.46396 9.79991 1.56938 10.0544 1.75702 10.242C1.94466 10.4297 2.19916 10.5351 2.46452 10.5351C2.72988 10.5351 2.98438 10.4297 3.17202 10.242V10.243ZM6.37202 5.07204C6.19029 4.9993 5.99121 4.98149 5.79946 5.02083C5.60771 5.06016 5.43172 5.15491 5.2933 5.29332C5.15489 5.43174 5.06014 5.60773 5.02081 5.79948C4.98147 5.99123 4.99928 6.19032 5.07202 6.37204L9.07202 16.372C9.14369 16.551 9.26557 16.7055 9.42298 16.8168C9.58039 16.9281 9.76662 16.9915 9.95925 16.9995C10.1519 17.0074 10.3427 16.9595 10.5087 16.8614C10.6747 16.7634 10.8089 16.6195 10.895 16.447L12.275 13.688L15.293 16.708C15.4807 16.8956 15.7351 17.0008 16.0004 17.0007C16.2656 17.0007 16.52 16.8952 16.7075 16.7075C16.895 16.5199 17.0003 16.2655 17.0002 16.0002C17.0001 15.7349 16.8947 15.4805 16.707 15.293L13.688 12.273L16.448 10.894C16.6202 10.8077 16.7637 10.6735 16.8615 10.5075C16.9592 10.3416 17.0069 10.1509 16.9989 9.95848C16.9908 9.76605 16.9274 9.58004 16.8162 9.42279C16.705 9.26554 16.5508 9.14374 16.372 9.07204L6.37202 5.07204Z" fill="#F36400"/>
</svg>
