<svg width="1440" height="910" viewBox="0 0 1440 910" fill="none" xmlns="http://www.w3.org/2000/svg">
<path d="M-538.501 1275.2C-32.9628 1208.5 668.074 450.414 603.379 186.803C560.956 13.9934 63.938 17.874 -71.8503 -13.2924C-257.026 -55.7369 93.5986 103.157 165.01 286.851C249.856 505.137 121.067 1078.99 529.634 978.09C886.198 889.988 963.407 604.639 1219 611.248C1450.17 617.312 1630.26 856.82 1745.75 1056.92" stroke="white" stroke-opacity="0.1" stroke-width="2" stroke-miterlimit="10"/>
<path d="M-538.538 1257.71C-54.2113 1183.34 620.205 449.171 566.293 196.596C530.94 31.1226 60.2242 36.6404 -65.4179 8.62702C-239.599 -30.1491 96.0715 122.56 166.882 298.796C251.728 510.109 134.641 1059.28 529.067 961.992C880.928 875.435 951.951 583.447 1209.85 583.023C1441.44 583.387 1628.63 817.711 1749.22 1013.53" stroke="white" stroke-opacity="0.1" stroke-width="2" stroke-miterlimit="10"/>
<path d="M-538.579 1240.31C-75.4636 1158.27 572.332 448.081 529.238 206.48C500.956 48.3441 56.5066 55.499 -58.9894 30.6386C-222.211 -4.3478 98.5405 142.055 168.75 310.863C253.596 515.204 148.246 1039.64 528.496 945.985C875.655 860.945 940.492 561.559 1200.72 554.889C1432.7 548.826 1627 778.663 1752.71 970.239" stroke="white" stroke-opacity="0.1" stroke-width="2" stroke-miterlimit="10"/>
<path d="M-538.579 1222.78C-96.6751 1133.04 524.501 446.958 492.189 216.242C470.977 65.5332 52.7945 74.2343 -52.5554 52.527C-204.889 21.5425 101.05 161.549 170.624 322.899C255.717 520.296 161.856 1019.99 527.965 930.007C870.388 846.452 928.967 539.972 1191.53 526.784C1423.9 514.99 1625.34 739.583 1756.18 926.975" stroke="white" stroke-opacity="0.1" stroke-width="2" stroke-miterlimit="10"/>
<path d="M-538.612 1205.32C-117.707 1107.91 476.636 445.989 455.142 226.065C441.001 82.8152 49.1201 93.0625 -46.0837 74.6597C-187.493 47.374 103.598 181.014 172.5 334.936C257.734 525.36 175.469 1000.31 527.402 914C865.123 831.961 917.479 518.72 1182.45 498.65C1415.13 481.036 1623.78 700.535 1759.68 883.683" stroke="white" stroke-opacity="0.1" stroke-width="2" stroke-miterlimit="10"/>
<path d="M-538.647 1187.86C-138.883 1082.75 428.769 445.08 418.057 235.889C410.987 100.188 45.4437 111.891 -39.6493 96.6409C-170.029 73.2964 106.214 200.509 174.374 346.973C259.785 530.454 189.08 980.609 526.872 897.963C859.82 817.41 905.955 497.317 1173.29 470.486C1406.37 447.081 1622.26 661.487 1763.18 840.36" stroke="white" stroke-opacity="0.1" stroke-width="2" stroke-miterlimit="10"/>
<path d="M-538.647 1170.37C-160.059 1057.59 380.867 444.625 381.008 245.682C381.008 117.651 41.6256 130.778 -33.2153 118.651C-152.635 99.3391 108.83 219.972 176.247 358.978C261.871 535.548 202.655 960.993 526.235 881.925C854.482 802.918 894.324 475.974 1164.1 442.321C1397.42 413.216 1620.46 622.316 1766.61 797.036" stroke="white" stroke-opacity="0.1" stroke-width="2" stroke-miterlimit="10"/>
<path d="M-538.684 1152.9C-181.272 1032.45 332.893 444.168 343.958 255.502C351.028 135.202 38.1603 149.693 -26.7466 140.629C-135.243 125.47 111.552 239.433 178.297 371.042C264.203 540.82 216.265 940.769 525.916 865.945C849.249 787.817 882.975 454.718 1155.19 414.214C1388.97 379.409 1619.08 583.264 1770.32 753.77" stroke="white" stroke-opacity="0.1" stroke-width="2" stroke-miterlimit="10"/>
<path d="M-538.717 1135.44C-202.445 1007.28 284.78 443.894 306.875 265.324C320.804 152.876 34.6626 168.641 -20.3103 162.638C-117.777 151.966 114.276 258.896 180.031 383.016C266.185 545.761 229.525 921.001 525.211 849.906C843.807 773.233 871.346 433.495 1145.89 386.048C1380 345.604 1617.32 544.154 1773.64 710.445" stroke="white" stroke-opacity="0.1" stroke-width="2" stroke-miterlimit="10"/>
<path d="M-538.717 1117.98C-223.622 982.154 236.524 443.867 269.826 275.15C290.472 170.645 31.198 187.684 -13.8762 184.621C-100.277 178.77 116.927 278.363 181.905 395.055C268.447 550.857 243.277 901.358 524.823 833.841C838.68 758.623 859.998 412.276 1136.91 357.856C1371.37 311.803 1615.87 505.047 1777.32 667.094" stroke="white" stroke-opacity="0.1" stroke-width="2" stroke-miterlimit="10"/>
<path d="M-538.752 1100.51C-244.797 956.99 187.986 444.017 232.777 284.971C259.928 188.501 28.0165 206.783 -7.6186 206.601C-82.7069 206.237 119.65 297.796 183.602 407.09C270.569 555.98 256.675 881.62 523.939 817.832C833.024 744.039 848.12 391.143 1127.44 329.72C1362.25 278.18 1613.89 465.967 1780.43 623.8" stroke="white" stroke-opacity="0.1" stroke-width="2" stroke-miterlimit="10"/>
<path d="M-538.787 1083.02C-265.973 931.856 139.129 444.351 195.728 294.764C229.136 206.449 24.0573 221.002 -0.972183 228.611C-64.1821 222.548 122.761 317.229 185.653 419.096C273.114 561.073 270.498 861.944 523.55 801.794C827.934 729.487 836.807 370.042 1118.46 301.555C1353.66 244.407 1612.44 426.858 1784.11 580.476" stroke="white" stroke-opacity="0.1" stroke-width="2" stroke-miterlimit="10"/>
<path d="M-538.787 1065.56C-287.185 906.694 89.7771 444.806 158.643 304.588C198.026 224.428 20.4512 239.466 5.46186 250.592C-46.6475 247.803 125.907 336.634 187.526 431.133C275.589 566.168 284.074 842.269 522.985 785.848C822.631 714.996 825.318 349.033 1109.34 273.482C1344.93 210.816 1610.81 387.84 1787.61 537.245" stroke="white" stroke-opacity="0.1" stroke-width="2" stroke-miterlimit="10"/>
<path d="M-538.819 1048.09C-308.358 881.558 39.8982 445.228 121.597 314.408C166.566 242.373 16.8132 257.926 12.0053 272.6C-29.0388 273.115 129.127 356.034 189.509 443.136C278.279 571.258 297.793 822.62 522.563 769.747C817.472 700.38 813.973 327.93 1100.33 245.254C1336.3 177.13 1609.4 348.667 1791.18 493.857" stroke="white" stroke-opacity="0.1" stroke-width="2" stroke-miterlimit="10"/>
<path d="M-538.862 1030.63C-329.541 856.397 -10.5926 445.504 84.5405 324.234C134.741 260.233 13.1995 276.393 18.3256 294.583C-11.6178 298.433 132.231 375.379 191.269 455.266C280.887 576.536 311.29 803.069 521.884 753.833C812.091 685.952 802.405 307.044 1091.06 217.213C1327.46 143.602 1607.59 309.681 1794.57 450.658" stroke="white" stroke-opacity="0.1" stroke-width="2" stroke-miterlimit="10"/>
<path d="M-538.862 1013.17C-350.717 831.263 -61.6059 445.351 47.4561 334.055C102.57 277.877 9.55837 294.855 24.7952 316.562C5.91708 323.717 135.554 394.691 193.143 467.18C283.751 581.234 324.901 783.361 521.319 737.703C806.824 671.368 790.986 285.972 1081.94 188.956C1318.8 109.948 1605.96 270.51 1798.07 407.242" stroke="white" stroke-opacity="0.1" stroke-width="2" stroke-miterlimit="10"/>
<path d="M-538.896 995.704C-371.892 806.098 -113.396 444.592 10.408 343.877C70.1888 295.218 5.95359 313.317 31.2305 338.572C23.453 349.031 138.984 413.911 195.018 479.215C286.757 586.114 338.513 763.745 520.79 721.755C801.558 656.966 779.604 265.173 1072.78 160.881C1310.1 76.4769 1604.34 231.49 1801.53 364.008" stroke="white" stroke-opacity="0.1" stroke-width="2" stroke-miterlimit="10"/>
<path d="M-538.932 978.215C-393.103 780.969 -165.364 443.02 -26.641 353.674C37.7355 312.23 2.31252 331.785 37.6648 360.556C40.988 374.32 142.555 433.075 196.75 491.255C289.868 590.848 352.018 744.133 520.083 705.66C796.149 642.448 768.115 244.167 1063.52 132.659C1301.3 42.8889 1602.61 192.324 1804.89 320.628" stroke="white" stroke-opacity="0.1" stroke-width="2" stroke-miterlimit="10"/>
<path d="M-538.932 960.749C-414.279 755.803 -217.402 440.622 -63.6904 363.494C5.31737 328.871 3.79718 345.607 44.0988 382.533C60.8912 397.935 146.232 452.264 198.801 503.258C293.474 595.362 365.805 724.576 519.694 689.619C791.058 628.014 756.908 223.306 1054.5 104.491C1292.81 9.35483 1601.12 153.242 1808.53 277.301" stroke="white" stroke-opacity="0.1" stroke-width="2" stroke-miterlimit="10"/>
<path d="M-538.965 943.195C-435.453 730.579 -269.156 437.317 -100.596 373.226C-26.6743 345.091 -2.458 366.162 50.7472 404.453C77.4383 423.674 150.193 470.939 200.853 515.203C297.4 599.516 379.595 704.9 519.307 673.521C786.005 613.583 745.774 202.356 1045.56 76.2658C1284.4 -24.2064 1599.67 114.041 1812.18 233.917" stroke="white" stroke-opacity="0.1" stroke-width="2" stroke-miterlimit="10"/>
<path d="M-539 925.822C-456.629 705.505 -320.417 433.587 -137.822 383.139C-58.7386 361.28 -7.68991 386.171 57.0048 426.523C94.0541 449.655 153.87 489.766 202.55 527.299C301.254 603.426 393.135 685.617 518.565 657.664C780.738 599.757 734.532 182.043 1036.23 48.2819C1275.78 -57.2534 1597.87 75.1432 1815.5 190.774" stroke="white" stroke-opacity="0.1" stroke-width="2" stroke-miterlimit="10"/>
<path d="M-539 908.36C-477.805 680.373 -371.041 429.344 -174.871 392.963C78.499 345.819 273.856 695.046 518.034 641.566C775.47 585.145 723.078 160.821 1027.11 20.0572C1267.04 -91.0868 1596.28 35.9436 1819 147.391" stroke="white" stroke-opacity="0.1" stroke-width="2" stroke-miterlimit="10"/>
</svg>
