<svg width="40" height="40" viewBox="0 0 40 40" fill="none" xmlns="http://www.w3.org/2000/svg">
<path d="M30.4167 30.4167C28.1155 30.4167 26.25 32.2821 26.25 34.5833C26.25 36.8845 28.1155 38.75 30.4167 38.75C32.7179 38.75 34.5833 36.8845 34.5833 34.5833C34.5833 32.2821 32.7179 30.4167 30.4167 30.4167ZM30.4167 30.4167H14.3624C13.4018 30.4167 12.9207 30.4167 12.5252 30.2458C12.1764 30.095 11.8737 29.8523 11.6532 29.5428C11.406 29.1959 11.3066 28.7319 11.1099 27.8136L5.98226 3.88468C5.78091 2.94507 5.67889 2.47579 5.42887 2.12484C5.20836 1.81531 4.90577 1.57169 4.55691 1.42093C4.16137 1.25 3.68289 1.25 2.72195 1.25L1.25 1.25M7.5 7.5L34.3192 7.5C35.8229 7.5 36.574 7.5 37.0787 7.81325C37.5208 8.08763 37.8444 8.51796 37.9855 9.01876C38.1466 9.59048 37.9396 10.3124 37.5229 11.7572L34.6383 21.7572C34.3891 22.621 34.2644 23.0522 34.0116 23.3727C33.7885 23.6556 33.4942 23.8771 33.1605 24.0131C32.7836 24.1667 32.3356 24.1667 31.4419 24.1667L11.1051 24.1667M11.6667 38.75C9.36548 38.75 7.5 36.8845 7.5 34.5833C7.5 32.2821 9.36548 30.4167 11.6667 30.4167C13.9679 30.4167 15.8333 32.2821 15.8333 34.5833C15.8333 36.8845 13.9679 38.75 11.6667 38.75Z" stroke="#F36400" stroke-width="2" stroke-linecap="round" stroke-linejoin="round"/>
</svg>
