<svg width="1440" height="1634" viewBox="0 0 1440 1634" fill="none" xmlns="http://www.w3.org/2000/svg">
<path d="M-538.501 2289.76C-32.9628 2169.99 668.074 808.766 603.379 335.425C560.956 25.1269 63.938 32.095 -71.8503 -23.8675C-257.026 -100.081 93.5986 185.23 165.01 515.071C249.856 907.027 121.067 1937.43 529.634 1756.26C886.198 1598.07 963.407 1085.69 1219 1097.56C1450.17 1108.45 1630.26 1538.51 1745.75 1897.8" stroke="white" stroke-opacity="0.1" stroke-width="2" stroke-miterlimit="10"/>
<path d="M-538.538 2258.35C-54.2113 2124.81 620.205 806.534 566.293 353.009C530.94 55.8847 60.2242 65.7925 -65.4179 15.4916C-239.599 -54.135 96.0715 220.071 166.882 536.52C251.728 915.955 134.641 1902.05 529.067 1727.36C880.928 1571.94 951.951 1047.64 1209.85 1046.88C1441.44 1047.53 1628.63 1468.29 1749.22 1819.9" stroke="white" stroke-opacity="0.1" stroke-width="2" stroke-miterlimit="10"/>
<path d="M-538.579 2227.1C-75.4636 2079.79 572.332 804.576 529.238 370.757C500.956 86.8073 56.5066 99.6547 -58.9894 55.0153C-222.211 -7.80646 98.5405 255.076 168.75 558.188C253.596 925.102 148.246 1866.78 528.496 1698.62C875.655 1545.92 940.492 1008.34 1200.72 996.362C1432.7 985.474 1627 1398.17 1752.71 1742.17" stroke="white" stroke-opacity="0.1" stroke-width="2" stroke-miterlimit="10"/>
<path d="M-538.579 2195.64C-96.6751 2034.5 524.501 802.56 492.189 388.285C470.977 117.672 52.7945 133.296 -52.5554 94.318C-204.889 38.6821 101.05 290.078 170.624 579.798C255.717 934.246 161.856 1831.5 527.965 1669.92C870.388 1519.89 928.967 969.576 1191.53 945.896C1423.9 924.719 1625.34 1328 1756.18 1664.48" stroke="white" stroke-opacity="0.1" stroke-width="2" stroke-miterlimit="10"/>
<path d="M-538.612 2164.28C-117.707 1989.37 476.636 800.82 455.142 405.925C441.001 148.704 49.1201 167.104 -46.0837 134.06C-187.493 85.0656 103.598 325.029 172.5 601.413C257.734 943.339 175.469 1796.17 527.402 1641.18C865.123 1493.87 917.479 931.417 1182.45 895.379C1415.13 863.751 1623.78 1257.88 1759.68 1586.75" stroke="white" stroke-opacity="0.1" stroke-width="2" stroke-miterlimit="10"/>
<path d="M-538.647 2132.93C-138.883 1944.19 428.769 799.188 418.057 423.564C410.987 179.899 45.4437 200.912 -39.6493 173.529C-170.029 131.612 106.214 360.035 174.374 623.026C259.785 952.486 189.08 1760.79 526.872 1612.39C859.82 1467.74 905.955 892.985 1173.29 844.807C1406.37 802.781 1622.26 1187.77 1763.18 1508.95" stroke="white" stroke-opacity="0.1" stroke-width="2" stroke-miterlimit="10"/>
<path d="M-538.647 2101.52C-160.059 1899 380.867 798.371 381.008 441.147C381.008 211.255 41.6256 234.826 -33.2153 213.051C-152.635 178.374 108.83 394.984 176.247 644.583C261.871 961.632 202.655 1725.56 526.235 1583.59C854.482 1441.72 894.324 854.661 1164.1 794.234C1397.42 741.973 1620.46 1117.43 1766.61 1431.16" stroke="white" stroke-opacity="0.1" stroke-width="2" stroke-miterlimit="10"/>
<path d="M-538.684 2070.15C-181.272 1853.87 332.893 797.55 343.958 458.78C351.028 242.769 38.1603 268.791 -26.7466 252.514C-135.243 225.294 111.552 429.928 178.297 666.245C264.203 971.099 216.265 1689.25 525.916 1554.9C849.249 1414.61 882.975 816.494 1155.19 743.765C1388.97 681.27 1619.08 1047.31 1770.32 1353.47" stroke="white" stroke-opacity="0.1" stroke-width="2" stroke-miterlimit="10"/>
<path d="M-538.717 2038.8C-202.445 1808.68 284.78 797.059 306.875 476.417C320.804 274.506 34.6626 302.814 -20.3103 292.035C-117.777 272.873 114.276 464.876 180.031 687.747C266.185 979.971 229.525 1653.75 525.211 1526.1C843.807 1388.42 871.346 778.386 1145.89 693.19C1380 620.57 1617.32 977.086 1773.64 1275.68" stroke="white" stroke-opacity="0.1" stroke-width="2" stroke-miterlimit="10"/>
<path d="M-538.717 2007.44C-223.622 1763.56 236.524 797.01 269.826 494.061C290.472 306.412 31.198 337.006 -13.8762 331.508C-100.277 321.001 116.927 499.831 181.905 709.364C268.447 989.122 243.277 1618.48 524.823 1497.25C838.68 1362.19 859.998 740.285 1136.91 642.568C1371.37 559.877 1615.87 906.866 1777.32 1197.84" stroke="white" stroke-opacity="0.1" stroke-width="2" stroke-miterlimit="10"/>
<path d="M-538.752 1976.09C-244.797 1718.38 187.986 797.28 232.777 511.696C259.928 338.474 28.0165 371.3 -7.6186 370.974C-82.7069 370.32 119.65 534.724 183.602 730.974C270.569 998.32 256.675 1583.04 523.939 1468.5C833.024 1336 848.12 702.339 1127.44 592.047C1362.25 499.502 1613.89 836.693 1780.43 1120.1" stroke="white" stroke-opacity="0.1" stroke-width="2" stroke-miterlimit="10"/>
<path d="M-538.787 1944.68C-265.973 1673.25 139.129 797.879 195.728 529.28C229.136 370.701 24.0573 396.832 -0.972183 410.496C-64.1821 399.608 122.761 569.619 185.653 752.532C273.114 1007.47 270.498 1547.71 523.55 1439.71C827.934 1309.87 836.807 664.45 1118.46 541.474C1353.66 438.858 1612.44 766.468 1784.11 1042.31" stroke="white" stroke-opacity="0.1" stroke-width="2" stroke-miterlimit="10"/>
<path d="M-538.787 1913.32C-287.185 1628.06 89.7771 798.697 158.643 546.92C198.026 402.985 20.4512 429.987 5.46186 449.966C-46.6475 444.957 125.907 604.461 187.526 774.146C275.589 1016.61 284.074 1512.38 522.985 1411.07C822.631 1283.85 825.318 626.727 1109.34 491.066C1344.93 378.543 1610.81 696.408 1787.61 964.68" stroke="white" stroke-opacity="0.1" stroke-width="2" stroke-miterlimit="10"/>
<path d="M-538.819 1881.96C-308.358 1582.93 39.8982 799.454 121.597 564.553C166.566 435.208 16.8132 463.134 12.0053 489.483C-29.0388 490.408 129.127 639.297 189.509 795.698C278.279 1025.75 297.793 1477.1 522.563 1382.16C817.472 1257.61 813.973 588.832 1100.33 440.379C1336.3 318.056 1609.4 626.068 1791.18 886.773" stroke="white" stroke-opacity="0.1" stroke-width="2" stroke-miterlimit="10"/>
<path d="M-538.862 1850.61C-329.541 1537.75 -10.5926 799.949 84.5405 582.196C134.741 467.277 13.1995 496.292 18.3256 528.955C-11.6178 535.869 132.231 674.033 191.269 817.478C280.887 1035.23 311.29 1441.99 521.884 1353.59C812.091 1231.7 802.405 551.33 1091.06 390.029C1327.46 257.853 1607.59 556.066 1794.57 809.204" stroke="white" stroke-opacity="0.1" stroke-width="2" stroke-miterlimit="10"/>
<path d="M-538.862 1819.25C-350.717 1492.62 -61.6059 799.675 47.4561 599.832C102.57 498.958 9.55837 529.444 24.7952 568.422C5.91708 581.269 135.554 708.709 193.143 838.871C283.751 1043.67 324.901 1406.61 521.319 1324.62C806.824 1205.51 790.986 513.493 1081.94 339.291C1318.8 197.425 1605.96 485.73 1798.07 731.247" stroke="white" stroke-opacity="0.1" stroke-width="2" stroke-miterlimit="10"/>
<path d="M-538.896 1787.89C-371.892 1447.43 -113.396 798.313 10.408 617.469C70.1888 530.095 5.95359 562.595 31.2305 607.942C23.453 626.723 138.984 743.221 195.018 860.481C286.757 1052.43 338.513 1371.38 520.79 1295.99C801.558 1179.65 779.604 476.147 1072.78 288.879C1310.1 137.323 1604.34 415.666 1801.53 653.616" stroke="white" stroke-opacity="0.1" stroke-width="2" stroke-miterlimit="10"/>
<path d="M-538.932 1756.49C-393.103 1402.31 -165.364 795.489 -26.641 635.059C37.7355 560.642 2.31252 595.755 37.6648 647.417C40.988 672.132 142.555 777.633 196.75 882.1C289.868 1060.93 352.018 1336.17 520.083 1267.09C796.149 1153.58 768.115 438.428 1063.52 238.204C1301.3 77.0125 1602.61 345.339 1804.89 575.722" stroke="white" stroke-opacity="0.1" stroke-width="2" stroke-miterlimit="10"/>
<path d="M-538.932 1725.13C-414.279 1357.12 -217.402 791.183 -63.6904 652.692C5.31737 590.523 3.79718 620.573 44.0988 686.879C60.8912 714.534 146.232 812.087 198.801 903.652C293.474 1069.04 365.805 1301.05 519.694 1238.28C791.058 1127.67 756.908 400.969 1054.5 187.625C1292.81 16.7982 1601.12 275.162 1808.53 497.924" stroke="white" stroke-opacity="0.1" stroke-width="2" stroke-miterlimit="10"/>
<path d="M-538.965 1693.61C-435.453 1311.83 -269.156 785.249 -100.596 670.166C-26.6743 619.648 -2.458 657.482 50.7472 726.238C77.4383 760.752 150.193 845.621 200.853 925.101C297.4 1076.49 379.595 1265.72 519.307 1209.38C786.005 1101.75 745.774 363.352 1045.56 136.943C1284.4 -43.4651 1599.67 204.773 1812.18 420.022" stroke="white" stroke-opacity="0.1" stroke-width="2" stroke-miterlimit="10"/>
<path d="M-539 1662.41C-456.629 1266.81 -320.417 778.551 -137.822 687.965C-58.7386 648.715 -7.68991 693.409 57.0048 765.866C94.0541 807.403 153.87 879.425 202.55 946.819C301.254 1083.51 393.135 1231.1 518.565 1180.9C780.738 1076.93 734.532 326.876 1036.23 86.6948C1275.78 -102.805 1597.87 134.927 1815.5 342.555" stroke="white" stroke-opacity="0.1" stroke-width="2" stroke-miterlimit="10"/>
<path d="M-539 1631.06C-477.805 1221.68 -371.041 770.931 -174.871 705.605C78.499 620.954 273.856 1248.03 518.034 1152C775.47 1050.69 723.078 288.771 1027.11 36.0146C1267.04 -163.556 1596.28 64.5402 1819 264.655" stroke="white" stroke-opacity="0.1" stroke-width="2" stroke-miterlimit="10"/>
</svg>
