<svg width="40" height="40" viewBox="0 0 40 40" fill="none" xmlns="http://www.w3.org/2000/svg">
<path d="M20.0004 33.6C12.4804 33.6 6.40039 27.52 6.40039 20C6.40039 12.48 12.4804 6.40002 20.0004 6.40002C27.5204 6.40002 33.6004 12.48 33.6004 20C33.6004 27.52 27.5204 33.6 20.0004 33.6ZM20.0004 8.00002C13.3604 8.00002 8.00039 13.36 8.00039 20C8.00039 26.64 13.3604 32 20.0004 32C26.6404 32 32.0004 26.64 32.0004 20C32.0004 13.36 26.6404 8.00002 20.0004 8.00002Z" fill="#0FA958"/>
<path d="M18.4004 25.92L11.4404 18.96L12.5604 17.84L18.4004 23.68L27.4404 14.64L28.5604 15.76L18.4004 25.92Z" fill="#0FA958"/>
</svg>
