<svg width="102" height="44" viewBox="0 0 102 44" fill="none" xmlns="http://www.w3.org/2000/svg">
<path d="M81.839 31.4244H84.5522V25.7828L88.3384 31.4244H91.6583L87.2507 24.9226L91.0158 19.2849H87.9947L84.5522 24.481V13.0098L81.839 13.4668V31.4244ZM75.5816 18.9739C72.5694 18.9739 70.4777 21.5777 70.4777 25.3528C70.4777 29.1279 72.5694 31.7316 75.5816 31.7316C78.5937 31.7316 80.6855 29.1279 80.6855 25.3528C80.6855 21.5777 78.5937 18.9739 75.5816 18.9739ZM75.5816 28.7592C74.186 28.7592 73.2299 27.3728 73.2299 25.3528C73.2299 23.3327 74.186 21.9464 75.5816 21.9464C76.9771 21.9464 77.9333 23.3327 77.9333 25.3528C77.9333 27.3728 76.9771 28.7592 75.5816 28.7592ZM64.5549 18.9739C61.5428 18.9739 59.451 21.5777 59.451 25.3528C59.451 29.1279 61.5428 31.7316 64.5549 31.7316C67.5671 31.7316 69.6588 29.1279 69.6588 25.3528C69.6588 21.5777 67.5671 18.9739 64.5549 18.9739ZM64.5549 28.7592C63.1595 28.7592 62.2032 27.3728 62.2032 25.3528C62.2032 23.3327 63.1595 21.9464 64.5549 21.9464C65.9505 21.9464 66.9067 23.3327 66.9067 25.3528C66.9067 27.3728 65.9505 28.7592 64.5549 28.7592ZM54.1708 18.9739C52.9158 18.9739 51.8758 19.6076 51.2244 20.7673V13.0098L48.5081 13.4629V31.4205H50.9166L50.9644 29.5465C51.6069 30.9443 52.7574 31.7316 54.1708 31.7316C56.7467 31.7316 58.6323 29.0433 58.6323 25.3528C58.6323 21.6621 56.7556 18.9739 54.1708 18.9739ZM53.5284 28.7592C52.1328 28.7592 51.1766 27.3728 51.1766 25.3528C51.1766 23.3327 52.1328 21.9464 53.5284 21.9464C54.9238 21.9464 55.8801 23.3327 55.8801 25.3528C55.8801 27.3728 54.9238 28.7592 53.5284 28.7592ZM43.0695 28.9166C41.6292 28.9166 40.5953 28.0563 40.2427 26.574H46.9273C46.9931 26.1209 47.0379 25.5832 47.0379 25.2222C47.0379 21.3165 45.3375 18.9739 42.4808 18.9739C39.5972 18.9739 37.601 21.5777 37.601 25.3528C37.601 29.1778 39.6928 31.7316 42.7976 31.7316C44.4052 31.7316 45.9681 31.0404 46.9452 29.8921L45.9681 27.6801C45.0209 28.5211 44.0915 28.9166 43.0695 28.9166ZM42.4629 21.6852C43.718 21.6852 44.5188 22.6644 44.5188 24.1814V24.193H40.1859C40.4459 22.5839 41.2556 21.6852 42.4629 21.6852ZM33.3518 31.7354C34.7563 31.7354 36.1308 31.0442 37.099 29.846L36.0381 27.5533C35.2851 28.306 34.4305 28.713 33.6207 28.713C32.1146 28.713 31.1106 27.3612 31.1106 25.3566C31.1106 23.3519 32.1146 22.0001 33.6207 22.0001C34.3647 22.0001 35.1746 22.3457 35.832 22.9564L36.9107 20.6137C36.0381 19.5999 34.6875 18.9777 33.3487 18.9777C30.4024 18.9777 28.3196 21.6199 28.3196 25.3566C28.3225 29.0817 30.4053 31.7354 33.3518 31.7354ZM24.7247 19.2849L24.6769 21.1744C24.0344 19.765 22.884 18.9777 21.4706 18.9777C18.8857 18.9777 17.0091 21.666 17.0091 25.3566C17.0091 29.0472 18.8977 31.7354 21.4706 31.7354C22.884 31.7354 24.0374 30.9481 24.6769 29.5503L24.7247 31.4243H27.1332V19.2849H24.7247ZM22.113 28.7592C20.7175 28.7592 19.7612 27.3728 19.7612 25.3528C19.7612 23.3327 20.7175 21.9464 22.113 21.9464C23.5085 21.9464 24.4647 23.3327 24.4647 25.3528C24.4647 27.3728 23.5055 28.7592 22.113 28.7592ZM16.8059 19.3077H14.3645V18.2707C14.3645 16.7192 14.8366 16.124 16.0618 16.124C16.4413 16.124 16.7491 16.1355 16.9254 16.1586V13.4972C16.5907 13.3781 15.7749 13.2591 15.3028 13.2591C12.8076 13.2591 11.6571 14.7722 11.6571 18.0403V19.3038H10.1152V22.2379H11.6571V31.4203H14.3674V22.2417H16.3875L16.8059 19.3077Z" fill="#0866FF"/>
</svg>
