<svg width="95" height="29" viewBox="0 0 95 29" fill="none" xmlns="http://www.w3.org/2000/svg">
<path d="M11.8835 10.3477V13.4455H19.5568C19.3531 15.1591 18.742 16.4773 17.7913 17.3341C16.7048 18.3886 14.9392 19.575 11.8835 19.575C7.198 19.575 3.53109 15.8841 3.53109 11.3364C3.53109 6.78864 7.13009 3.09773 11.8835 3.09773C14.396 3.09773 16.2974 4.08636 17.6555 5.33864L19.8964 3.16364C17.995 1.38409 15.4146 0 11.8835 0C5.43245 0 0 5.075 0 11.3364C0 17.5977 5.43245 22.6727 11.8835 22.6727C15.3467 22.6727 17.995 21.5523 20.0322 19.5091C22.1372 17.4659 22.8163 14.5659 22.8163 12.2591C22.8163 11.5341 22.7484 10.875 22.6805 10.3477H11.8835Z" fill="#4285F4"/>
<path d="M32.3232 7.77734C28.181 7.77734 24.7178 10.8751 24.7178 15.0933C24.7178 19.3114 28.1131 22.4092 32.3232 22.4092C36.5334 22.4092 39.9286 19.3773 39.9286 15.1592C39.9286 10.8751 36.5334 7.77734 32.3232 7.77734ZM32.3232 19.5751C30.0144 19.5751 28.0451 17.7296 28.0451 15.1592C28.0451 12.5228 30.0144 10.7433 32.3232 10.7433C34.632 10.7433 36.6013 12.5228 36.6013 15.1592C36.6013 17.7296 34.632 19.5751 32.3232 19.5751Z" fill="#EA4335"/>
<path d="M69.4671 9.42507H69.3313C68.5844 8.56825 67.1583 7.77734 65.3249 7.77734C61.5222 7.77734 58.2627 10.941 58.2627 15.0933C58.2627 19.1796 61.5222 22.4092 65.3249 22.4092C67.1583 22.4092 68.5844 21.6183 69.3313 20.7614H69.4671V21.816C69.4671 24.5842 67.9053 26.1001 65.4607 26.1001C63.4235 26.1001 62.2012 24.716 61.658 23.4637L58.8059 24.6501C59.6208 26.5614 61.8617 29.0001 65.5286 29.0001C69.3992 29.0001 72.7266 26.7592 72.7266 21.3546V8.1728H69.6029V9.42507H69.4671ZM65.6644 19.5751C63.3556 19.5751 61.658 17.6637 61.658 15.1592C61.658 12.5887 63.4235 10.7433 65.6644 10.7433C67.9053 10.7433 69.6708 12.6546 69.6708 15.2251C69.7387 17.7296 67.9732 19.5751 65.6644 19.5751Z" fill="#4285F4"/>
<path d="M49.2314 7.77734C45.0892 7.77734 41.626 10.8751 41.626 15.0933C41.626 19.3114 45.0213 22.4092 49.2314 22.4092C53.4416 22.4092 56.8368 19.3773 56.8368 15.1592C56.8368 10.8751 53.4416 7.77734 49.2314 7.77734ZM49.2314 19.5751C46.9226 19.5751 44.9534 17.7296 44.9534 15.1592C44.9534 12.5228 46.9226 10.7433 49.2314 10.7433C51.5402 10.7433 53.5095 12.5228 53.5095 15.1592C53.5095 17.7296 51.5402 19.5751 49.2314 19.5751Z" fill="#FBBC05"/>
<path d="M75.2393 0.330078H78.4987V22.4755H75.2393V0.330078Z" fill="#34A853"/>
<path d="M88.5487 19.5751C86.8511 19.5751 85.6967 18.8501 84.8818 17.3342L94.9998 13.3137L94.6602 12.4569C94.0491 10.8092 92.0798 7.77734 88.2092 7.77734C84.3386 7.77734 81.0791 10.7433 81.0791 15.0933C81.0791 19.1796 84.2707 22.4092 88.5487 22.4092C92.0119 22.4092 93.9812 20.366 94.8639 19.1796L92.2835 17.5319C91.4008 18.7842 90.2464 19.5751 88.5487 19.5751ZM88.345 10.5455C89.7031 10.5455 90.8575 11.2046 91.197 12.1273L84.4065 14.8955C84.3386 11.8637 86.6474 10.5455 88.345 10.5455Z" fill="#EA4335"/>
</svg>
