<svg width="36" height="30" viewBox="0 0 36 30" fill="none" xmlns="http://www.w3.org/2000/svg">
<path d="M1.3335 28.333H4.66683M4.66683 28.333L14.6668 28.333M4.66683 28.333L4.66683 14.0866C4.66683 13.196 4.66683 12.7505 4.77512 12.3361C4.87108 11.9688 5.02982 11.6213 5.243 11.3072C5.48357 10.9529 5.8179 10.659 6.48812 10.0726L14.4908 3.07024C15.7332 1.98308 16.3545 1.43946 17.0542 1.23255C17.6712 1.05009 18.3288 1.05009 18.9458 1.23255C19.646 1.43962 20.2682 1.98375 21.5125 3.07255L29.5125 10.0726C30.1827 10.659 30.5172 10.9529 30.7578 11.3072C30.971 11.6213 31.1285 11.9688 31.2244 12.3361C31.3327 12.7505 31.3335 13.196 31.3335 14.0866V28.333M14.6668 28.333H21.3335M14.6668 28.333V21.6663C14.6668 19.8254 16.1592 18.333 18.0002 18.333C19.8411 18.333 21.3335 19.8254 21.3335 21.6663V28.333M21.3335 28.333H31.3335M31.3335 28.333H34.6668" stroke="#FF8C53" stroke-width="2" stroke-linecap="round" stroke-linejoin="round"/>
</svg>
