<svg width="43" height="43" viewBox="0 0 43 43" fill="none" xmlns="http://www.w3.org/2000/svg">
<g clip-path="url(#clip0_111_69)">
<path d="M40.9021 39.9832C40.9938 39.9843 41.0847 39.9633 41.1692 39.9216C41.2537 39.8799 41.33 39.8184 41.3933 39.7408C41.4566 39.6632 41.5056 39.5713 41.5372 39.4707C41.5688 39.3701 41.5824 39.263 41.5771 39.156C41.5771 38.5694 41.2742 38.2891 40.6527 38.2891H39.6484V41.3605H40.0262V40.0216H40.4903L40.5009 40.0379L41.2212 41.3605H41.6251L40.8502 39.9917L40.9021 39.9832ZM40.4652 39.6755H40.0272V38.6372H40.5824C40.8691 38.6372 41.1961 38.6919 41.1961 39.1306C41.1961 39.6351 40.8652 39.6755 40.463 39.6755" fill="#0A66C2"/>
<path d="M31.049 36.1344H25.693V26.3348C25.693 23.998 25.6573 20.9898 22.9073 20.9898C20.1177 20.9898 19.6909 23.5358 19.6909 26.1647V36.1338H14.3348V15.9817H19.4766V18.7357H19.5486C20.0632 17.7078 20.8067 16.8622 21.7001 16.289C22.5935 15.7157 23.6032 15.4363 24.6218 15.4805C30.0503 15.4805 31.0512 19.6522 31.0512 25.0794L31.049 36.1344ZM8.29143 13.2271C7.67669 13.2272 7.07571 13.0144 6.56451 12.6155C6.05331 12.2165 5.65487 11.6495 5.41952 10.986C5.18417 10.3225 5.12249 9.59236 5.24231 8.88792C5.36213 8.18348 5.65807 7.53637 6.09268 7.02842C6.52728 6.52048 7.08106 6.17451 7.68396 6.03426C8.28687 5.89402 8.91181 5.9658 9.4798 6.24053C10.0478 6.51526 10.5333 6.9806 10.8749 7.5777C11.2165 8.1748 11.3989 8.87685 11.399 9.59507C11.3991 10.0719 11.3188 10.5442 11.1627 10.9848C11.0065 11.4254 10.7777 11.8258 10.4891 12.163C10.2005 12.5003 9.85789 12.7678 9.48082 12.9504C9.10375 13.133 8.6996 13.227 8.29143 13.2271ZM10.9694 36.1344H5.60783V15.9817H10.9694V36.1344ZM33.7192 0.153268H2.91644C2.21731 0.14405 1.54361 0.459496 1.04344 1.03029C0.543273 1.60108 0.257556 2.38052 0.249023 3.19733V39.3343C0.257264 40.1515 0.542813 40.9315 1.04296 41.5029C1.54311 42.0742 2.21696 42.3903 2.91644 42.3816H33.7192C34.4201 42.3919 35.0958 42.0767 35.5979 41.5054C36.1 40.934 36.3875 40.1531 36.3972 39.3343V3.19472C36.3872 2.37629 36.0995 1.59597 35.5974 1.02519C35.0953 0.45441 34.4197 0.139865 33.7192 0.15066" fill="#0A66C2"/>
<path d="M40.5115 36.9219C39.8599 36.9292 39.2372 37.2377 38.7797 37.78C38.3223 38.3222 38.0672 39.054 38.0703 39.8154C38.0735 40.5768 38.3346 41.3057 38.7965 41.8427C39.2584 42.3798 39.8835 42.6813 40.5352 42.6813C41.1869 42.6813 41.812 42.3798 42.2739 41.8427C42.7359 41.3057 42.997 40.5768 43.0001 39.8154C43.0032 39.054 42.7482 38.3222 42.2907 37.78C41.8332 37.2377 41.2106 36.9292 40.5589 36.9219H40.5115ZM40.5115 42.3516C40.0841 42.3599 39.6642 42.22 39.3048 41.9495C38.9455 41.6789 38.6629 41.29 38.4927 40.8318C38.3226 40.3737 38.2726 39.8668 38.349 39.3754C38.4254 38.884 38.6248 38.4302 38.922 38.0712C39.2192 37.7122 39.6008 37.4642 40.0186 37.3587C40.4365 37.2531 40.8717 37.2946 41.2693 37.478C41.6669 37.6615 42.009 37.9785 42.2524 38.3891C42.4958 38.7997 42.6295 39.2854 42.6366 39.7847C42.6366 39.7991 42.6366 39.8128 42.6366 39.8271C42.6486 40.4822 42.4374 41.116 42.0494 41.5892C41.6615 42.0624 41.1285 42.3361 40.5678 42.3503H40.5121" fill="#0A66C2"/>
</g>
<defs>
<clipPath id="clip0_111_69">
<rect width="42.7501" height="42.5816" fill="white" transform="translate(0.25 0.150391)"/>
</clipPath>
</defs>
</svg>
