<svg width="100" height="100" viewBox="0 0 100 100" fill="none" xmlns="http://www.w3.org/2000/svg">
<circle cx="50" cy="50" r="49" stroke="#D9D9D9" stroke-width="2"/>
<path d="M32.5 63.3341V36.6675C32.5 34.4685 32.5 33.3679 32.9627 32.7173C33.3666 32.1494 33.9891 31.7766 34.6802 31.6875C35.4717 31.5854 36.4425 32.1031 38.3813 33.1372L63.3813 46.4705L63.3904 46.4745C65.5331 47.6173 66.6049 48.1889 66.9565 48.9508C67.2632 49.6155 67.2632 50.3827 66.9565 51.0473C66.6044 51.8103 65.53 52.3843 63.3813 53.5303L38.3813 66.8636C36.4411 67.8984 35.472 68.4141 34.6802 68.312C33.9891 68.2229 33.3666 67.8501 32.9627 67.2823C32.5 66.6317 32.5 65.533 32.5 63.3341Z" stroke="white" stroke-width="2" stroke-linecap="round" stroke-linejoin="round"/>
</svg>
