<svg width="50" height="50" viewBox="0 0 50 50" fill="none" xmlns="http://www.w3.org/2000/svg">
<path d="M35.4167 35.4167C33.1155 35.4167 31.25 37.2821 31.25 39.5833C31.25 41.8845 33.1155 43.75 35.4167 43.75C37.7179 43.75 39.5833 41.8845 39.5833 39.5833C39.5833 37.2821 37.7179 35.4167 35.4167 35.4167ZM35.4167 35.4167H19.3624C18.4018 35.4167 17.9207 35.4167 17.5252 35.2458C17.1764 35.095 16.8737 34.8523 16.6532 34.5428C16.406 34.1959 16.3066 33.7319 16.1099 32.8136L10.9823 8.88468C10.7809 7.94507 10.6789 7.47579 10.4289 7.12484C10.2084 6.81531 9.90577 6.57169 9.55691 6.42093C9.16137 6.25 8.68289 6.25 7.72195 6.25H6.25M12.5 12.5L39.3192 12.5C40.8229 12.5 41.574 12.5 42.0787 12.8132C42.5208 13.0876 42.8444 13.518 42.9855 14.0188C43.1466 14.5905 42.9396 15.3124 42.5229 16.7572L39.6383 26.7572C39.3891 27.621 39.2644 28.0522 39.0116 28.3727C38.7885 28.6556 38.4942 28.8771 38.1605 29.0131C37.7836 29.1667 37.3356 29.1667 36.4419 29.1667L16.1051 29.1667M16.6667 43.75C14.3655 43.75 12.5 41.8845 12.5 39.5833C12.5 37.2821 14.3655 35.4167 16.6667 35.4167C18.9679 35.4167 20.8333 37.2821 20.8333 39.5833C20.8333 41.8845 18.9679 43.75 16.6667 43.75Z" stroke="#F36400" stroke-width="2" stroke-linecap="round" stroke-linejoin="round"/>
</svg>
