<svg width="113" height="94" viewBox="0 0 113 94" fill="none" xmlns="http://www.w3.org/2000/svg">
<path d="M46.5 0.399987L29.1 67L24.3 44.5C31.3 44.5 37.1 46.7 41.7 51.1C46.3 55.5 48.6 61.4 48.6 68.8C48.6 76.2 46.3 82.2 41.7 86.8C37.1 91.2 31.4 93.4 24.6 93.4C17.4 93.4 11.5 91.1 6.9 86.5C2.3 81.9 8.49366e-07 76 8.49366e-07 68.8C8.49366e-07 66.4 0.100001 64.2 0.3 62.2C0.7 60 1.4 57.4 2.4 54.4C3.4 51.4 4.8 47.6 6.6 43L22.5 0.399987H46.5ZM110.1 0.399987L92.7 67L87.9 44.5C94.9 44.5 100.7 46.7 105.3 51.1C109.9 55.5 112.2 61.4 112.2 68.8C112.2 76.2 109.9 82.2 105.3 86.8C100.7 91.2 95 93.4 88.2 93.4C81 93.4 75.1 91.1 70.5 86.5C65.9 81.9 63.6 76 63.6 68.8C63.6 66.4 63.7 64.2 63.9 62.2C64.3 60 65 57.4 66 54.4C67 51.4 68.4 47.6 70.2 43L86.1 0.399987H110.1Z" fill="#998F8B" fill-opacity="0.3"/>
</svg>
