<svg width="746" height="486" viewBox="0 0 746 486" fill="none" xmlns="http://www.w3.org/2000/svg">
<path d="M0 419.371L176.829 0L750 19.5968V486L0 419.371Z" fill="#E1884A"/>
<path d="M193.58 174H197.48V195H193.58V174ZM182.72 195H178.82V174H182.72V195ZM193.88 186H182.39V182.67H193.88V186ZM212.617 195V191.76L212.407 191.07V185.4C212.407 184.3 212.077 183.45 211.417 182.85C210.757 182.23 209.757 181.92 208.417 181.92C207.517 181.92 206.627 182.06 205.747 182.34C204.887 182.62 204.157 183.01 203.557 183.51L202.087 180.78C202.947 180.12 203.967 179.63 205.147 179.31C206.347 178.97 207.587 178.8 208.867 178.8C211.187 178.8 212.977 179.36 214.237 180.48C215.517 181.58 216.157 183.29 216.157 185.61V195H212.617ZM207.577 195.21C206.377 195.21 205.327 195.01 204.427 194.61C203.527 194.19 202.827 193.62 202.327 192.9C201.847 192.16 201.607 191.33 201.607 190.41C201.607 189.51 201.817 188.7 202.237 187.98C202.677 187.26 203.387 186.69 204.367 186.27C205.347 185.85 206.647 185.64 208.267 185.64H212.917V188.13H208.537C207.257 188.13 206.397 188.34 205.957 188.76C205.517 189.16 205.297 189.66 205.297 190.26C205.297 190.94 205.567 191.48 206.107 191.88C206.647 192.28 207.397 192.48 208.357 192.48C209.277 192.48 210.097 192.27 210.817 191.85C211.557 191.43 212.087 190.81 212.407 189.99L213.037 192.24C212.677 193.18 212.027 193.91 211.087 194.43C210.167 194.95 208.997 195.21 207.577 195.21ZM228.529 195.21C226.749 195.21 225.189 194.86 223.849 194.16C222.529 193.44 221.499 192.46 220.759 191.22C220.039 189.98 219.679 188.57 219.679 186.99C219.679 185.39 220.029 183.98 220.729 182.76C221.449 181.52 222.429 180.55 223.669 179.85C224.929 179.15 226.359 178.8 227.959 178.8C229.519 178.8 230.909 179.14 232.129 179.82C233.349 180.5 234.309 181.46 235.009 182.7C235.709 183.94 236.059 185.4 236.059 187.08C236.059 187.24 236.049 187.42 236.029 187.62C236.029 187.82 236.019 188.01 235.999 188.19H222.649V185.7H234.019L232.549 186.48C232.569 185.56 232.379 184.75 231.979 184.05C231.579 183.35 231.029 182.8 230.329 182.4C229.649 182 228.859 181.8 227.959 181.8C227.039 181.8 226.229 182 225.529 182.4C224.849 182.8 224.309 183.36 223.909 184.08C223.529 184.78 223.339 185.61 223.339 186.57V187.17C223.339 188.13 223.559 188.98 223.999 189.72C224.439 190.46 225.059 191.03 225.859 191.43C226.659 191.83 227.579 192.03 228.619 192.03C229.519 192.03 230.329 191.89 231.049 191.61C231.769 191.33 232.409 190.89 232.969 190.29L234.979 192.6C234.259 193.44 233.349 194.09 232.249 194.55C231.169 194.99 229.929 195.21 228.529 195.21ZM239.661 195V172.74H243.411V195H239.661ZM253.283 195.21C251.943 195.21 250.653 195.04 249.413 194.7C248.193 194.34 247.223 193.91 246.503 193.41L247.943 190.56C248.663 191.02 249.523 191.4 250.523 191.7C251.523 192 252.523 192.15 253.523 192.15C254.703 192.15 255.553 191.99 256.073 191.67C256.613 191.35 256.883 190.92 256.883 190.38C256.883 189.94 256.703 189.61 256.343 189.39C255.983 189.15 255.513 188.97 254.933 188.85C254.353 188.73 253.703 188.62 252.983 188.52C252.283 188.42 251.573 188.29 250.853 188.13C250.153 187.95 249.513 187.7 248.933 187.38C248.353 187.04 247.883 186.59 247.523 186.03C247.163 185.47 246.983 184.73 246.983 183.81C246.983 182.79 247.273 181.91 247.853 181.17C248.433 180.41 249.243 179.83 250.283 179.43C251.343 179.01 252.593 178.8 254.033 178.8C255.113 178.8 256.203 178.92 257.303 179.16C258.403 179.4 259.313 179.74 260.033 180.18L258.593 183.03C257.833 182.57 257.063 182.26 256.283 182.1C255.523 181.92 254.763 181.83 254.003 181.83C252.863 181.83 252.013 182 251.453 182.34C250.913 182.68 250.643 183.11 250.643 183.63C250.643 184.11 250.823 184.47 251.183 184.71C251.543 184.95 252.013 185.14 252.593 185.28C253.173 185.42 253.813 185.54 254.513 185.64C255.233 185.72 255.943 185.85 256.643 186.03C257.343 186.21 257.983 186.46 258.563 186.78C259.163 187.08 259.643 187.51 260.003 188.07C260.363 188.63 260.543 189.36 260.543 190.26C260.543 191.26 260.243 192.13 259.643 192.87C259.063 193.61 258.233 194.19 257.153 194.61C256.073 195.01 254.783 195.21 253.283 195.21ZM270.973 195.21C269.333 195.21 267.873 194.86 266.593 194.16C265.313 193.44 264.303 192.46 263.563 191.22C262.823 189.98 262.453 188.57 262.453 186.99C262.453 185.39 262.823 183.98 263.563 182.76C264.303 181.52 265.313 180.55 266.593 179.85C267.873 179.15 269.333 178.8 270.973 178.8C272.633 178.8 274.103 179.15 275.383 179.85C276.683 180.55 277.693 181.51 278.413 182.73C279.153 183.95 279.523 185.37 279.523 186.99C279.523 188.57 279.153 189.98 278.413 191.22C277.693 192.46 276.683 193.44 275.383 194.16C274.103 194.86 272.633 195.21 270.973 195.21ZM270.973 192C271.893 192 272.713 191.8 273.433 191.4C274.153 191 274.713 190.42 275.113 189.66C275.533 188.9 275.743 188.01 275.743 186.99C275.743 185.95 275.533 185.06 275.113 184.32C274.713 183.56 274.153 182.98 273.433 182.58C272.713 182.18 271.903 181.98 271.003 181.98C270.083 181.98 269.263 182.18 268.543 182.58C267.843 182.98 267.283 183.56 266.863 184.32C266.443 185.06 266.233 185.95 266.233 186.99C266.233 188.01 266.443 188.9 266.863 189.66C267.283 190.42 267.843 191 268.543 191.4C269.263 191.8 270.073 192 270.973 192ZM283.618 195V178.08C283.618 176.4 284.108 175.06 285.088 174.06C286.088 173.04 287.508 172.53 289.348 172.53C290.008 172.53 290.628 172.6 291.208 172.74C291.808 172.88 292.308 173.1 292.708 173.4L291.688 176.22C291.408 176 291.088 175.84 290.728 175.74C290.368 175.62 289.998 175.56 289.618 175.56C288.838 175.56 288.248 175.78 287.848 176.22C287.448 176.64 287.248 177.28 287.248 178.14V179.94L287.368 181.62V195H283.618ZM280.978 182.1V179.1H291.658V182.1H280.978ZM300.213 195.21C298.453 195.21 297.093 194.76 296.133 193.86C295.173 192.94 294.693 191.59 294.693 189.81V175.44H298.443V189.72C298.443 190.48 298.633 191.07 299.013 191.49C299.413 191.91 299.963 192.12 300.663 192.12C301.503 192.12 302.203 191.9 302.763 191.46L303.813 194.13C303.373 194.49 302.833 194.76 302.193 194.94C301.553 195.12 300.893 195.21 300.213 195.21ZM292.053 182.1V179.1H302.733V182.1H292.053ZM306.358 182.31L306.118 174H309.358L309.088 182.31H306.358ZM318.439 195.21C317.099 195.21 315.809 195.04 314.569 194.7C313.349 194.34 312.379 193.91 311.659 193.41L313.099 190.56C313.819 191.02 314.679 191.4 315.679 191.7C316.679 192 317.679 192.15 318.679 192.15C319.859 192.15 320.709 191.99 321.229 191.67C321.769 191.35 322.039 190.92 322.039 190.38C322.039 189.94 321.859 189.61 321.499 189.39C321.139 189.15 320.669 188.97 320.089 188.85C319.509 188.73 318.859 188.62 318.139 188.52C317.439 188.42 316.729 188.29 316.009 188.13C315.309 187.95 314.669 187.7 314.089 187.38C313.509 187.04 313.039 186.59 312.679 186.03C312.319 185.47 312.139 184.73 312.139 183.81C312.139 182.79 312.429 181.91 313.009 181.17C313.589 180.41 314.399 179.83 315.439 179.43C316.499 179.01 317.749 178.8 319.189 178.8C320.269 178.8 321.359 178.92 322.459 179.16C323.559 179.4 324.469 179.74 325.189 180.18L323.749 183.03C322.989 182.57 322.219 182.26 321.439 182.1C320.679 181.92 319.919 181.83 319.159 181.83C318.019 181.83 317.169 182 316.609 182.34C316.069 182.68 315.799 183.11 315.799 183.63C315.799 184.11 315.979 184.47 316.339 184.71C316.699 184.95 317.169 185.14 317.749 185.28C318.329 185.42 318.969 185.54 319.669 185.64C320.389 185.72 321.099 185.85 321.799 186.03C322.499 186.21 323.139 186.46 323.719 186.78C324.319 187.08 324.799 187.51 325.159 188.07C325.519 188.63 325.699 189.36 325.699 190.26C325.699 191.26 325.399 192.13 324.799 192.87C324.219 193.61 323.389 194.19 322.309 194.61C321.229 195.01 319.939 195.21 318.439 195.21ZM346.61 195.3C343.73 195.3 341.47 194.49 339.83 192.87C338.21 191.25 337.4 188.91 337.4 185.85V174H341.3V185.7C341.3 187.86 341.76 189.43 342.68 190.41C343.62 191.39 344.94 191.88 346.64 191.88C348.34 191.88 349.65 191.39 350.57 190.41C351.49 189.43 351.95 187.86 351.95 185.7V174H355.79V185.85C355.79 188.91 354.97 191.25 353.33 192.87C351.71 194.49 349.47 195.3 346.61 195.3ZM358.409 195L367.259 182.82V185.76L358.829 174H363.239L369.509 182.7L367.709 182.73L373.919 174H378.149L369.779 185.55V182.73L378.689 195H374.189L367.589 185.76H369.359L362.849 195H358.409ZM390.05 195V174H399.23C401.51 174 403.51 174.44 405.23 175.32C406.95 176.2 408.29 177.42 409.25 178.98C410.21 180.54 410.69 182.38 410.69 184.5C410.69 186.6 410.21 188.44 409.25 190.02C408.29 191.58 406.95 192.8 405.23 193.68C403.51 194.56 401.51 195 399.23 195H390.05ZM393.95 191.7H399.05C400.63 191.7 401.99 191.4 403.13 190.8C404.29 190.2 405.18 189.36 405.8 188.28C406.44 187.2 406.76 185.94 406.76 184.5C406.76 183.04 406.44 181.78 405.8 180.72C405.18 179.64 404.29 178.8 403.13 178.2C401.99 177.6 400.63 177.3 399.05 177.3H393.95V191.7ZM422.006 195.21C420.226 195.21 418.666 194.86 417.326 194.16C416.006 193.44 414.976 192.46 414.236 191.22C413.516 189.98 413.156 188.57 413.156 186.99C413.156 185.39 413.506 183.98 414.206 182.76C414.926 181.52 415.906 180.55 417.146 179.85C418.406 179.15 419.836 178.8 421.436 178.8C422.996 178.8 424.386 179.14 425.606 179.82C426.826 180.5 427.786 181.46 428.486 182.7C429.186 183.94 429.536 185.4 429.536 187.08C429.536 187.24 429.526 187.42 429.506 187.62C429.506 187.82 429.496 188.01 429.476 188.19H416.126V185.7H427.496L426.026 186.48C426.046 185.56 425.856 184.75 425.456 184.05C425.056 183.35 424.506 182.8 423.806 182.4C423.126 182 422.336 181.8 421.436 181.8C420.516 181.8 419.706 182 419.006 182.4C418.326 182.8 417.786 183.36 417.386 184.08C417.006 184.78 416.816 185.61 416.816 186.57V187.17C416.816 188.13 417.036 188.98 417.476 189.72C417.916 190.46 418.536 191.03 419.336 191.43C420.136 191.83 421.056 192.03 422.096 192.03C422.996 192.03 423.806 191.89 424.526 191.61C425.246 191.33 425.886 190.89 426.446 190.29L428.456 192.6C427.736 193.44 426.826 194.09 425.726 194.55C424.646 194.99 423.406 195.21 422.006 195.21ZM438.088 195.21C436.748 195.21 435.458 195.04 434.218 194.7C432.998 194.34 432.028 193.91 431.308 193.41L432.748 190.56C433.468 191.02 434.328 191.4 435.328 191.7C436.328 192 437.328 192.15 438.328 192.15C439.508 192.15 440.358 191.99 440.878 191.67C441.418 191.35 441.688 190.92 441.688 190.38C441.688 189.94 441.508 189.61 441.148 189.39C440.788 189.15 440.318 188.97 439.738 188.85C439.158 188.73 438.508 188.62 437.788 188.52C437.088 188.42 436.378 188.29 435.658 188.13C434.958 187.95 434.318 187.7 433.738 187.38C433.158 187.04 432.688 186.59 432.328 186.03C431.968 185.47 431.788 184.73 431.788 183.81C431.788 182.79 432.078 181.91 432.658 181.17C433.238 180.41 434.048 179.83 435.088 179.43C436.148 179.01 437.398 178.8 438.838 178.8C439.918 178.8 441.008 178.92 442.108 179.16C443.208 179.4 444.118 179.74 444.838 180.18L443.398 183.03C442.638 182.57 441.868 182.26 441.088 182.1C440.328 181.92 439.568 181.83 438.808 181.83C437.668 181.83 436.818 182 436.258 182.34C435.718 182.68 435.448 183.11 435.448 183.63C435.448 184.11 435.628 184.47 435.988 184.71C436.348 184.95 436.818 185.14 437.398 185.28C437.978 185.42 438.618 185.54 439.318 185.64C440.038 185.72 440.748 185.85 441.448 186.03C442.148 186.21 442.788 186.46 443.368 186.78C443.968 187.08 444.448 187.51 444.808 188.07C445.168 188.63 445.348 189.36 445.348 190.26C445.348 191.26 445.048 192.13 444.448 192.87C443.868 193.61 443.038 194.19 441.958 194.61C440.878 195.01 439.588 195.21 438.088 195.21ZM448.577 195V178.98H452.327V195H448.577ZM450.467 176.34C449.767 176.34 449.187 176.12 448.727 175.68C448.287 175.24 448.067 174.71 448.067 174.09C448.067 173.45 448.287 172.92 448.727 172.5C449.187 172.06 449.767 171.84 450.467 171.84C451.167 171.84 451.737 172.05 452.177 172.47C452.637 172.87 452.867 173.38 452.867 174C452.867 174.66 452.647 175.22 452.207 175.68C451.767 176.12 451.187 176.34 450.467 176.34ZM464.509 201.03C463.029 201.03 461.579 200.83 460.159 200.43C458.759 200.05 457.609 199.49 456.709 198.75L458.389 195.93C459.089 196.51 459.969 196.97 461.029 197.31C462.109 197.67 463.199 197.85 464.299 197.85C466.059 197.85 467.349 197.44 468.169 196.62C468.989 195.82 469.399 194.61 469.399 192.99V190.14L469.699 186.51L469.579 182.88V178.98H473.149V192.57C473.149 195.47 472.409 197.6 470.929 198.96C469.449 200.34 467.309 201.03 464.509 201.03ZM464.029 194.28C462.509 194.28 461.129 193.96 459.889 193.32C458.669 192.66 457.699 191.75 456.979 190.59C456.279 189.43 455.929 188.07 455.929 186.51C455.929 184.97 456.279 183.62 456.979 182.46C457.699 181.3 458.669 180.4 459.889 179.76C461.129 179.12 462.509 178.8 464.029 178.8C465.389 178.8 466.609 179.07 467.689 179.61C468.769 180.15 469.629 180.99 470.269 182.13C470.929 183.27 471.259 184.73 471.259 186.51C471.259 188.29 470.929 189.76 470.269 190.92C469.629 192.06 468.769 192.91 467.689 193.47C466.609 194.01 465.389 194.28 464.029 194.28ZM464.599 191.1C465.539 191.1 466.379 190.91 467.119 190.53C467.859 190.13 468.429 189.59 468.829 188.91C469.249 188.21 469.459 187.41 469.459 186.51C469.459 185.61 469.249 184.82 468.829 184.14C468.429 183.44 467.859 182.91 467.119 182.55C466.379 182.17 465.539 181.98 464.599 181.98C463.659 181.98 462.809 182.17 462.049 182.55C461.309 182.91 460.729 183.44 460.309 184.14C459.909 184.82 459.709 185.61 459.709 186.51C459.709 187.41 459.909 188.21 460.309 188.91C460.729 189.59 461.309 190.13 462.049 190.53C462.809 190.91 463.659 191.1 464.599 191.1ZM487.169 178.8C488.449 178.8 489.589 179.05 490.589 179.55C491.609 180.05 492.409 180.82 492.989 181.86C493.569 182.88 493.859 184.2 493.859 185.82V195H490.109V186.3C490.109 184.88 489.769 183.82 489.089 183.12C488.429 182.42 487.499 182.07 486.299 182.07C485.419 182.07 484.639 182.25 483.959 182.61C483.279 182.97 482.749 183.51 482.369 184.23C482.009 184.93 481.829 185.82 481.829 186.9V195H478.079V178.98H481.649V183.3L481.019 181.98C481.579 180.96 482.389 180.18 483.449 179.64C484.529 179.08 485.769 178.8 487.169 178.8ZM514.257 195.21C512.577 195.21 511.077 194.86 509.757 194.16C508.457 193.44 507.437 192.46 506.697 191.22C505.957 189.98 505.587 188.57 505.587 186.99C505.587 185.39 505.957 183.98 506.697 182.76C507.437 181.52 508.457 180.55 509.757 179.85C511.077 179.15 512.577 178.8 514.257 178.8C515.817 178.8 517.187 179.12 518.367 179.76C519.567 180.38 520.477 181.3 521.097 182.52L518.217 184.2C517.737 183.44 517.147 182.88 516.447 182.52C515.767 182.16 515.027 181.98 514.227 181.98C513.307 181.98 512.477 182.18 511.737 182.58C510.997 182.98 510.417 183.56 509.997 184.32C509.577 185.06 509.367 185.95 509.367 186.99C509.367 188.03 509.577 188.93 509.997 189.69C510.417 190.43 510.997 191 511.737 191.4C512.477 191.8 513.307 192 514.227 192C515.027 192 515.767 191.82 516.447 191.46C517.147 191.1 517.737 190.54 518.217 189.78L521.097 191.46C520.477 192.66 519.567 193.59 518.367 194.25C517.187 194.89 515.817 195.21 514.257 195.21ZM531.305 195.21C529.665 195.21 528.205 194.86 526.925 194.16C525.645 193.44 524.635 192.46 523.895 191.22C523.155 189.98 522.785 188.57 522.785 186.99C522.785 185.39 523.155 183.98 523.895 182.76C524.635 181.52 525.645 180.55 526.925 179.85C528.205 179.15 529.665 178.8 531.305 178.8C532.965 178.8 534.435 179.15 535.715 179.85C537.015 180.55 538.025 181.51 538.745 182.73C539.485 183.95 539.855 185.37 539.855 186.99C539.855 188.57 539.485 189.98 538.745 191.22C538.025 192.46 537.015 193.44 535.715 194.16C534.435 194.86 532.965 195.21 531.305 195.21ZM531.305 192C532.225 192 533.045 191.8 533.765 191.4C534.485 191 535.045 190.42 535.445 189.66C535.865 188.9 536.075 188.01 536.075 186.99C536.075 185.95 535.865 185.06 535.445 184.32C535.045 183.56 534.485 182.98 533.765 182.58C533.045 182.18 532.235 181.98 531.335 181.98C530.415 181.98 529.595 182.18 528.875 182.58C528.175 182.98 527.615 183.56 527.195 184.32C526.775 185.06 526.565 185.95 526.565 186.99C526.565 188.01 526.775 188.9 527.195 189.66C527.615 190.42 528.175 191 528.875 191.4C529.595 191.8 530.405 192 531.305 192ZM550.22 195.21C548.86 195.21 547.66 194.96 546.62 194.46C545.58 193.94 544.77 193.16 544.19 192.12C543.61 191.06 543.32 189.73 543.32 188.13V178.98H547.07V187.62C547.07 189.06 547.39 190.14 548.03 190.86C548.69 191.56 549.62 191.91 550.82 191.91C551.7 191.91 552.46 191.73 553.1 191.37C553.76 191.01 554.27 190.47 554.63 189.75C555.01 189.03 555.2 188.14 555.2 187.08V178.98H558.95V195H555.38V190.68L556.01 192C555.47 193.04 554.68 193.84 553.64 194.4C552.6 194.94 551.46 195.21 550.22 195.21ZM563.86 195V178.98H567.43V183.39L567.01 182.1C567.49 181.02 568.24 180.2 569.26 179.64C570.3 179.08 571.59 178.8 573.13 178.8V182.37C572.97 182.33 572.82 182.31 572.68 182.31C572.54 182.29 572.4 182.28 572.26 182.28C570.84 182.28 569.71 182.7 568.87 183.54C568.03 184.36 567.61 185.59 567.61 187.23V195H563.86ZM581.408 195.21C580.068 195.21 578.778 195.04 577.538 194.7C576.318 194.34 575.348 193.91 574.628 193.41L576.068 190.56C576.788 191.02 577.648 191.4 578.648 191.7C579.648 192 580.648 192.15 581.648 192.15C582.828 192.15 583.678 191.99 584.198 191.67C584.738 191.35 585.008 190.92 585.008 190.38C585.008 189.94 584.828 189.61 584.468 189.39C584.108 189.15 583.638 188.97 583.058 188.85C582.478 188.73 581.828 188.62 581.108 188.52C580.408 188.42 579.698 188.29 578.978 188.13C578.278 187.95 577.638 187.7 577.058 187.38C576.478 187.04 576.008 186.59 575.648 186.03C575.288 185.47 575.108 184.73 575.108 183.81C575.108 182.79 575.398 181.91 575.978 181.17C576.558 180.41 577.368 179.83 578.408 179.43C579.468 179.01 580.718 178.8 582.158 178.8C583.238 178.8 584.328 178.92 585.428 179.16C586.528 179.4 587.438 179.74 588.158 180.18L586.718 183.03C585.958 182.57 585.188 182.26 584.408 182.1C583.648 181.92 582.888 181.83 582.128 181.83C580.988 181.83 580.138 182 579.578 182.34C579.038 182.68 578.768 183.11 578.768 183.63C578.768 184.11 578.948 184.47 579.308 184.71C579.668 184.95 580.138 185.14 580.718 185.28C581.298 185.42 581.938 185.54 582.638 185.64C583.358 185.72 584.068 185.85 584.768 186.03C585.468 186.21 586.108 186.46 586.688 186.78C587.288 187.08 587.768 187.51 588.128 188.07C588.488 188.63 588.668 189.36 588.668 190.26C588.668 191.26 588.368 192.13 587.768 192.87C587.188 193.61 586.358 194.19 585.278 194.61C584.198 195.01 582.908 195.21 581.408 195.21ZM599.428 195.21C597.648 195.21 596.088 194.86 594.748 194.16C593.428 193.44 592.398 192.46 591.658 191.22C590.938 189.98 590.578 188.57 590.578 186.99C590.578 185.39 590.928 183.98 591.628 182.76C592.348 181.52 593.328 180.55 594.568 179.85C595.828 179.15 597.258 178.8 598.858 178.8C600.418 178.8 601.808 179.14 603.028 179.82C604.248 180.5 605.208 181.46 605.908 182.7C606.608 183.94 606.958 185.4 606.958 187.08C606.958 187.24 606.948 187.42 606.928 187.62C606.928 187.82 606.918 188.01 606.898 188.19H593.548V185.7H604.918L603.448 186.48C603.468 185.56 603.278 184.75 602.878 184.05C602.478 183.35 601.928 182.8 601.228 182.4C600.548 182 599.758 181.8 598.858 181.8C597.938 181.8 597.128 182 596.428 182.4C595.748 182.8 595.208 183.36 594.808 184.08C594.428 184.78 594.238 185.61 594.238 186.57V187.17C594.238 188.13 594.458 188.98 594.898 189.72C595.338 190.46 595.958 191.03 596.758 191.43C597.558 191.83 598.478 192.03 599.518 192.03C600.418 192.03 601.228 191.89 601.948 191.61C602.668 191.33 603.308 190.89 603.868 190.29L605.878 192.6C605.158 193.44 604.248 194.09 603.148 194.55C602.068 194.99 600.828 195.21 599.428 195.21ZM185.72 238.03C184.24 238.03 182.79 237.83 181.37 237.43C179.97 237.05 178.82 236.49 177.92 235.75L179.6 232.93C180.3 233.51 181.18 233.97 182.24 234.31C183.32 234.67 184.41 234.85 185.51 234.85C187.27 234.85 188.56 234.44 189.38 233.62C190.2 232.82 190.61 231.61 190.61 229.99V227.14L190.91 223.51L190.79 219.88V215.98H194.36V229.57C194.36 232.47 193.62 234.6 192.14 235.96C190.66 237.34 188.52 238.03 185.72 238.03ZM185.24 231.28C183.72 231.28 182.34 230.96 181.1 230.32C179.88 229.66 178.91 228.75 178.19 227.59C177.49 226.43 177.14 225.07 177.14 223.51C177.14 221.97 177.49 220.62 178.19 219.46C178.91 218.3 179.88 217.4 181.1 216.76C182.34 216.12 183.72 215.8 185.24 215.8C186.6 215.8 187.82 216.07 188.9 216.61C189.98 217.15 190.84 217.99 191.48 219.13C192.14 220.27 192.47 221.73 192.47 223.51C192.47 225.29 192.14 226.76 191.48 227.92C190.84 229.06 189.98 229.91 188.9 230.47C187.82 231.01 186.6 231.28 185.24 231.28ZM185.81 228.1C186.75 228.1 187.59 227.91 188.33 227.53C189.07 227.13 189.64 226.59 190.04 225.91C190.46 225.21 190.67 224.41 190.67 223.51C190.67 222.61 190.46 221.82 190.04 221.14C189.64 220.44 189.07 219.91 188.33 219.55C187.59 219.17 186.75 218.98 185.81 218.98C184.87 218.98 184.02 219.17 183.26 219.55C182.52 219.91 181.94 220.44 181.52 221.14C181.12 221.82 180.92 222.61 180.92 223.51C180.92 224.41 181.12 225.21 181.52 225.91C181.94 226.59 182.52 227.13 183.26 227.53C184.02 227.91 184.87 228.1 185.81 228.1ZM209.16 232V228.76L208.95 228.07V222.4C208.95 221.3 208.62 220.45 207.96 219.85C207.3 219.23 206.3 218.92 204.96 218.92C204.06 218.92 203.17 219.06 202.29 219.34C201.43 219.62 200.7 220.01 200.1 220.51L198.63 217.78C199.49 217.12 200.51 216.63 201.69 216.31C202.89 215.97 204.13 215.8 205.41 215.8C207.73 215.8 209.52 216.36 210.78 217.48C212.06 218.58 212.7 220.29 212.7 222.61V232H209.16ZM204.12 232.21C202.92 232.21 201.87 232.01 200.97 231.61C200.07 231.19 199.37 230.62 198.87 229.9C198.39 229.16 198.15 228.33 198.15 227.41C198.15 226.51 198.36 225.7 198.78 224.98C199.22 224.26 199.93 223.69 200.91 223.27C201.89 222.85 203.19 222.64 204.81 222.64H209.46V225.13H205.08C203.8 225.13 202.94 225.34 202.5 225.76C202.06 226.16 201.84 226.66 201.84 227.26C201.84 227.94 202.11 228.48 202.65 228.88C203.19 229.28 203.94 229.48 204.9 229.48C205.82 229.48 206.64 229.27 207.36 228.85C208.1 228.43 208.63 227.81 208.95 226.99L209.58 229.24C209.22 230.18 208.57 230.91 207.63 231.43C206.71 231.95 205.54 232.21 204.12 232.21ZM221.48 232L214.61 215.98H218.51L224.42 230.11H222.5L228.62 215.98H232.22L225.35 232H221.48ZM241.654 232.21C239.874 232.21 238.314 231.86 236.974 231.16C235.654 230.44 234.624 229.46 233.884 228.22C233.164 226.98 232.804 225.57 232.804 223.99C232.804 222.39 233.154 220.98 233.854 219.76C234.574 218.52 235.554 217.55 236.794 216.85C238.054 216.15 239.484 215.8 241.084 215.8C242.644 215.8 244.034 216.14 245.254 216.82C246.474 217.5 247.434 218.46 248.134 219.7C248.834 220.94 249.184 222.4 249.184 224.08C249.184 224.24 249.174 224.42 249.154 224.62C249.154 224.82 249.144 225.01 249.124 225.19H235.774V222.7H247.144L245.674 223.48C245.694 222.56 245.504 221.75 245.104 221.05C244.704 220.35 244.154 219.8 243.454 219.4C242.774 219 241.984 218.8 241.084 218.8C240.164 218.8 239.354 219 238.654 219.4C237.974 219.8 237.434 220.36 237.034 221.08C236.654 221.78 236.464 222.61 236.464 223.57V224.17C236.464 225.13 236.684 225.98 237.124 226.72C237.564 227.46 238.184 228.03 238.984 228.43C239.784 228.83 240.704 229.03 241.744 229.03C242.644 229.03 243.454 228.89 244.174 228.61C244.894 228.33 245.534 227.89 246.094 227.29L248.104 229.6C247.384 230.44 246.474 231.09 245.374 231.55C244.294 231.99 243.054 232.21 241.654 232.21ZM281.297 215.8C282.577 215.8 283.707 216.05 284.687 216.55C285.687 217.05 286.467 217.82 287.027 218.86C287.587 219.88 287.867 221.2 287.867 222.82V232H284.117V223.3C284.117 221.88 283.807 220.82 283.187 220.12C282.567 219.42 281.677 219.07 280.517 219.07C279.697 219.07 278.967 219.25 278.327 219.61C277.707 219.97 277.217 220.5 276.857 221.2C276.517 221.9 276.347 222.79 276.347 223.87V232H272.597V223.3C272.597 221.88 272.287 220.82 271.667 220.12C271.047 219.42 270.157 219.07 268.997 219.07C268.177 219.07 267.447 219.25 266.807 219.61C266.187 219.97 265.697 220.5 265.337 221.2C264.997 221.9 264.827 222.79 264.827 223.87V232H261.077V215.98H264.647V220.24L264.017 218.98C264.557 217.94 265.337 217.15 266.357 216.61C267.397 216.07 268.577 215.8 269.897 215.8C271.397 215.8 272.697 216.17 273.797 216.91C274.917 217.65 275.657 218.77 276.017 220.27L274.547 219.76C275.067 218.56 275.927 217.6 277.127 216.88C278.327 216.16 279.717 215.8 281.297 215.8ZM300.219 232.21C298.439 232.21 296.879 231.86 295.539 231.16C294.219 230.44 293.189 229.46 292.449 228.22C291.729 226.98 291.369 225.57 291.369 223.99C291.369 222.39 291.719 220.98 292.419 219.76C293.139 218.52 294.119 217.55 295.359 216.85C296.619 216.15 298.049 215.8 299.649 215.8C301.209 215.8 302.599 216.14 303.819 216.82C305.039 217.5 305.999 218.46 306.699 219.7C307.399 220.94 307.749 222.4 307.749 224.08C307.749 224.24 307.739 224.42 307.719 224.62C307.719 224.82 307.709 225.01 307.689 225.19H294.339V222.7H305.709L304.239 223.48C304.259 222.56 304.069 221.75 303.669 221.05C303.269 220.35 302.719 219.8 302.019 219.4C301.339 219 300.549 218.8 299.649 218.8C298.729 218.8 297.919 219 297.219 219.4C296.539 219.8 295.999 220.36 295.599 221.08C295.219 221.78 295.029 222.61 295.029 223.57V224.17C295.029 225.13 295.249 225.98 295.689 226.72C296.129 227.46 296.749 228.03 297.549 228.43C298.349 228.83 299.269 229.03 300.309 229.03C301.209 229.03 302.019 228.89 302.739 228.61C303.459 228.33 304.099 227.89 304.659 227.29L306.669 229.6C305.949 230.44 305.039 231.09 303.939 231.55C302.859 231.99 301.619 232.21 300.219 232.21ZM325.672 232.21C323.912 232.21 322.552 231.76 321.592 230.86C320.632 229.94 320.152 228.59 320.152 226.81V212.44H323.902V226.72C323.902 227.48 324.092 228.07 324.472 228.49C324.872 228.91 325.422 229.12 326.122 229.12C326.962 229.12 327.662 228.9 328.222 228.46L329.272 231.13C328.832 231.49 328.292 231.76 327.652 231.94C327.012 232.12 326.352 232.21 325.672 232.21ZM317.512 219.1V216.1H328.192V219.1H317.512ZM341.446 215.8C342.726 215.8 343.866 216.05 344.866 216.55C345.886 217.05 346.686 217.82 347.266 218.86C347.846 219.88 348.136 221.2 348.136 222.82V232H344.386V223.3C344.386 221.88 344.046 220.82 343.366 220.12C342.706 219.42 341.776 219.07 340.576 219.07C339.696 219.07 338.916 219.25 338.236 219.61C337.556 219.97 337.026 220.51 336.646 221.23C336.286 221.93 336.106 222.82 336.106 223.9V232H332.356V209.74H336.106V220.3L335.296 218.98C335.856 217.96 336.666 217.18 337.726 216.64C338.806 216.08 340.046 215.8 341.446 215.8ZM360.453 232.21C358.673 232.21 357.113 231.86 355.773 231.16C354.453 230.44 353.423 229.46 352.683 228.22C351.963 226.98 351.603 225.57 351.603 223.99C351.603 222.39 351.953 220.98 352.653 219.76C353.373 218.52 354.353 217.55 355.593 216.85C356.853 216.15 358.283 215.8 359.883 215.8C361.443 215.8 362.833 216.14 364.053 216.82C365.273 217.5 366.233 218.46 366.933 219.7C367.633 220.94 367.983 222.4 367.983 224.08C367.983 224.24 367.973 224.42 367.953 224.62C367.953 224.82 367.943 225.01 367.923 225.19H354.573V222.7H365.943L364.473 223.48C364.493 222.56 364.303 221.75 363.903 221.05C363.503 220.35 362.953 219.8 362.253 219.4C361.573 219 360.783 218.8 359.883 218.8C358.963 218.8 358.153 219 357.453 219.4C356.773 219.8 356.233 220.36 355.833 221.08C355.453 221.78 355.263 222.61 355.263 223.57V224.17C355.263 225.13 355.483 225.98 355.923 226.72C356.363 227.46 356.983 228.03 357.783 228.43C358.583 228.83 359.503 229.03 360.543 229.03C361.443 229.03 362.253 228.89 362.973 228.61C363.693 228.33 364.333 227.89 364.893 227.29L366.903 229.6C366.183 230.44 365.273 231.09 364.173 231.55C363.093 231.99 361.853 232.21 360.453 232.21ZM384.826 232.21C383.486 232.21 382.196 232.04 380.956 231.7C379.736 231.34 378.766 230.91 378.046 230.41L379.486 227.56C380.206 228.02 381.066 228.4 382.066 228.7C383.066 229 384.066 229.15 385.066 229.15C386.246 229.15 387.096 228.99 387.616 228.67C388.156 228.35 388.426 227.92 388.426 227.38C388.426 226.94 388.246 226.61 387.886 226.39C387.526 226.15 387.056 225.97 386.476 225.85C385.896 225.73 385.246 225.62 384.526 225.52C383.826 225.42 383.116 225.29 382.396 225.13C381.696 224.95 381.056 224.7 380.476 224.38C379.896 224.04 379.426 223.59 379.066 223.03C378.706 222.47 378.526 221.73 378.526 220.81C378.526 219.79 378.816 218.91 379.396 218.17C379.976 217.41 380.786 216.83 381.826 216.43C382.886 216.01 384.136 215.8 385.576 215.8C386.656 215.8 387.746 215.92 388.846 216.16C389.946 216.4 390.856 216.74 391.576 217.18L390.136 220.03C389.376 219.57 388.606 219.26 387.826 219.1C387.066 218.92 386.306 218.83 385.546 218.83C384.406 218.83 383.556 219 382.996 219.34C382.456 219.68 382.186 220.11 382.186 220.63C382.186 221.11 382.366 221.47 382.726 221.71C383.086 221.95 383.556 222.14 384.136 222.28C384.716 222.42 385.356 222.54 386.056 222.64C386.776 222.72 387.486 222.85 388.186 223.03C388.886 223.21 389.526 223.46 390.106 223.78C390.706 224.08 391.186 224.51 391.546 225.07C391.906 225.63 392.086 226.36 392.086 227.26C392.086 228.26 391.786 229.13 391.186 229.87C390.606 230.61 389.776 231.19 388.696 231.61C387.616 232.01 386.326 232.21 384.826 232.21ZM398.375 228.43L398.465 223.72L406.835 215.98H411.335L404.225 223.12L402.245 224.77L398.375 228.43ZM395.315 232V209.74H399.065V232H395.315ZM407.405 232L401.555 224.77L403.925 221.77L411.965 232H407.405ZM414.388 232V215.98H418.138V232H414.388ZM416.278 213.34C415.578 213.34 414.998 213.12 414.538 212.68C414.098 212.24 413.878 211.71 413.878 211.09C413.878 210.45 414.098 209.92 414.538 209.5C414.998 209.06 415.578 208.84 416.278 208.84C416.978 208.84 417.548 209.05 417.988 209.47C418.448 209.87 418.678 210.38 418.678 211C418.678 211.66 418.458 212.22 418.018 212.68C417.578 213.12 416.998 213.34 416.278 213.34ZM423.06 232V209.74H426.81V232H423.06ZM431.731 232V209.74H435.481V232H431.731ZM445.353 232.21C444.013 232.21 442.723 232.04 441.483 231.7C440.263 231.34 439.293 230.91 438.573 230.41L440.013 227.56C440.733 228.02 441.593 228.4 442.593 228.7C443.593 229 444.593 229.15 445.593 229.15C446.773 229.15 447.623 228.99 448.143 228.67C448.683 228.35 448.953 227.92 448.953 227.38C448.953 226.94 448.773 226.61 448.413 226.39C448.053 226.15 447.583 225.97 447.003 225.85C446.423 225.73 445.773 225.62 445.053 225.52C444.353 225.42 443.643 225.29 442.923 225.13C442.223 224.95 441.583 224.7 441.003 224.38C440.423 224.04 439.953 223.59 439.593 223.03C439.233 222.47 439.053 221.73 439.053 220.81C439.053 219.79 439.343 218.91 439.923 218.17C440.503 217.41 441.313 216.83 442.353 216.43C443.413 216.01 444.663 215.8 446.103 215.8C447.183 215.8 448.273 215.92 449.373 216.16C450.473 216.4 451.383 216.74 452.103 217.18L450.663 220.03C449.903 219.57 449.133 219.26 448.353 219.1C447.593 218.92 446.833 218.83 446.073 218.83C444.933 218.83 444.083 219 443.523 219.34C442.983 219.68 442.713 220.11 442.713 220.63C442.713 221.11 442.893 221.47 443.253 221.71C443.613 221.95 444.083 222.14 444.663 222.28C445.243 222.42 445.883 222.54 446.583 222.64C447.303 222.72 448.013 222.85 448.713 223.03C449.413 223.21 450.053 223.46 450.633 223.78C451.233 224.08 451.713 224.51 452.073 225.07C452.433 225.63 452.613 226.36 452.613 227.26C452.613 228.26 452.313 229.13 451.713 229.87C451.133 230.61 450.303 231.19 449.223 231.61C448.143 232.01 446.853 232.21 445.353 232.21ZM464.494 232V211H468.394V232H464.494ZM491.095 215.8C492.375 215.8 493.515 216.05 494.515 216.55C495.535 217.05 496.335 217.82 496.915 218.86C497.495 219.88 497.785 221.2 497.785 222.82V232H494.035V223.3C494.035 221.88 493.695 220.82 493.015 220.12C492.355 219.42 491.425 219.07 490.225 219.07C489.345 219.07 488.565 219.25 487.885 219.61C487.205 219.97 486.675 220.51 486.295 221.23C485.935 221.93 485.755 222.82 485.755 223.9V232H482.005V215.98H485.575V220.3L484.945 218.98C485.505 217.96 486.315 217.18 487.375 216.64C488.455 216.08 489.695 215.8 491.095 215.8ZM510.101 232.21C508.321 232.21 506.761 231.86 505.421 231.16C504.101 230.44 503.071 229.46 502.331 228.22C501.611 226.98 501.251 225.57 501.251 223.99C501.251 222.39 501.601 220.98 502.301 219.76C503.021 218.52 504.001 217.55 505.241 216.85C506.501 216.15 507.931 215.8 509.531 215.8C511.091 215.8 512.481 216.14 513.701 216.82C514.921 217.5 515.881 218.46 516.581 219.7C517.281 220.94 517.631 222.4 517.631 224.08C517.631 224.24 517.621 224.42 517.601 224.62C517.601 224.82 517.591 225.01 517.571 225.19H504.221V222.7H515.591L514.121 223.48C514.141 222.56 513.951 221.75 513.551 221.05C513.151 220.35 512.601 219.8 511.901 219.4C511.221 219 510.431 218.8 509.531 218.8C508.611 218.8 507.801 219 507.101 219.4C506.421 219.8 505.881 220.36 505.481 221.08C505.101 221.78 504.911 222.61 504.911 223.57V224.17C504.911 225.13 505.131 225.98 505.571 226.72C506.011 227.46 506.631 228.03 507.431 228.43C508.231 228.83 509.151 229.03 510.191 229.03C511.091 229.03 511.901 228.89 512.621 228.61C513.341 228.33 513.981 227.89 514.541 227.29L516.551 229.6C515.831 230.44 514.921 231.09 513.821 231.55C512.741 231.99 511.501 232.21 510.101 232.21ZM528.763 232.21C526.983 232.21 525.423 231.86 524.083 231.16C522.763 230.44 521.733 229.46 520.993 228.22C520.273 226.98 519.913 225.57 519.913 223.99C519.913 222.39 520.263 220.98 520.963 219.76C521.683 218.52 522.663 217.55 523.903 216.85C525.163 216.15 526.593 215.8 528.193 215.8C529.753 215.8 531.143 216.14 532.363 216.82C533.583 217.5 534.543 218.46 535.243 219.7C535.943 220.94 536.293 222.4 536.293 224.08C536.293 224.24 536.283 224.42 536.263 224.62C536.263 224.82 536.253 225.01 536.233 225.19H522.883V222.7H534.253L532.783 223.48C532.803 222.56 532.613 221.75 532.213 221.05C531.813 220.35 531.263 219.8 530.563 219.4C529.883 219 529.093 218.8 528.193 218.8C527.273 218.8 526.463 219 525.763 219.4C525.083 219.8 524.543 220.36 524.143 221.08C523.763 221.78 523.573 222.61 523.573 223.57V224.17C523.573 225.13 523.793 225.98 524.233 226.72C524.673 227.46 525.293 228.03 526.093 228.43C526.893 228.83 527.813 229.03 528.853 229.03C529.753 229.03 530.563 228.89 531.283 228.61C532.003 228.33 532.643 227.89 533.203 227.29L535.213 229.6C534.493 230.44 533.583 231.09 532.483 231.55C531.403 231.99 530.163 232.21 528.763 232.21ZM546.676 232.21C545.136 232.21 543.746 231.87 542.506 231.19C541.286 230.49 540.326 229.53 539.626 228.31C538.926 227.09 538.576 225.65 538.576 223.99C538.576 222.33 538.926 220.89 539.626 219.67C540.326 218.45 541.286 217.5 542.506 216.82C543.746 216.14 545.136 215.8 546.676 215.8C548.016 215.8 549.216 216.1 550.276 216.7C551.336 217.28 552.176 218.17 552.796 219.37C553.416 220.57 553.726 222.11 553.726 223.99C553.726 225.85 553.426 227.39 552.826 228.61C552.226 229.81 551.396 230.71 550.336 231.31C549.276 231.91 548.056 232.21 546.676 232.21ZM547.126 229C548.026 229 548.826 228.8 549.526 228.4C550.246 228 550.816 227.42 551.236 226.66C551.676 225.9 551.896 225.01 551.896 223.99C551.896 222.95 551.676 222.06 551.236 221.32C550.816 220.56 550.246 219.98 549.526 219.58C548.826 219.18 548.026 218.98 547.126 218.98C546.226 218.98 545.416 219.18 544.696 219.58C543.996 219.98 543.426 220.56 542.986 221.32C542.566 222.06 542.356 222.95 542.356 223.99C542.356 225.01 542.566 225.9 542.986 226.66C543.426 227.42 543.996 228 544.696 228.4C545.416 228.8 546.226 229 547.126 229ZM551.986 232V228.22L552.136 223.96L551.836 219.7V209.74H555.556V232H551.986ZM568.021 232.21C566.241 232.21 564.681 231.86 563.341 231.16C562.021 230.44 560.991 229.46 560.251 228.22C559.531 226.98 559.171 225.57 559.171 223.99C559.171 222.39 559.521 220.98 560.221 219.76C560.941 218.52 561.921 217.55 563.161 216.85C564.421 216.15 565.851 215.8 567.451 215.8C569.011 215.8 570.401 216.14 571.621 216.82C572.841 217.5 573.801 218.46 574.501 219.7C575.201 220.94 575.551 222.4 575.551 224.08C575.551 224.24 575.541 224.42 575.521 224.62C575.521 224.82 575.511 225.01 575.491 225.19H562.141V222.7H573.511L572.041 223.48C572.061 222.56 571.871 221.75 571.471 221.05C571.071 220.35 570.521 219.8 569.821 219.4C569.141 219 568.351 218.8 567.451 218.8C566.531 218.8 565.721 219 565.021 219.4C564.341 219.8 563.801 220.36 563.401 221.08C563.021 221.78 562.831 222.61 562.831 223.57V224.17C562.831 225.13 563.051 225.98 563.491 226.72C563.931 227.46 564.551 228.03 565.351 228.43C566.151 228.83 567.071 229.03 568.111 229.03C569.011 229.03 569.821 228.89 570.541 228.61C571.261 228.33 571.901 227.89 572.461 227.29L574.471 229.6C573.751 230.44 572.841 231.09 571.741 231.55C570.661 231.99 569.421 232.21 568.021 232.21ZM585.933 232.21C584.393 232.21 583.003 231.87 581.763 231.19C580.543 230.49 579.583 229.53 578.883 228.31C578.183 227.09 577.833 225.65 577.833 223.99C577.833 222.33 578.183 220.89 578.883 219.67C579.583 218.45 580.543 217.5 581.763 216.82C583.003 216.14 584.393 215.8 585.933 215.8C587.273 215.8 588.473 216.1 589.533 216.7C590.593 217.28 591.433 218.17 592.053 219.37C592.673 220.57 592.983 222.11 592.983 223.99C592.983 225.85 592.683 227.39 592.083 228.61C591.483 229.81 590.653 230.71 589.593 231.31C588.533 231.91 587.313 232.21 585.933 232.21ZM586.383 229C587.283 229 588.083 228.8 588.783 228.4C589.503 228 590.073 227.42 590.493 226.66C590.933 225.9 591.153 225.01 591.153 223.99C591.153 222.95 590.933 222.06 590.493 221.32C590.073 220.56 589.503 219.98 588.783 219.58C588.083 219.18 587.283 218.98 586.383 218.98C585.483 218.98 584.673 219.18 583.953 219.58C583.253 219.98 582.683 220.56 582.243 221.32C581.823 222.06 581.613 222.95 581.613 223.99C581.613 225.01 581.823 225.9 582.243 226.66C582.683 227.42 583.253 228 583.953 228.4C584.673 228.8 585.483 229 586.383 229ZM591.243 232V228.22L591.393 223.96L591.093 219.7V209.74H594.813V232H591.243ZM600.949 232.21C600.269 232.21 599.689 231.98 599.209 231.52C598.729 231.04 598.489 230.44 598.489 229.72C598.489 228.96 598.729 228.36 599.209 227.92C599.689 227.46 600.269 227.23 600.949 227.23C601.629 227.23 602.209 227.46 602.689 227.92C603.169 228.36 603.409 228.96 603.409 229.72C603.409 230.44 603.169 231.04 602.689 231.52C602.209 231.98 601.629 232.21 600.949 232.21ZM178.82 269V248H182.03L195.2 264.17H193.61V248H197.48V269H194.27L181.1 252.83H182.69V269H178.82ZM209.947 269.21C208.307 269.21 206.847 268.86 205.567 268.16C204.287 267.44 203.277 266.46 202.537 265.22C201.797 263.98 201.427 262.57 201.427 260.99C201.427 259.39 201.797 257.98 202.537 256.76C203.277 255.52 204.287 254.55 205.567 253.85C206.847 253.15 208.307 252.8 209.947 252.8C211.607 252.8 213.077 253.15 214.357 253.85C215.657 254.55 216.667 255.51 217.387 256.73C218.127 257.95 218.497 259.37 218.497 260.99C218.497 262.57 218.127 263.98 217.387 265.22C216.667 266.46 215.657 267.44 214.357 268.16C213.077 268.86 211.607 269.21 209.947 269.21ZM209.947 266C210.867 266 211.687 265.8 212.407 265.4C213.127 265 213.687 264.42 214.087 263.66C214.507 262.9 214.717 262.01 214.717 260.99C214.717 259.95 214.507 259.06 214.087 258.32C213.687 257.56 213.127 256.98 212.407 256.58C211.687 256.18 210.877 255.98 209.977 255.98C209.057 255.98 208.237 256.18 207.517 256.58C206.817 256.98 206.257 257.56 205.837 258.32C205.417 259.06 205.207 259.95 205.207 260.99C205.207 262.01 205.417 262.9 205.837 263.66C206.257 264.42 206.817 265 207.517 265.4C208.237 265.8 209.047 266 209.947 266ZM225.184 269L219.304 252.98H222.844L227.884 267.11H226.204L231.484 252.98H234.634L239.764 267.11H238.114L243.304 252.98H246.634L240.724 269H237.124L232.444 256.49H233.554L228.784 269H225.184ZM247.226 273.53L248.966 266.9L249.476 269.12C248.776 269.12 248.186 268.91 247.706 268.49C247.246 268.05 247.016 267.46 247.016 266.72C247.016 265.96 247.246 265.36 247.706 264.92C248.186 264.46 248.766 264.23 249.446 264.23C250.146 264.23 250.726 264.46 251.186 264.92C251.646 265.38 251.876 265.98 251.876 266.72C251.876 266.92 251.856 267.14 251.816 267.38C251.776 267.6 251.706 267.86 251.606 268.16C251.526 268.46 251.386 268.84 251.186 269.3L249.656 273.53H247.226ZM264.191 269V248H268.091V269H264.191ZM272.871 256.31L272.631 248H275.871L275.601 256.31H272.871ZM300.223 252.8C301.503 252.8 302.633 253.05 303.613 253.55C304.613 254.05 305.393 254.82 305.953 255.86C306.513 256.88 306.793 258.2 306.793 259.82V269H303.043V260.3C303.043 258.88 302.733 257.82 302.113 257.12C301.493 256.42 300.603 256.07 299.443 256.07C298.623 256.07 297.893 256.25 297.253 256.61C296.633 256.97 296.143 257.5 295.783 258.2C295.443 258.9 295.273 259.79 295.273 260.87V269H291.523V260.3C291.523 258.88 291.213 257.82 290.593 257.12C289.973 256.42 289.083 256.07 287.923 256.07C287.103 256.07 286.373 256.25 285.733 256.61C285.113 256.97 284.623 257.5 284.263 258.2C283.923 258.9 283.753 259.79 283.753 260.87V269H280.003V252.98H283.573V257.24L282.943 255.98C283.483 254.94 284.263 254.15 285.283 253.61C286.323 253.07 287.503 252.8 288.823 252.8C290.323 252.8 291.623 253.17 292.723 253.91C293.843 254.65 294.583 255.77 294.943 257.27L293.473 256.76C293.993 255.56 294.853 254.6 296.053 253.88C297.253 253.16 298.643 252.8 300.223 252.8ZM325.906 269.21C324.146 269.21 322.786 268.76 321.826 267.86C320.866 266.94 320.386 265.59 320.386 263.81V249.44H324.136V263.72C324.136 264.48 324.326 265.07 324.706 265.49C325.106 265.91 325.656 266.12 326.356 266.12C327.196 266.12 327.896 265.9 328.456 265.46L329.506 268.13C329.066 268.49 328.526 268.76 327.886 268.94C327.246 269.12 326.586 269.21 325.906 269.21ZM317.746 256.1V253.1H328.426V256.1H317.746ZM341.681 252.8C342.961 252.8 344.101 253.05 345.101 253.55C346.121 254.05 346.921 254.82 347.501 255.86C348.081 256.88 348.371 258.2 348.371 259.82V269H344.621V260.3C344.621 258.88 344.281 257.82 343.601 257.12C342.941 256.42 342.011 256.07 340.811 256.07C339.931 256.07 339.151 256.25 338.471 256.61C337.791 256.97 337.261 257.51 336.881 258.23C336.521 258.93 336.341 259.82 336.341 260.9V269H332.591V246.74H336.341V257.3L335.531 255.98C336.091 254.96 336.901 254.18 337.961 253.64C339.041 253.08 340.281 252.8 341.681 252.8ZM353.128 269V252.98H356.698V257.39L356.278 256.1C356.758 255.02 357.508 254.2 358.528 253.64C359.568 253.08 360.858 252.8 362.398 252.8V256.37C362.238 256.33 362.088 256.31 361.948 256.31C361.808 256.29 361.668 256.28 361.528 256.28C360.108 256.28 358.978 256.7 358.138 257.54C357.298 258.36 356.878 259.59 356.878 261.23V269H353.128ZM365.579 269V252.98H369.329V269H365.579ZM367.469 250.34C366.769 250.34 366.189 250.12 365.729 249.68C365.289 249.24 365.069 248.71 365.069 248.09C365.069 247.45 365.289 246.92 365.729 246.5C366.189 246.06 366.769 245.84 367.469 245.84C368.169 245.84 368.739 246.05 369.179 246.47C369.639 246.87 369.869 247.38 369.869 248C369.869 248.66 369.649 249.22 369.209 249.68C368.769 250.12 368.189 250.34 367.469 250.34ZM378.511 269L371.641 252.98H375.541L381.451 267.11H379.531L385.651 252.98H389.251L382.381 269H378.511ZM391.595 269V252.98H395.345V269H391.595ZM393.485 250.34C392.785 250.34 392.205 250.12 391.745 249.68C391.305 249.24 391.085 248.71 391.085 248.09C391.085 247.45 391.305 246.92 391.745 246.5C392.205 246.06 392.785 245.84 393.485 245.84C394.185 245.84 394.755 246.05 395.195 246.47C395.655 246.87 395.885 247.38 395.885 248C395.885 248.66 395.665 249.22 395.225 249.68C394.785 250.12 394.205 250.34 393.485 250.34ZM409.357 252.8C410.637 252.8 411.777 253.05 412.777 253.55C413.797 254.05 414.597 254.82 415.177 255.86C415.757 256.88 416.047 258.2 416.047 259.82V269H412.297V260.3C412.297 258.88 411.957 257.82 411.277 257.12C410.617 256.42 409.687 256.07 408.487 256.07C407.607 256.07 406.827 256.25 406.147 256.61C405.467 256.97 404.937 257.51 404.557 258.23C404.197 258.93 404.017 259.82 404.017 260.9V269H400.267V252.98H403.837V257.3L403.207 255.98C403.767 254.96 404.577 254.18 405.637 253.64C406.717 253.08 407.957 252.8 409.357 252.8ZM428.093 275.03C426.613 275.03 425.163 274.83 423.743 274.43C422.343 274.05 421.193 273.49 420.293 272.75L421.973 269.93C422.673 270.51 423.553 270.97 424.613 271.31C425.693 271.67 426.783 271.85 427.883 271.85C429.643 271.85 430.933 271.44 431.753 270.62C432.573 269.82 432.983 268.61 432.983 266.99V264.14L433.283 260.51L433.163 256.88V252.98H436.733V266.57C436.733 269.47 435.993 271.6 434.513 272.96C433.033 274.34 430.893 275.03 428.093 275.03ZM427.613 268.28C426.093 268.28 424.713 267.96 423.473 267.32C422.253 266.66 421.283 265.75 420.563 264.59C419.863 263.43 419.513 262.07 419.513 260.51C419.513 258.97 419.863 257.62 420.563 256.46C421.283 255.3 422.253 254.4 423.473 253.76C424.713 253.12 426.093 252.8 427.613 252.8C428.973 252.8 430.193 253.07 431.273 253.61C432.353 254.15 433.213 254.99 433.853 256.13C434.513 257.27 434.843 258.73 434.843 260.51C434.843 262.29 434.513 263.76 433.853 264.92C433.213 266.06 432.353 266.91 431.273 267.47C430.193 268.01 428.973 268.28 427.613 268.28ZM428.183 265.1C429.123 265.1 429.963 264.91 430.703 264.53C431.443 264.13 432.013 263.59 432.413 262.91C432.833 262.21 433.043 261.41 433.043 260.51C433.043 259.61 432.833 258.82 432.413 258.14C432.013 257.44 431.443 256.91 430.703 256.55C429.963 256.17 429.123 255.98 428.183 255.98C427.243 255.98 426.393 256.17 425.633 256.55C424.893 256.91 424.313 257.44 423.893 258.14C423.493 258.82 423.293 259.61 423.293 260.51C423.293 261.41 423.493 262.21 423.893 262.91C424.313 263.59 424.893 264.13 425.633 264.53C426.393 264.91 427.243 265.1 428.183 265.1ZM459.824 269V265.76L459.614 265.07V259.4C459.614 258.3 459.284 257.45 458.624 256.85C457.964 256.23 456.964 255.92 455.624 255.92C454.724 255.92 453.834 256.06 452.954 256.34C452.094 256.62 451.364 257.01 450.764 257.51L449.294 254.78C450.154 254.12 451.174 253.63 452.354 253.31C453.554 252.97 454.794 252.8 456.074 252.8C458.394 252.8 460.184 253.36 461.444 254.48C462.724 255.58 463.364 257.29 463.364 259.61V269H459.824ZM454.784 269.21C453.584 269.21 452.534 269.01 451.634 268.61C450.734 268.19 450.034 267.62 449.534 266.9C449.054 266.16 448.814 265.33 448.814 264.41C448.814 263.51 449.024 262.7 449.444 261.98C449.884 261.26 450.594 260.69 451.574 260.27C452.554 259.85 453.854 259.64 455.474 259.64H460.124V262.13H455.744C454.464 262.13 453.604 262.34 453.164 262.76C452.724 263.16 452.504 263.66 452.504 264.26C452.504 264.94 452.774 265.48 453.314 265.88C453.854 266.28 454.604 266.48 455.564 266.48C456.484 266.48 457.304 266.27 458.024 265.85C458.764 265.43 459.294 264.81 459.614 263.99L460.244 266.24C459.884 267.18 459.234 267.91 458.294 268.43C457.374 268.95 456.204 269.21 454.784 269.21ZM473.127 269.21C471.787 269.21 470.497 269.04 469.257 268.7C468.037 268.34 467.067 267.91 466.347 267.41L467.787 264.56C468.507 265.02 469.367 265.4 470.367 265.7C471.367 266 472.367 266.15 473.367 266.15C474.547 266.15 475.397 265.99 475.917 265.67C476.457 265.35 476.727 264.92 476.727 264.38C476.727 263.94 476.547 263.61 476.187 263.39C475.827 263.15 475.357 262.97 474.777 262.85C474.197 262.73 473.547 262.62 472.827 262.52C472.127 262.42 471.417 262.29 470.697 262.13C469.997 261.95 469.357 261.7 468.777 261.38C468.197 261.04 467.727 260.59 467.367 260.03C467.007 259.47 466.827 258.73 466.827 257.81C466.827 256.79 467.117 255.91 467.697 255.17C468.277 254.41 469.087 253.83 470.127 253.43C471.187 253.01 472.437 252.8 473.877 252.8C474.957 252.8 476.047 252.92 477.147 253.16C478.247 253.4 479.157 253.74 479.877 254.18L478.437 257.03C477.677 256.57 476.907 256.26 476.127 256.1C475.367 255.92 474.607 255.83 473.847 255.83C472.707 255.83 471.857 256 471.297 256.34C470.757 256.68 470.487 257.11 470.487 257.63C470.487 258.11 470.667 258.47 471.027 258.71C471.387 258.95 471.857 259.14 472.437 259.28C473.017 259.42 473.657 259.54 474.357 259.64C475.077 259.72 475.787 259.85 476.487 260.03C477.187 260.21 477.827 260.46 478.407 260.78C479.007 261.08 479.487 261.51 479.847 262.07C480.207 262.63 480.387 263.36 480.387 264.26C480.387 265.26 480.087 266.13 479.487 266.87C478.907 267.61 478.077 268.19 476.997 268.61C475.917 269.01 474.627 269.21 473.127 269.21ZM501.777 269V265.76L501.567 265.07V259.4C501.567 258.3 501.237 257.45 500.577 256.85C499.917 256.23 498.917 255.92 497.577 255.92C496.677 255.92 495.787 256.06 494.907 256.34C494.047 256.62 493.317 257.01 492.717 257.51L491.247 254.78C492.107 254.12 493.127 253.63 494.307 253.31C495.507 252.97 496.747 252.8 498.027 252.8C500.347 252.8 502.137 253.36 503.397 254.48C504.677 255.58 505.317 257.29 505.317 259.61V269H501.777ZM496.737 269.21C495.537 269.21 494.487 269.01 493.587 268.61C492.687 268.19 491.987 267.62 491.487 266.9C491.007 266.16 490.767 265.33 490.767 264.41C490.767 263.51 490.977 262.7 491.397 261.98C491.837 261.26 492.547 260.69 493.527 260.27C494.507 259.85 495.807 259.64 497.427 259.64H502.077V262.13H497.697C496.417 262.13 495.557 262.34 495.117 262.76C494.677 263.16 494.457 263.66 494.457 264.26C494.457 264.94 494.727 265.48 495.267 265.88C495.807 266.28 496.557 266.48 497.517 266.48C498.437 266.48 499.257 266.27 499.977 265.85C500.717 265.43 501.247 264.81 501.567 263.99L502.197 266.24C501.837 267.18 501.187 267.91 500.247 268.43C499.327 268.95 498.157 269.21 496.737 269.21ZM527.811 269.3C524.931 269.3 522.671 268.49 521.031 266.87C519.411 265.25 518.601 262.91 518.601 259.85V248H522.501V259.7C522.501 261.86 522.961 263.43 523.881 264.41C524.821 265.39 526.141 265.88 527.841 265.88C529.541 265.88 530.851 265.39 531.771 264.41C532.691 263.43 533.151 261.86 533.151 259.7V248H536.991V259.85C536.991 262.91 536.171 265.25 534.531 266.87C532.911 268.49 530.671 269.3 527.811 269.3ZM539.61 269L548.46 256.82V259.76L540.03 248H544.44L550.71 256.7L548.91 256.73L555.12 248H559.35L550.98 259.55V256.73L559.89 269H555.39L548.79 259.76H550.56L544.05 269H539.61ZM185.24 306.21C183.7 306.21 182.31 305.87 181.07 305.19C179.85 304.49 178.89 303.53 178.19 302.31C177.49 301.09 177.14 299.65 177.14 297.99C177.14 296.33 177.49 294.89 178.19 293.67C178.89 292.45 179.85 291.5 181.07 290.82C182.31 290.14 183.7 289.8 185.24 289.8C186.58 289.8 187.78 290.1 188.84 290.7C189.9 291.28 190.74 292.17 191.36 293.37C191.98 294.57 192.29 296.11 192.29 297.99C192.29 299.85 191.99 301.39 191.39 302.61C190.79 303.81 189.96 304.71 188.9 305.31C187.84 305.91 186.62 306.21 185.24 306.21ZM185.69 303C186.59 303 187.39 302.8 188.09 302.4C188.81 302 189.38 301.42 189.8 300.66C190.24 299.9 190.46 299.01 190.46 297.99C190.46 296.95 190.24 296.06 189.8 295.32C189.38 294.56 188.81 293.98 188.09 293.58C187.39 293.18 186.59 292.98 185.69 292.98C184.79 292.98 183.98 293.18 183.26 293.58C182.56 293.98 181.99 294.56 181.55 295.32C181.13 296.06 180.92 296.95 180.92 297.99C180.92 299.01 181.13 299.9 181.55 300.66C181.99 301.42 182.56 302 183.26 302.4C183.98 302.8 184.79 303 185.69 303ZM190.55 306V302.22L190.7 297.96L190.4 293.7V283.74H194.12V306H190.55ZM206.586 306.21C204.806 306.21 203.246 305.86 201.906 305.16C200.586 304.44 199.556 303.46 198.816 302.22C198.096 300.98 197.736 299.57 197.736 297.99C197.736 296.39 198.086 294.98 198.786 293.76C199.506 292.52 200.486 291.55 201.726 290.85C202.986 290.15 204.416 289.8 206.016 289.8C207.576 289.8 208.966 290.14 210.186 290.82C211.406 291.5 212.366 292.46 213.066 293.7C213.766 294.94 214.116 296.4 214.116 298.08C214.116 298.24 214.106 298.42 214.086 298.62C214.086 298.82 214.076 299.01 214.056 299.19H200.706V296.7H212.076L210.606 297.48C210.626 296.56 210.436 295.75 210.036 295.05C209.636 294.35 209.086 293.8 208.386 293.4C207.706 293 206.916 292.8 206.016 292.8C205.096 292.8 204.286 293 203.586 293.4C202.906 293.8 202.366 294.36 201.966 295.08C201.586 295.78 201.396 296.61 201.396 297.57V298.17C201.396 299.13 201.616 299.98 202.056 300.72C202.496 301.46 203.116 302.03 203.916 302.43C204.716 302.83 205.636 303.03 206.676 303.03C207.576 303.03 208.386 302.89 209.106 302.61C209.826 302.33 210.466 301.89 211.026 301.29L213.036 303.6C212.316 304.44 211.406 305.09 210.306 305.55C209.226 305.99 207.986 306.21 206.586 306.21ZM222.668 306.21C221.328 306.21 220.038 306.04 218.798 305.7C217.578 305.34 216.608 304.91 215.888 304.41L217.328 301.56C218.048 302.02 218.908 302.4 219.908 302.7C220.908 303 221.908 303.15 222.908 303.15C224.088 303.15 224.938 302.99 225.458 302.67C225.998 302.35 226.268 301.92 226.268 301.38C226.268 300.94 226.088 300.61 225.728 300.39C225.368 300.15 224.898 299.97 224.318 299.85C223.738 299.73 223.088 299.62 222.368 299.52C221.668 299.42 220.958 299.29 220.238 299.13C219.538 298.95 218.898 298.7 218.318 298.38C217.738 298.04 217.268 297.59 216.908 297.03C216.548 296.47 216.368 295.73 216.368 294.81C216.368 293.79 216.658 292.91 217.238 292.17C217.818 291.41 218.628 290.83 219.668 290.43C220.728 290.01 221.978 289.8 223.418 289.8C224.498 289.8 225.588 289.92 226.688 290.16C227.788 290.4 228.698 290.74 229.418 291.18L227.978 294.03C227.218 293.57 226.448 293.26 225.668 293.1C224.908 292.92 224.148 292.83 223.388 292.83C222.248 292.83 221.398 293 220.838 293.34C220.298 293.68 220.028 294.11 220.028 294.63C220.028 295.11 220.208 295.47 220.568 295.71C220.928 295.95 221.398 296.14 221.978 296.28C222.558 296.42 223.198 296.54 223.898 296.64C224.618 296.72 225.328 296.85 226.028 297.03C226.728 297.21 227.368 297.46 227.948 297.78C228.548 298.08 229.028 298.51 229.388 299.07C229.748 299.63 229.928 300.36 229.928 301.26C229.928 302.26 229.628 303.13 229.028 303.87C228.448 304.61 227.618 305.19 226.538 305.61C225.458 306.01 224.168 306.21 222.668 306.21ZM233.157 306V289.98H236.907V306H233.157ZM235.047 287.34C234.347 287.34 233.767 287.12 233.307 286.68C232.867 286.24 232.647 285.71 232.647 285.09C232.647 284.45 232.867 283.92 233.307 283.5C233.767 283.06 234.347 282.84 235.047 282.84C235.747 282.84 236.317 283.05 236.757 283.47C237.217 283.87 237.447 284.38 237.447 285C237.447 285.66 237.227 286.22 236.787 286.68C236.347 287.12 235.767 287.34 235.047 287.34ZM249.089 312.03C247.609 312.03 246.159 311.83 244.739 311.43C243.339 311.05 242.189 310.49 241.289 309.75L242.969 306.93C243.669 307.51 244.549 307.97 245.609 308.31C246.689 308.67 247.779 308.85 248.879 308.85C250.639 308.85 251.929 308.44 252.749 307.62C253.569 306.82 253.979 305.61 253.979 303.99V301.14L254.279 297.51L254.159 293.88V289.98H257.729V303.57C257.729 306.47 256.989 308.6 255.509 309.96C254.029 311.34 251.889 312.03 249.089 312.03ZM248.609 305.28C247.089 305.28 245.709 304.96 244.469 304.32C243.249 303.66 242.279 302.75 241.559 301.59C240.859 300.43 240.509 299.07 240.509 297.51C240.509 295.97 240.859 294.62 241.559 293.46C242.279 292.3 243.249 291.4 244.469 290.76C245.709 290.12 247.089 289.8 248.609 289.8C249.969 289.8 251.189 290.07 252.269 290.61C253.349 291.15 254.209 291.99 254.849 293.13C255.509 294.27 255.839 295.73 255.839 297.51C255.839 299.29 255.509 300.76 254.849 301.92C254.209 303.06 253.349 303.91 252.269 304.47C251.189 305.01 249.969 305.28 248.609 305.28ZM249.179 302.1C250.119 302.1 250.959 301.91 251.699 301.53C252.439 301.13 253.009 300.59 253.409 299.91C253.829 299.21 254.039 298.41 254.039 297.51C254.039 296.61 253.829 295.82 253.409 295.14C253.009 294.44 252.439 293.91 251.699 293.55C250.959 293.17 250.119 292.98 249.179 292.98C248.239 292.98 247.389 293.17 246.629 293.55C245.889 293.91 245.309 294.44 244.889 295.14C244.489 295.82 244.289 296.61 244.289 297.51C244.289 298.41 244.489 299.21 244.889 299.91C245.309 300.59 245.889 301.13 246.629 301.53C247.389 301.91 248.239 302.1 249.179 302.1ZM271.749 289.8C273.029 289.8 274.169 290.05 275.169 290.55C276.189 291.05 276.989 291.82 277.569 292.86C278.149 293.88 278.439 295.2 278.439 296.82V306H274.689V297.3C274.689 295.88 274.349 294.82 273.669 294.12C273.009 293.42 272.079 293.07 270.879 293.07C269.999 293.07 269.219 293.25 268.539 293.61C267.859 293.97 267.329 294.51 266.949 295.23C266.589 295.93 266.409 296.82 266.409 297.9V306H262.659V289.98H266.229V294.3L265.599 292.98C266.159 291.96 266.969 291.18 268.029 290.64C269.109 290.08 270.349 289.8 271.749 289.8ZM290.756 306.21C288.976 306.21 287.416 305.86 286.076 305.16C284.756 304.44 283.726 303.46 282.986 302.22C282.266 300.98 281.906 299.57 281.906 297.99C281.906 296.39 282.256 294.98 282.956 293.76C283.676 292.52 284.656 291.55 285.896 290.85C287.156 290.15 288.586 289.8 290.186 289.8C291.746 289.8 293.136 290.14 294.356 290.82C295.576 291.5 296.536 292.46 297.236 293.7C297.936 294.94 298.286 296.4 298.286 298.08C298.286 298.24 298.276 298.42 298.256 298.62C298.256 298.82 298.246 299.01 298.226 299.19H284.876V296.7H296.246L294.776 297.48C294.796 296.56 294.606 295.75 294.206 295.05C293.806 294.35 293.256 293.8 292.556 293.4C291.876 293 291.086 292.8 290.186 292.8C289.266 292.8 288.456 293 287.756 293.4C287.076 293.8 286.536 294.36 286.136 295.08C285.756 295.78 285.566 296.61 285.566 297.57V298.17C285.566 299.13 285.786 299.98 286.226 300.72C286.666 301.46 287.286 302.03 288.086 302.43C288.886 302.83 289.806 303.03 290.846 303.03C291.746 303.03 292.556 302.89 293.276 302.61C293.996 302.33 294.636 301.89 295.196 301.29L297.206 303.6C296.486 304.44 295.576 305.09 294.476 305.55C293.396 305.99 292.156 306.21 290.756 306.21ZM301.888 306V289.98H305.458V294.39L305.038 293.1C305.518 292.02 306.268 291.2 307.288 290.64C308.328 290.08 309.618 289.8 311.158 289.8V293.37C310.998 293.33 310.848 293.31 310.708 293.31C310.568 293.29 310.428 293.28 310.288 293.28C308.868 293.28 307.738 293.7 306.898 294.54C306.058 295.36 305.638 296.59 305.638 298.23V306H301.888ZM314.725 299.04L314.005 285H318.445L317.695 299.04H314.725ZM316.225 306.21C315.525 306.21 314.945 305.98 314.485 305.52C314.025 305.06 313.795 304.51 313.795 303.87C313.795 303.23 314.025 302.69 314.485 302.25C314.945 301.79 315.525 301.56 316.225 301.56C316.925 301.56 317.495 301.79 317.935 302.25C318.375 302.69 318.595 303.23 318.595 303.87C318.595 304.51 318.375 305.06 317.935 305.52C317.495 305.98 316.925 306.21 316.225 306.21Z" fill="white"/>
<path d="M227.5 58.4L210.1 125L205.3 102.5C212.3 102.5 218.1 104.7 222.7 109.1C227.3 113.5 229.6 119.4 229.6 126.8C229.6 134.2 227.3 140.2 222.7 144.8C218.1 149.2 212.4 151.4 205.6 151.4C198.4 151.4 192.5 149.1 187.9 144.5C183.3 139.9 181 134 181 126.8C181 124.4 181.1 122.2 181.3 120.2C181.7 118 182.4 115.4 183.4 112.4C184.4 109.4 185.8 105.6 187.6 101L203.5 58.4H227.5ZM291.1 58.4L273.7 125L268.9 102.5C275.9 102.5 281.7 104.7 286.3 109.1C290.9 113.5 293.2 119.4 293.2 126.8C293.2 134.2 290.9 140.2 286.3 144.8C281.7 149.2 276 151.4 269.2 151.4C262 151.4 256.1 149.1 251.5 144.5C246.9 139.9 244.6 134 244.6 126.8C244.6 124.4 244.7 122.2 244.9 120.2C245.3 118 246 115.4 247 112.4C248 109.4 249.4 105.6 251.2 101L267.1 58.4H291.1Z" fill="white" fill-opacity="0.5"/>
<path d="M177.824 396V384.8H182.384C183.579 384.8 184.624 385.04 185.52 385.52C186.427 385.989 187.131 386.645 187.632 387.488C188.133 388.331 188.384 389.301 188.384 390.4C188.384 391.499 188.133 392.469 187.632 393.312C187.131 394.155 186.427 394.816 185.52 395.296C184.624 395.765 183.579 396 182.384 396H177.824ZM179.008 394.976H182.32C183.312 394.976 184.171 394.784 184.896 394.4C185.632 394.005 186.203 393.467 186.608 392.784C187.013 392.091 187.216 391.296 187.216 390.4C187.216 389.493 187.013 388.699 186.608 388.016C186.203 387.333 185.632 386.8 184.896 386.416C184.171 386.021 183.312 385.824 182.32 385.824H179.008V394.976ZM196.067 396V394.144L196.019 393.84V390.736C196.019 390.021 195.816 389.472 195.411 389.088C195.016 388.704 194.424 388.512 193.635 388.512C193.091 388.512 192.573 388.603 192.083 388.784C191.592 388.965 191.176 389.205 190.835 389.504L190.323 388.656C190.749 388.293 191.261 388.016 191.859 387.824C192.456 387.621 193.085 387.52 193.747 387.52C194.835 387.52 195.672 387.792 196.259 388.336C196.856 388.869 197.155 389.685 197.155 390.784V396H196.067ZM193.171 396.08C192.541 396.08 191.992 395.979 191.523 395.776C191.064 395.563 190.712 395.275 190.467 394.912C190.221 394.539 190.099 394.112 190.099 393.632C190.099 393.195 190.2 392.8 190.403 392.448C190.616 392.085 190.957 391.797 191.427 391.584C191.907 391.36 192.547 391.248 193.347 391.248H196.243V392.096H193.379C192.568 392.096 192.003 392.24 191.683 392.528C191.373 392.816 191.219 393.173 191.219 393.6C191.219 394.08 191.405 394.464 191.779 394.752C192.152 395.04 192.675 395.184 193.347 395.184C193.987 395.184 194.536 395.04 194.995 394.752C195.464 394.453 195.805 394.027 196.019 393.472L196.275 394.256C196.061 394.811 195.688 395.253 195.155 395.584C194.632 395.915 193.971 396.08 193.171 396.08ZM202.244 396L198.516 387.6H199.7L203.124 395.392H202.564L206.036 387.6H207.156L203.412 396H202.244ZM208.756 396V387.6H209.892V396H208.756ZM209.332 385.744C209.097 385.744 208.9 385.664 208.74 385.504C208.58 385.344 208.5 385.152 208.5 384.928C208.5 384.704 208.58 384.517 208.74 384.368C208.9 384.208 209.097 384.128 209.332 384.128C209.567 384.128 209.764 384.203 209.924 384.352C210.084 384.501 210.164 384.688 210.164 384.912C210.164 385.147 210.084 385.344 209.924 385.504C209.775 385.664 209.577 385.744 209.332 385.744ZM216.397 396.08C215.597 396.08 214.877 395.899 214.237 395.536C213.607 395.173 213.111 394.672 212.749 394.032C212.386 393.381 212.205 392.635 212.205 391.792C212.205 390.939 212.386 390.192 212.749 389.552C213.111 388.912 213.607 388.416 214.237 388.064C214.877 387.701 215.597 387.52 216.397 387.52C217.133 387.52 217.789 387.685 218.365 388.016C218.951 388.347 219.415 388.832 219.757 389.472C220.109 390.101 220.285 390.875 220.285 391.792C220.285 392.699 220.114 393.472 219.773 394.112C219.431 394.752 218.967 395.243 218.381 395.584C217.805 395.915 217.143 396.08 216.397 396.08ZM216.477 395.072C217.074 395.072 217.607 394.939 218.077 394.672C218.557 394.395 218.93 394.011 219.197 393.52C219.474 393.019 219.613 392.443 219.613 391.792C219.613 391.131 219.474 390.555 219.197 390.064C218.93 389.573 218.557 389.195 218.077 388.928C217.607 388.651 217.074 388.512 216.477 388.512C215.89 388.512 215.362 388.651 214.893 388.928C214.423 389.195 214.05 389.573 213.773 390.064C213.495 390.555 213.357 391.131 213.357 391.792C213.357 392.443 213.495 393.019 213.773 393.52C214.05 394.011 214.423 394.395 214.893 394.672C215.362 394.939 215.89 395.072 216.477 395.072ZM219.645 396V393.472L219.757 391.776L219.597 390.08V384.128H220.733V396H219.645ZM233.22 396.096C232.377 396.096 231.593 395.957 230.868 395.68C230.153 395.392 229.529 394.992 228.996 394.48C228.473 393.957 228.063 393.355 227.764 392.672C227.476 391.979 227.332 391.221 227.332 390.4C227.332 389.579 227.476 388.827 227.764 388.144C228.063 387.451 228.473 386.848 228.996 386.336C229.529 385.813 230.153 385.413 230.868 385.136C231.583 384.848 232.367 384.704 233.22 384.704C234.063 384.704 234.841 384.848 235.556 385.136C236.271 385.413 236.889 385.808 237.412 386.32C237.945 386.832 238.356 387.435 238.644 388.128C238.943 388.821 239.092 389.579 239.092 390.4C239.092 391.221 238.943 391.979 238.644 392.672C238.356 393.365 237.945 393.968 237.412 394.48C236.889 394.992 236.271 395.392 235.556 395.68C234.841 395.957 234.063 396.096 233.22 396.096ZM233.22 395.04C233.892 395.04 234.511 394.928 235.076 394.704C235.652 394.469 236.148 394.144 236.564 393.728C236.991 393.301 237.321 392.811 237.556 392.256C237.791 391.691 237.908 391.072 237.908 390.4C237.908 389.728 237.791 389.115 237.556 388.56C237.321 387.995 236.991 387.504 236.564 387.088C236.148 386.661 235.652 386.336 235.076 386.112C234.511 385.877 233.892 385.76 233.22 385.76C232.548 385.76 231.924 385.877 231.348 386.112C230.772 386.336 230.271 386.661 229.844 387.088C229.428 387.504 229.097 387.995 228.852 388.56C228.617 389.115 228.5 389.728 228.5 390.4C228.5 391.061 228.617 391.675 228.852 392.24C229.097 392.805 229.428 393.301 229.844 393.728C230.271 394.144 230.772 394.469 231.348 394.704C231.924 394.928 232.548 395.04 233.22 395.04ZM241.305 396.08C241.071 396.08 240.868 395.995 240.697 395.824C240.537 395.653 240.457 395.445 240.457 395.2C240.457 394.944 240.537 394.736 240.697 394.576C240.868 394.416 241.071 394.336 241.305 394.336C241.54 394.336 241.737 394.416 241.897 394.576C242.068 394.736 242.153 394.944 242.153 395.2C242.153 395.445 242.068 395.653 241.897 395.824C241.737 395.995 241.54 396.08 241.305 396.08ZM243.896 398.336L244.6 395.376L244.728 396.064C244.483 396.064 244.275 395.984 244.104 395.824C243.944 395.664 243.864 395.456 243.864 395.2C243.864 394.944 243.944 394.736 244.104 394.576C244.275 394.416 244.477 394.336 244.712 394.336C244.957 394.336 245.155 394.421 245.304 394.592C245.464 394.763 245.544 394.965 245.544 395.2C245.544 395.285 245.539 395.371 245.528 395.456C245.517 395.541 245.496 395.637 245.464 395.744C245.432 395.851 245.389 395.979 245.336 396.128L244.664 398.336H243.896ZM260.594 384.8H261.762V396H260.594V384.8ZM253.586 396H252.402V384.8H253.586V396ZM260.706 390.832H253.458V389.792H260.706V390.832ZM270.442 396V394.144L270.394 393.84V390.736C270.394 390.021 270.191 389.472 269.786 389.088C269.391 388.704 268.799 388.512 268.01 388.512C267.466 388.512 266.948 388.603 266.458 388.784C265.967 388.965 265.551 389.205 265.21 389.504L264.698 388.656C265.124 388.293 265.636 388.016 266.234 387.824C266.831 387.621 267.46 387.52 268.122 387.52C269.21 387.52 270.047 387.792 270.634 388.336C271.231 388.869 271.53 389.685 271.53 390.784V396H270.442ZM267.546 396.08C266.916 396.08 266.367 395.979 265.898 395.776C265.439 395.563 265.087 395.275 264.842 394.912C264.596 394.539 264.474 394.112 264.474 393.632C264.474 393.195 264.575 392.8 264.778 392.448C264.991 392.085 265.332 391.797 265.802 391.584C266.282 391.36 266.922 391.248 267.722 391.248H270.618V392.096H267.754C266.943 392.096 266.378 392.24 266.058 392.528C265.748 392.816 265.594 393.173 265.594 393.6C265.594 394.08 265.78 394.464 266.154 394.752C266.527 395.04 267.05 395.184 267.722 395.184C268.362 395.184 268.911 395.04 269.37 394.752C269.839 394.453 270.18 394.027 270.394 393.472L270.65 394.256C270.436 394.811 270.063 395.253 269.53 395.584C269.007 395.915 268.346 396.08 267.546 396.08ZM278.183 396.08C277.309 396.08 276.541 395.899 275.879 395.536C275.218 395.163 274.701 394.656 274.327 394.016C273.954 393.365 273.767 392.624 273.767 391.792C273.767 390.96 273.943 390.224 274.295 389.584C274.658 388.944 275.149 388.443 275.767 388.08C276.397 387.707 277.101 387.52 277.879 387.52C278.669 387.52 279.367 387.701 279.975 388.064C280.594 388.416 281.079 388.917 281.431 389.568C281.783 390.208 281.959 390.949 281.959 391.792C281.959 391.845 281.954 391.904 281.943 391.968C281.943 392.021 281.943 392.08 281.943 392.144H274.631V391.296H281.335L280.887 391.632C280.887 391.024 280.754 390.485 280.487 390.016C280.231 389.536 279.879 389.163 279.431 388.896C278.983 388.629 278.466 388.496 277.879 388.496C277.303 388.496 276.786 388.629 276.327 388.896C275.869 389.163 275.511 389.536 275.255 390.016C274.999 390.496 274.871 391.045 274.871 391.664V391.84C274.871 392.48 275.01 393.045 275.287 393.536C275.575 394.016 275.97 394.395 276.471 394.672C276.983 394.939 277.565 395.072 278.215 395.072C278.727 395.072 279.202 394.981 279.639 394.8C280.087 394.619 280.471 394.341 280.791 393.968L281.431 394.704C281.058 395.152 280.589 395.493 280.023 395.728C279.469 395.963 278.855 396.08 278.183 396.08ZM284.272 396V384.128H285.408V396H284.272ZM290.824 396.08C290.131 396.08 289.475 395.984 288.856 395.792C288.238 395.589 287.752 395.339 287.4 395.04L287.912 394.144C288.254 394.4 288.691 394.624 289.224 394.816C289.758 394.997 290.318 395.088 290.904 395.088C291.704 395.088 292.28 394.965 292.632 394.72C292.984 394.464 293.16 394.128 293.16 393.712C293.16 393.403 293.059 393.163 292.856 392.992C292.664 392.811 292.408 392.677 292.088 392.592C291.768 392.496 291.411 392.416 291.016 392.352C290.622 392.288 290.227 392.213 289.832 392.128C289.448 392.043 289.096 391.92 288.776 391.76C288.456 391.589 288.195 391.36 287.992 391.072C287.8 390.784 287.704 390.4 287.704 389.92C287.704 389.461 287.832 389.051 288.088 388.688C288.344 388.325 288.718 388.043 289.208 387.84C289.71 387.627 290.318 387.52 291.032 387.52C291.576 387.52 292.12 387.595 292.664 387.744C293.208 387.883 293.656 388.069 294.008 388.304L293.512 389.216C293.139 388.96 292.739 388.779 292.312 388.672C291.886 388.555 291.459 388.496 291.032 388.496C290.275 388.496 289.715 388.629 289.352 388.896C289 389.152 288.824 389.483 288.824 389.888C288.824 390.208 288.92 390.459 289.112 390.64C289.315 390.821 289.576 390.965 289.896 391.072C290.227 391.168 290.584 391.248 290.968 391.312C291.363 391.376 291.752 391.456 292.136 391.552C292.531 391.637 292.888 391.76 293.208 391.92C293.539 392.069 293.8 392.288 293.992 392.576C294.195 392.853 294.296 393.221 294.296 393.68C294.296 394.171 294.158 394.597 293.88 394.96C293.614 395.312 293.219 395.589 292.696 395.792C292.184 395.984 291.56 396.08 290.824 396.08ZM299.805 396.08C298.994 396.08 298.264 395.899 297.613 395.536C296.973 395.163 296.466 394.656 296.093 394.016C295.72 393.365 295.533 392.624 295.533 391.792C295.533 390.949 295.72 390.208 296.093 389.568C296.466 388.928 296.973 388.427 297.613 388.064C298.253 387.701 298.984 387.52 299.805 387.52C300.637 387.52 301.373 387.701 302.013 388.064C302.664 388.427 303.17 388.928 303.533 389.568C303.906 390.208 304.093 390.949 304.093 391.792C304.093 392.624 303.906 393.365 303.533 394.016C303.17 394.656 302.664 395.163 302.013 395.536C301.362 395.899 300.626 396.08 299.805 396.08ZM299.805 395.072C300.413 395.072 300.952 394.939 301.421 394.672C301.89 394.395 302.258 394.011 302.525 393.52C302.802 393.019 302.941 392.443 302.941 391.792C302.941 391.131 302.802 390.555 302.525 390.064C302.258 389.573 301.89 389.195 301.421 388.928C300.952 388.651 300.418 388.512 299.821 388.512C299.224 388.512 298.69 388.651 298.221 388.928C297.752 389.195 297.378 389.573 297.101 390.064C296.824 390.555 296.685 391.131 296.685 391.792C296.685 392.443 296.824 393.019 297.101 393.52C297.378 394.011 297.752 394.395 298.221 394.672C298.69 394.939 299.218 395.072 299.805 395.072ZM306.604 396V386.544C306.604 385.797 306.823 385.195 307.26 384.736C307.697 384.277 308.327 384.048 309.148 384.048C309.468 384.048 309.777 384.091 310.076 384.176C310.375 384.261 310.625 384.395 310.828 384.576L310.444 385.424C310.284 385.285 310.097 385.184 309.884 385.12C309.671 385.045 309.441 385.008 309.196 385.008C308.716 385.008 308.348 385.141 308.092 385.408C307.836 385.675 307.708 386.069 307.708 386.592V387.872L307.74 388.4V396H306.604ZM305.1 388.544V387.6H310.3V388.544H305.1ZM314.49 396.08C313.701 396.08 313.093 395.867 312.666 395.44C312.239 395.013 312.026 394.411 312.026 393.632V385.744H313.162V393.568C313.162 394.059 313.285 394.437 313.53 394.704C313.786 394.971 314.149 395.104 314.618 395.104C315.119 395.104 315.535 394.96 315.866 394.672L316.266 395.488C316.042 395.691 315.77 395.84 315.45 395.936C315.141 396.032 314.821 396.08 314.49 396.08ZM310.522 388.544V387.6H315.722V388.544H310.522ZM322.762 396V384.8H327.594C328.842 384.8 329.807 385.051 330.49 385.552C331.183 386.053 331.53 386.763 331.53 387.68C331.53 388.288 331.386 388.8 331.098 389.216C330.82 389.632 330.436 389.947 329.946 390.16C329.466 390.373 328.938 390.48 328.362 390.48L328.634 390.096C329.348 390.096 329.962 390.208 330.474 390.432C330.996 390.645 331.402 390.971 331.69 391.408C331.978 391.835 332.122 392.368 332.122 393.008C332.122 393.957 331.77 394.693 331.066 395.216C330.372 395.739 329.322 396 327.914 396H322.762ZM323.946 395.024H327.898C328.879 395.024 329.631 394.859 330.154 394.528C330.676 394.187 330.938 393.648 330.938 392.912C330.938 392.187 330.676 391.659 330.154 391.328C329.631 390.987 328.879 390.816 327.898 390.816H323.818V389.84H327.514C328.41 389.84 329.103 389.669 329.594 389.328C330.095 388.987 330.345 388.48 330.345 387.808C330.345 387.125 330.095 386.619 329.594 386.288C329.103 385.947 328.41 385.776 327.514 385.776H323.946V395.024ZM338.008 396.08C337.197 396.08 336.467 395.899 335.816 395.536C335.176 395.163 334.669 394.656 334.296 394.016C333.923 393.365 333.736 392.624 333.736 391.792C333.736 390.949 333.923 390.208 334.296 389.568C334.669 388.928 335.176 388.427 335.816 388.064C336.456 387.701 337.187 387.52 338.008 387.52C338.84 387.52 339.576 387.701 340.216 388.064C340.867 388.427 341.373 388.928 341.736 389.568C342.109 390.208 342.296 390.949 342.296 391.792C342.296 392.624 342.109 393.365 341.736 394.016C341.373 394.656 340.867 395.163 340.216 395.536C339.565 395.899 338.829 396.08 338.008 396.08ZM338.008 395.072C338.616 395.072 339.155 394.939 339.624 394.672C340.093 394.395 340.461 394.011 340.728 393.52C341.005 393.019 341.144 392.443 341.144 391.792C341.144 391.131 341.005 390.555 340.728 390.064C340.461 389.573 340.093 389.195 339.624 388.928C339.155 388.651 338.621 388.512 338.024 388.512C337.427 388.512 336.893 388.651 336.424 388.928C335.955 389.195 335.581 389.573 335.304 390.064C335.027 390.555 334.888 391.131 334.888 391.792C334.888 392.443 335.027 393.019 335.304 393.52C335.581 394.011 335.955 394.395 336.424 394.672C336.893 394.939 337.421 395.072 338.008 395.072ZM348.039 396.08C347.229 396.08 346.498 395.899 345.847 395.536C345.207 395.163 344.701 394.656 344.327 394.016C343.954 393.365 343.767 392.624 343.767 391.792C343.767 390.949 343.954 390.208 344.327 389.568C344.701 388.928 345.207 388.427 345.847 388.064C346.487 387.701 347.218 387.52 348.039 387.52C348.871 387.52 349.607 387.701 350.247 388.064C350.898 388.427 351.405 388.928 351.767 389.568C352.141 390.208 352.327 390.949 352.327 391.792C352.327 392.624 352.141 393.365 351.767 394.016C351.405 394.656 350.898 395.163 350.247 395.536C349.597 395.899 348.861 396.08 348.039 396.08ZM348.039 395.072C348.647 395.072 349.186 394.939 349.655 394.672C350.125 394.395 350.493 394.011 350.759 393.52C351.037 393.019 351.175 392.443 351.175 391.792C351.175 391.131 351.037 390.555 350.759 390.064C350.493 389.573 350.125 389.195 349.655 388.928C349.186 388.651 348.653 388.512 348.055 388.512C347.458 388.512 346.925 388.651 346.455 388.928C345.986 389.195 345.613 389.573 345.335 390.064C345.058 390.555 344.919 391.131 344.919 391.792C344.919 392.443 345.058 393.019 345.335 393.52C345.613 394.011 345.986 394.395 346.455 394.672C346.925 394.939 347.453 395.072 348.039 395.072ZM357.303 396.08C356.513 396.08 355.905 395.867 355.479 395.44C355.052 395.013 354.839 394.411 354.839 393.632V385.744H355.975V393.568C355.975 394.059 356.097 394.437 356.343 394.704C356.599 394.971 356.961 395.104 357.431 395.104C357.932 395.104 358.348 394.96 358.679 394.672L359.079 395.488C358.855 395.691 358.583 395.84 358.263 395.936C357.953 396.032 357.633 396.08 357.303 396.08ZM353.335 388.544V387.6H358.535V388.544H353.335ZM364.338 396.08C363.506 396.08 362.759 395.899 362.098 395.536C361.447 395.163 360.935 394.656 360.562 394.016C360.188 393.365 360.002 392.624 360.002 391.792C360.002 390.949 360.188 390.208 360.562 389.568C360.935 388.928 361.447 388.427 362.098 388.064C362.759 387.701 363.506 387.52 364.338 387.52C365.052 387.52 365.698 387.659 366.274 387.936C366.85 388.213 367.303 388.629 367.634 389.184L366.786 389.76C366.498 389.333 366.14 389.019 365.714 388.816C365.287 388.613 364.823 388.512 364.322 388.512C363.724 388.512 363.186 388.651 362.706 388.928C362.226 389.195 361.847 389.573 361.57 390.064C361.292 390.555 361.154 391.131 361.154 391.792C361.154 392.453 361.292 393.029 361.57 393.52C361.847 394.011 362.226 394.395 362.706 394.672C363.186 394.939 363.724 395.072 364.322 395.072C364.823 395.072 365.287 394.971 365.714 394.768C366.14 394.565 366.498 394.256 366.786 393.84L367.634 394.416C367.303 394.96 366.85 395.376 366.274 395.664C365.698 395.941 365.052 396.08 364.338 396.08ZM375.129 396V394.144L375.081 393.84V390.736C375.081 390.021 374.879 389.472 374.473 389.088C374.079 388.704 373.487 388.512 372.697 388.512C372.153 388.512 371.636 388.603 371.145 388.784C370.655 388.965 370.239 389.205 369.897 389.504L369.385 388.656C369.812 388.293 370.324 388.016 370.921 387.824C371.519 387.621 372.148 387.52 372.809 387.52C373.897 387.52 374.735 387.792 375.321 388.336C375.919 388.869 376.217 389.685 376.217 390.784V396H375.129ZM372.233 396.08C371.604 396.08 371.055 395.979 370.585 395.776C370.127 395.563 369.775 395.275 369.529 394.912C369.284 394.539 369.161 394.112 369.161 393.632C369.161 393.195 369.263 392.8 369.465 392.448C369.679 392.085 370.02 391.797 370.489 391.584C370.969 391.36 371.609 391.248 372.409 391.248H375.305V392.096H372.441C371.631 392.096 371.065 392.24 370.745 392.528C370.436 392.816 370.281 393.173 370.281 393.6C370.281 394.08 370.468 394.464 370.841 394.752C371.215 395.04 371.737 395.184 372.409 395.184C373.049 395.184 373.599 395.04 374.057 394.752C374.527 394.453 374.868 394.027 375.081 393.472L375.337 394.256C375.124 394.811 374.751 395.253 374.217 395.584C373.695 395.915 373.033 396.08 372.233 396.08ZM389.799 387.52C390.481 387.52 391.073 387.653 391.575 387.92C392.087 388.176 392.481 388.571 392.759 389.104C393.047 389.637 393.191 390.309 393.191 391.12V396H392.055V391.232C392.055 390.347 391.841 389.68 391.415 389.232C390.999 388.773 390.407 388.544 389.639 388.544C389.063 388.544 388.561 388.667 388.135 388.912C387.719 389.147 387.393 389.493 387.159 389.952C386.935 390.4 386.823 390.944 386.823 391.584V396H385.687V391.232C385.687 390.347 385.473 389.68 385.047 389.232C384.62 388.773 384.023 388.544 383.255 388.544C382.689 388.544 382.193 388.667 381.767 388.912C381.34 389.147 381.009 389.493 380.775 389.952C380.551 390.4 380.439 390.944 380.439 391.584V396H379.303V387.6H380.391V389.872L380.215 389.472C380.471 388.864 380.881 388.389 381.447 388.048C382.023 387.696 382.7 387.52 383.479 387.52C384.3 387.52 384.999 387.728 385.575 388.144C386.151 388.549 386.524 389.163 386.695 389.984L386.247 389.808C386.492 389.125 386.924 388.576 387.543 388.16C388.172 387.733 388.924 387.52 389.799 387.52ZM400.608 396.08C399.882 396.08 399.226 395.915 398.64 395.584C398.053 395.243 397.584 394.757 397.232 394.128C396.89 393.488 396.72 392.709 396.72 391.792C396.72 390.875 396.89 390.101 397.232 389.472C397.573 388.832 398.037 388.347 398.624 388.016C399.21 387.685 399.872 387.52 400.608 387.52C401.408 387.52 402.122 387.701 402.752 388.064C403.392 388.416 403.893 388.917 404.256 389.568C404.618 390.208 404.8 390.949 404.8 391.792C404.8 392.645 404.618 393.392 404.256 394.032C403.893 394.672 403.392 395.173 402.752 395.536C402.122 395.899 401.408 396.08 400.608 396.08ZM396.272 399.104V387.6H397.36V390.128L397.248 391.808L397.408 393.504V399.104H396.272ZM400.528 395.072C401.125 395.072 401.658 394.939 402.128 394.672C402.597 394.395 402.97 394.011 403.248 393.52C403.525 393.019 403.664 392.443 403.664 391.792C403.664 391.141 403.525 390.571 403.248 390.08C402.97 389.589 402.597 389.205 402.128 388.928C401.658 388.651 401.125 388.512 400.528 388.512C399.93 388.512 399.392 388.651 398.911 388.928C398.442 389.205 398.069 389.589 397.792 390.08C397.525 390.571 397.392 391.141 397.392 391.792C397.392 392.443 397.525 393.019 397.792 393.52C398.069 394.011 398.442 394.395 398.911 394.672C399.392 394.939 399.93 395.072 400.528 395.072ZM416.455 396.096C415.601 396.096 414.812 395.957 414.087 395.68C413.372 395.392 412.748 394.992 412.215 394.48C411.692 393.968 411.281 393.365 410.983 392.672C410.695 391.979 410.551 391.221 410.551 390.4C410.551 389.579 410.695 388.821 410.983 388.128C411.281 387.435 411.697 386.832 412.231 386.32C412.764 385.808 413.388 385.413 414.103 385.136C414.828 384.848 415.617 384.704 416.471 384.704C417.324 384.704 418.103 384.837 418.807 385.104C419.521 385.371 420.129 385.776 420.631 386.32L419.895 387.072C419.425 386.603 418.908 386.267 418.343 386.064C417.777 385.861 417.169 385.76 416.519 385.76C415.825 385.76 415.185 385.877 414.599 386.112C414.023 386.336 413.516 386.661 413.079 387.088C412.652 387.504 412.316 387.995 412.071 388.56C411.836 389.115 411.719 389.728 411.719 390.4C411.719 391.061 411.836 391.675 412.071 392.24C412.316 392.805 412.652 393.301 413.079 393.728C413.516 394.144 414.023 394.469 414.599 394.704C415.185 394.928 415.82 395.04 416.503 395.04C417.143 395.04 417.745 394.944 418.311 394.752C418.887 394.56 419.415 394.235 419.895 393.776L420.567 394.672C420.033 395.141 419.409 395.499 418.695 395.744C417.98 395.979 417.233 396.096 416.455 396.096ZM419.431 394.528V390.4H420.567V394.672L419.431 394.528ZM423.678 396V387.6H424.766V389.888L424.654 389.488C424.888 388.848 425.283 388.363 425.838 388.032C426.392 387.691 427.08 387.52 427.902 387.52V388.624C427.859 388.624 427.816 388.624 427.774 388.624C427.731 388.613 427.688 388.608 427.646 388.608C426.76 388.608 426.067 388.88 425.566 389.424C425.064 389.957 424.814 390.72 424.814 391.712V396H423.678ZM434.614 396V394.144L434.566 393.84V390.736C434.566 390.021 434.363 389.472 433.958 389.088C433.563 388.704 432.971 388.512 432.182 388.512C431.638 388.512 431.12 388.603 430.63 388.784C430.139 388.965 429.723 389.205 429.382 389.504L428.87 388.656C429.296 388.293 429.808 388.016 430.406 387.824C431.003 387.621 431.632 387.52 432.294 387.52C433.382 387.52 434.219 387.792 434.806 388.336C435.403 388.869 435.702 389.685 435.702 390.784V396H434.614ZM431.718 396.08C431.088 396.08 430.539 395.979 430.07 395.776C429.611 395.563 429.259 395.275 429.014 394.912C428.768 394.539 428.646 394.112 428.646 393.632C428.646 393.195 428.747 392.8 428.95 392.448C429.163 392.085 429.504 391.797 429.974 391.584C430.454 391.36 431.094 391.248 431.894 391.248H434.79V392.096H431.926C431.115 392.096 430.55 392.24 430.23 392.528C429.92 392.816 429.766 393.173 429.766 393.6C429.766 394.08 429.952 394.464 430.326 394.752C430.699 395.04 431.222 395.184 431.894 395.184C432.534 395.184 433.083 395.04 433.542 394.752C434.011 394.453 434.352 394.027 434.566 393.472L434.822 394.256C434.608 394.811 434.235 395.253 433.702 395.584C433.179 395.915 432.518 396.08 431.718 396.08ZM442.131 396.08C441.331 396.08 440.611 395.899 439.971 395.536C439.342 395.173 438.846 394.672 438.483 394.032C438.12 393.381 437.939 392.635 437.939 391.792C437.939 390.939 438.12 390.192 438.483 389.552C438.846 388.912 439.342 388.416 439.971 388.064C440.611 387.701 441.331 387.52 442.131 387.52C442.867 387.52 443.523 387.685 444.099 388.016C444.686 388.347 445.15 388.832 445.491 389.472C445.843 390.101 446.019 390.875 446.019 391.792C446.019 392.699 445.848 393.472 445.507 394.112C445.166 394.752 444.702 395.243 444.115 395.584C443.539 395.915 442.878 396.08 442.131 396.08ZM442.211 395.072C442.808 395.072 443.342 394.939 443.811 394.672C444.291 394.395 444.664 394.011 444.931 393.52C445.208 393.019 445.347 392.443 445.347 391.792C445.347 391.131 445.208 390.555 444.931 390.064C444.664 389.573 444.291 389.195 443.811 388.928C443.342 388.651 442.808 388.512 442.211 388.512C441.624 388.512 441.096 388.651 440.627 388.928C440.158 389.195 439.784 389.573 439.507 390.064C439.23 390.555 439.091 391.131 439.091 391.792C439.091 392.443 439.23 393.019 439.507 393.52C439.784 394.011 440.158 394.395 440.627 394.672C441.096 394.939 441.624 395.072 442.211 395.072ZM445.379 396V393.472L445.491 391.776L445.331 390.08V384.128H446.467V396H445.379ZM453.103 396.08C452.388 396.08 451.764 395.947 451.231 395.68C450.698 395.413 450.282 395.013 449.983 394.48C449.695 393.947 449.551 393.28 449.551 392.48V387.6H450.687V392.352C450.687 393.248 450.906 393.925 451.343 394.384C451.791 394.832 452.415 395.056 453.215 395.056C453.802 395.056 454.308 394.939 454.735 394.704C455.172 394.459 455.503 394.107 455.727 393.648C455.962 393.189 456.079 392.64 456.079 392V387.6H457.215V396H456.127V393.696L456.303 394.112C456.036 394.731 455.62 395.216 455.055 395.568C454.5 395.909 453.85 396.08 453.103 396.08ZM465.645 396V394.144L465.597 393.84V390.736C465.597 390.021 465.394 389.472 464.989 389.088C464.594 388.704 464.002 388.512 463.213 388.512C462.669 388.512 462.152 388.603 461.661 388.784C461.17 388.965 460.754 389.205 460.413 389.504L459.901 388.656C460.328 388.293 460.84 388.016 461.437 387.824C462.034 387.621 462.664 387.52 463.325 387.52C464.413 387.52 465.25 387.792 465.837 388.336C466.434 388.869 466.733 389.685 466.733 390.784V396H465.645ZM462.749 396.08C462.12 396.08 461.57 395.979 461.101 395.776C460.642 395.563 460.29 395.275 460.045 394.912C459.8 394.539 459.677 394.112 459.677 393.632C459.677 393.195 459.778 392.8 459.981 392.448C460.194 392.085 460.536 391.797 461.005 391.584C461.485 391.36 462.125 391.248 462.925 391.248H465.821V392.096H462.957C462.146 392.096 461.581 392.24 461.261 392.528C460.952 392.816 460.797 393.173 460.797 393.6C460.797 394.08 460.984 394.464 461.357 394.752C461.73 395.04 462.253 395.184 462.925 395.184C463.565 395.184 464.114 395.04 464.573 394.752C465.042 394.453 465.384 394.027 465.597 393.472L465.853 394.256C465.64 394.811 465.266 395.253 464.733 395.584C464.21 395.915 463.549 396.08 462.749 396.08ZM472.474 396.08C471.685 396.08 471.077 395.867 470.65 395.44C470.224 395.013 470.01 394.411 470.01 393.632V385.744H471.146V393.568C471.146 394.059 471.269 394.437 471.514 394.704C471.77 394.971 472.133 395.104 472.602 395.104C473.104 395.104 473.52 394.96 473.85 394.672L474.25 395.488C474.026 395.691 473.754 395.84 473.434 395.936C473.125 396.032 472.805 396.08 472.474 396.08ZM468.506 388.544V387.6H473.706V388.544H468.506ZM479.59 396.08C478.715 396.08 477.947 395.899 477.286 395.536C476.624 395.163 476.107 394.656 475.734 394.016C475.36 393.365 475.174 392.624 475.174 391.792C475.174 390.96 475.35 390.224 475.702 389.584C476.064 388.944 476.555 388.443 477.174 388.08C477.803 387.707 478.507 387.52 479.286 387.52C480.075 387.52 480.774 387.701 481.382 388.064C482 388.416 482.486 388.917 482.838 389.568C483.19 390.208 483.366 390.949 483.366 391.792C483.366 391.845 483.36 391.904 483.35 391.968C483.35 392.021 483.35 392.08 483.35 392.144H476.038V391.296H482.742L482.294 391.632C482.294 391.024 482.16 390.485 481.894 390.016C481.638 389.536 481.286 389.163 480.838 388.896C480.39 388.629 479.872 388.496 479.286 388.496C478.71 388.496 478.192 388.629 477.734 388.896C477.275 389.163 476.918 389.536 476.662 390.016C476.406 390.496 476.278 391.045 476.278 391.664V391.84C476.278 392.48 476.416 393.045 476.694 393.536C476.982 394.016 477.376 394.395 477.878 394.672C478.39 394.939 478.971 395.072 479.622 395.072C480.134 395.072 480.608 394.981 481.046 394.8C481.494 394.619 481.878 394.341 482.198 393.968L482.838 394.704C482.464 395.152 481.995 395.493 481.43 395.728C480.875 395.963 480.262 396.08 479.59 396.08Z" fill="white"/>
<path d="M179.834 107.196H186.116V109.176H179.834V107.196ZM180.032 114H177.692V101.4H186.89V103.362H180.032V114ZM191.313 106.638H197.577V108.564H191.313V106.638ZM191.493 112.038H198.603V114H189.153V101.4H198.351V103.362H191.493V112.038ZM199.43 114L205.1 101.4H207.404L213.092 114H210.644L205.766 102.642H206.702L201.842 114H199.43ZM202.04 111.084L202.67 109.248H209.474L210.104 111.084H202.04ZM216.617 114V103.38H212.441V101.4H223.133V103.38H218.957V114H216.617ZM230.079 114.18C228.351 114.18 226.995 113.694 226.011 112.722C225.039 111.75 224.553 110.346 224.553 108.51V101.4H226.893V108.42C226.893 109.716 227.169 110.658 227.721 111.246C228.285 111.834 229.077 112.128 230.097 112.128C231.117 112.128 231.903 111.834 232.455 111.246C233.007 110.658 233.283 109.716 233.283 108.42V101.4H235.587V108.51C235.587 110.346 235.095 111.75 234.111 112.722C233.139 113.694 231.795 114.18 230.079 114.18ZM238.864 114V101.4H244.048C245.164 101.4 246.118 101.58 246.91 101.94C247.714 102.3 248.332 102.816 248.764 103.488C249.196 104.16 249.412 104.958 249.412 105.882C249.412 106.806 249.196 107.604 248.764 108.276C248.332 108.936 247.714 109.446 246.91 109.806C246.118 110.154 245.164 110.328 244.048 110.328H240.16L241.204 109.266V114H238.864ZM247.108 114L243.922 109.428H246.424L249.628 114H247.108ZM241.204 109.518L240.16 108.402H243.94C244.972 108.402 245.746 108.18 246.262 107.736C246.79 107.292 247.054 106.674 247.054 105.882C247.054 105.078 246.79 104.46 246.262 104.028C245.746 103.596 244.972 103.38 243.94 103.38H240.16L241.204 102.228V109.518ZM254.19 106.638H260.454V108.564H254.19V106.638ZM254.37 112.038H261.48V114H252.03V101.4H261.228V103.362H254.37V112.038ZM264.088 114V101.4H269.596C270.964 101.4 272.164 101.664 273.196 102.192C274.228 102.72 275.032 103.452 275.608 104.388C276.184 105.324 276.472 106.428 276.472 107.7C276.472 108.96 276.184 110.064 275.608 111.012C275.032 111.948 274.228 112.68 273.196 113.208C272.164 113.736 270.964 114 269.596 114H264.088ZM266.428 112.02H269.488C270.436 112.02 271.252 111.84 271.936 111.48C272.632 111.12 273.166 110.616 273.538 109.968C273.922 109.32 274.114 108.564 274.114 107.7C274.114 106.824 273.922 106.068 273.538 105.432C273.166 104.784 272.632 104.28 271.936 103.92C271.252 103.56 270.436 103.38 269.488 103.38H266.428V112.02ZM287.84 114.18C286.856 114.18 285.914 114.042 285.014 113.766C284.114 113.478 283.4 113.112 282.872 112.668L283.682 110.85C284.186 111.246 284.81 111.576 285.554 111.84C286.298 112.104 287.06 112.236 287.84 112.236C288.5 112.236 289.034 112.164 289.442 112.02C289.85 111.876 290.15 111.684 290.342 111.444C290.534 111.192 290.63 110.91 290.63 110.598C290.63 110.214 290.492 109.908 290.216 109.68C289.94 109.44 289.58 109.254 289.136 109.122C288.704 108.978 288.218 108.846 287.678 108.726C287.15 108.606 286.616 108.468 286.076 108.312C285.548 108.144 285.062 107.934 284.618 107.682C284.186 107.418 283.832 107.07 283.556 106.638C283.28 106.206 283.142 105.654 283.142 104.982C283.142 104.298 283.322 103.674 283.682 103.11C284.054 102.534 284.612 102.078 285.356 101.742C286.112 101.394 287.066 101.22 288.218 101.22C288.974 101.22 289.724 101.316 290.468 101.508C291.212 101.7 291.86 101.976 292.412 102.336L291.674 104.154C291.11 103.818 290.528 103.572 289.928 103.416C289.328 103.248 288.752 103.164 288.2 103.164C287.552 103.164 287.024 103.242 286.616 103.398C286.22 103.554 285.926 103.758 285.734 104.01C285.554 104.262 285.464 104.55 285.464 104.874C285.464 105.258 285.596 105.57 285.86 105.81C286.136 106.038 286.49 106.218 286.922 106.35C287.366 106.482 287.858 106.614 288.398 106.746C288.938 106.866 289.472 107.004 290 107.16C290.54 107.316 291.026 107.52 291.458 107.772C291.902 108.024 292.256 108.366 292.52 108.798C292.796 109.23 292.934 109.776 292.934 110.436C292.934 111.108 292.748 111.732 292.376 112.308C292.016 112.872 291.458 113.328 290.702 113.676C289.946 114.012 288.992 114.18 287.84 114.18ZM297.635 114V103.38H293.459V101.4H304.151V103.38H299.975V114H297.635ZM311.635 114.18C310.651 114.18 309.745 114.018 308.917 113.694C308.089 113.37 307.369 112.92 306.757 112.344C306.145 111.756 305.671 111.072 305.335 110.292C304.999 109.5 304.831 108.636 304.831 107.7C304.831 106.764 304.999 105.906 305.335 105.126C305.671 104.334 306.145 103.65 306.757 103.074C307.369 102.486 308.089 102.03 308.917 101.706C309.745 101.382 310.645 101.22 311.617 101.22C312.601 101.22 313.501 101.382 314.317 101.706C315.145 102.03 315.865 102.486 316.477 103.074C317.089 103.65 317.563 104.334 317.899 105.126C318.235 105.906 318.403 106.764 318.403 107.7C318.403 108.636 318.235 109.5 317.899 110.292C317.563 111.084 317.089 111.768 316.477 112.344C315.865 112.92 315.145 113.37 314.317 113.694C313.501 114.018 312.607 114.18 311.635 114.18ZM311.617 112.128C312.253 112.128 312.841 112.02 313.381 111.804C313.921 111.588 314.389 111.282 314.785 110.886C315.181 110.478 315.487 110.01 315.703 109.482C315.931 108.942 316.045 108.348 316.045 107.7C316.045 107.052 315.931 106.464 315.703 105.936C315.487 105.396 315.181 104.928 314.785 104.532C314.389 104.124 313.921 103.812 313.381 103.596C312.841 103.38 312.253 103.272 311.617 103.272C310.981 103.272 310.393 103.38 309.853 103.596C309.325 103.812 308.857 104.124 308.449 104.532C308.053 104.928 307.741 105.396 307.513 105.936C307.297 106.464 307.189 107.052 307.189 107.7C307.189 108.336 307.297 108.924 307.513 109.464C307.741 110.004 308.053 110.478 308.449 110.886C308.845 111.282 309.313 111.588 309.853 111.804C310.393 112.02 310.981 112.128 311.617 112.128ZM320.883 114V101.4H326.067C327.183 101.4 328.137 101.58 328.929 101.94C329.733 102.3 330.351 102.816 330.783 103.488C331.215 104.16 331.431 104.958 331.431 105.882C331.431 106.806 331.215 107.604 330.783 108.276C330.351 108.936 329.733 109.446 328.929 109.806C328.137 110.154 327.183 110.328 326.067 110.328H322.179L323.223 109.266V114H320.883ZM329.127 114L325.941 109.428H328.443L331.647 114H329.127ZM323.223 109.518L322.179 108.402H325.959C326.991 108.402 327.765 108.18 328.281 107.736C328.809 107.292 329.073 106.674 329.073 105.882C329.073 105.078 328.809 104.46 328.281 104.028C327.765 103.596 326.991 103.38 325.959 103.38H322.179L323.223 102.228V109.518ZM336.97 114V109.014L337.492 110.454L332.02 101.4H334.522L338.914 108.69H337.51L341.938 101.4H344.242L338.77 110.454L339.31 109.014V114H336.97Z" fill="white"/>
</svg>
