<svg width="1440" height="1580" viewBox="0 0 1440 1580" fill="none" xmlns="http://www.w3.org/2000/svg">
<path d="M-561.566 2022.67C-123.085 1918.79 484.963 738.122 428.85 327.567C392.054 58.4284 -39.0375 64.4722 -156.814 15.9327C-317.427 -50.1715 -13.3112 197.295 48.6281 483.384C122.219 823.349 10.5139 1717.08 364.887 1559.94C674.154 1422.73 741.122 978.317 962.816 988.61C1163.32 998.054 1319.52 1371.07 1419.7 1682.71" stroke="#F36400" stroke-opacity="0.1" stroke-width="2" stroke-miterlimit="10"/>
<path d="M-561.6 1995.43C-141.516 1879.6 443.443 736.186 396.682 342.819C366.019 85.1064 -42.2597 93.7 -151.236 50.0712C-302.313 -10.3198 -11.1673 227.514 50.2508 501.988C123.842 831.093 22.286 1686.39 364.394 1534.87C669.583 1400.06 731.185 945.312 954.872 944.651C1155.75 945.218 1318.11 1310.16 1422.7 1615.14" stroke="#F36400" stroke-opacity="0.1" stroke-width="2" stroke-miterlimit="10"/>
<path d="M-561.636 1968.32C-159.95 1840.55 401.92 734.488 364.541 358.213C340.011 111.927 -45.4847 123.07 -145.661 84.3523C-287.232 29.8634 -9.02639 257.876 51.8704 520.782C125.462 839.027 34.0859 1655.79 363.898 1509.94C665.009 1377.49 721.245 911.223 946.955 900.835C1148.17 891.391 1316.69 1249.35 1425.73 1547.71" stroke="#F36400" stroke-opacity="0.1" stroke-width="2" stroke-miterlimit="10"/>
<path d="M-561.636 1941.03C-178.348 1801.27 360.433 732.739 332.407 373.415C314.009 138.698 -48.7044 152.249 -140.08 118.442C-272.207 70.1854 -6.84928 288.235 53.4956 539.526C127.302 846.958 45.8912 1625.19 363.438 1485.05C660.44 1354.92 711.249 877.602 938.983 857.063C1140.53 838.695 1315.25 1188.48 1428.73 1480.33" stroke="#F36400" stroke-opacity="0.1" stroke-width="2" stroke-miterlimit="10"/>
<path d="M-561.663 1913.84C-196.589 1762.13 318.918 731.23 300.275 388.715C288.01 165.613 -51.89 181.573 -134.466 152.912C-257.118 110.416 -4.63824 318.55 55.124 558.273C129.053 854.845 57.6998 1594.55 362.95 1460.12C655.874 1332.35 701.286 844.504 931.106 813.246C1132.93 785.813 1313.9 1127.67 1431.77 1412.91" stroke="#F36400" stroke-opacity="0.1" stroke-width="2" stroke-miterlimit="10"/>
<path d="M-561.694 1886.64C-214.957 1722.94 277.4 729.815 268.109 404.015C261.976 192.67 -55.0794 210.896 -128.885 187.146C-241.971 150.788 -2.36969 348.912 56.7487 577.019C130.831 862.779 69.5045 1563.86 362.49 1435.15C651.274 1309.69 691.29 811.17 923.164 769.383C1125.33 732.931 1312.58 1066.85 1434.81 1345.43" stroke="#F36400" stroke-opacity="0.1" stroke-width="2" stroke-miterlimit="10"/>
<path d="M-561.694 1859.4C-233.324 1683.75 235.851 729.106 235.974 419.266C235.974 219.867 -58.3912 240.312 -123.305 221.425C-226.885 191.348 -0.100716 379.226 58.3737 595.717C132.64 870.711 81.279 1533.31 361.938 1410.17C646.644 1287.12 681.201 777.929 915.191 725.518C1117.57 680.189 1311.02 1005.85 1437.78 1277.96" stroke="#F36400" stroke-opacity="0.1" stroke-width="2" stroke-miterlimit="10"/>
<path d="M-561.726 1832.19C-251.722 1644.6 194.241 728.394 203.839 434.56C209.971 247.202 -61.3968 269.772 -117.694 255.654C-211.799 232.045 2.2597 409.535 60.1515 614.505C134.663 878.923 93.0837 1501.81 361.661 1385.28C642.105 1263.6 671.358 744.825 907.463 681.743C1110.24 627.537 1309.82 945.027 1441 1210.58" stroke="#F36400" stroke-opacity="0.1" stroke-width="2" stroke-miterlimit="10"/>
<path d="M-561.755 1805C-270.088 1605.41 152.51 727.968 171.674 449.858C183.756 274.729 -64.431 299.282 -112.112 289.933C-196.65 273.312 4.6222 439.848 61.6555 633.156C136.381 886.618 104.584 1471.03 361.049 1360.3C637.385 1240.89 661.271 711.772 899.4 637.877C1102.45 574.889 1308.29 884.116 1443.88 1143.1" stroke="#F36400" stroke-opacity="0.1" stroke-width="2" stroke-miterlimit="10"/>
<path d="M-561.755 1777.8C-288.455 1566.27 110.655 727.925 139.54 465.161C157.447 302.402 -67.436 328.939 -106.531 324.17C-181.472 315.057 6.92189 470.166 63.2806 651.905C138.344 894.555 116.512 1440.43 360.712 1335.28C632.939 1218.14 651.428 678.725 891.612 593.969C1094.97 522.246 1307.03 823.21 1447.07 1075.59" stroke="#F36400" stroke-opacity="0.1" stroke-width="2" stroke-miterlimit="10"/>
<path d="M-561.785 1750.6C-306.822 1527.08 68.5551 728.16 107.405 480.457C130.954 330.212 -70.1952 358.684 -101.104 358.401C-166.232 357.834 9.28339 500.43 64.7528 670.649C140.184 902.533 128.133 1409.69 359.946 1310.35C628.033 1195.42 641.126 645.812 883.395 550.15C1087.06 469.881 1305.32 762.345 1449.77 1008.16" stroke="#F36400" stroke-opacity="0.1" stroke-width="2" stroke-miterlimit="10"/>
<path d="M-561.815 1723.36C-325.189 1487.93 26.1792 728.679 75.2707 495.709C104.247 358.165 -73.6291 380.829 -95.3385 392.68C-150.164 383.237 11.9822 530.697 66.5317 689.347C142.392 910.466 140.123 1379.05 359.609 1285.37C623.618 1172.76 631.314 612.949 875.607 506.285C1079.61 417.281 1304.06 701.435 1452.96 940.685" stroke="#F36400" stroke-opacity="0.1" stroke-width="2" stroke-miterlimit="10"/>
<path d="M-561.815 1696.16C-343.587 1448.75 -16.6265 729.389 43.1051 511.009C77.2637 386.166 -76.7568 409.586 -89.7579 426.915C-134.955 422.571 14.7111 560.918 68.1568 708.094C144.538 918.4 151.898 1348.41 359.118 1260.54C619.018 1150.19 621.349 580.23 867.696 462.564C1072.03 364.966 1302.65 640.668 1456 873.355" stroke="#F36400" stroke-opacity="0.1" stroke-width="2" stroke-miterlimit="10"/>
<path d="M-561.843 1668.96C-361.95 1409.6 -59.8887 730.045 10.9736 526.303C49.9769 414.114 -79.9117 438.337 -84.0819 461.19C-119.682 461.992 17.5048 591.132 69.8772 726.787C146.872 926.328 163.798 1317.81 358.754 1235.46C614.545 1127.43 611.509 547.361 859.88 418.6C1064.56 312.502 1301.43 579.658 1459.1 805.782" stroke="#F36400" stroke-opacity="0.1" stroke-width="2" stroke-miterlimit="10"/>
<path d="M-561.881 1641.77C-380.325 1370.41 -103.683 730.475 -21.1688 541.605C22.3727 441.929 -83.0468 467.096 -78.6007 495.427C-104.572 501.423 20.1956 621.261 71.4029 745.679C149.134 934.548 175.504 1287.36 358.164 1210.68C609.876 1104.96 601.475 514.833 851.839 374.928C1056.88 260.284 1299.86 518.941 1462.03 738.502" stroke="#F36400" stroke-opacity="0.1" stroke-width="2" stroke-miterlimit="10"/>
<path d="M-561.881 1614.57C-398.692 1331.27 -147.93 730.238 -53.3342 556.903C-5.53052 469.409 -86.205 495.851 -72.9892 529.659C-89.3633 540.802 23.0781 651.338 73.0282 764.234C151.618 941.866 187.309 1256.66 357.673 1185.55C605.308 1082.24 591.571 482.016 843.928 330.921C1049.37 207.872 1298.45 457.935 1465.07 670.886" stroke="#F36400" stroke-opacity="0.1" stroke-width="2" stroke-miterlimit="10"/>
<path d="M-561.911 1587.37C-417.059 1292.08 -192.851 729.055 -85.4687 572.199C-33.6175 496.416 -89.3323 524.604 -67.4082 563.936C-74.1541 580.226 26.0528 681.271 74.6537 782.978C154.224 949.466 199.115 1226.11 357.214 1160.72C600.74 1059.81 581.698 449.623 835.987 287.195C1041.83 155.742 1297.04 397.165 1468.07 603.552" stroke="#F36400" stroke-opacity="0.1" stroke-width="2" stroke-miterlimit="10"/>
<path d="M-561.94 1560.13C-435.455 1252.94 -237.924 726.606 -117.602 587.457C-61.7648 522.911 -92.4891 553.366 -61.8261 598.175C-58.9438 619.612 29.1512 711.119 76.1576 801.729C156.924 956.838 210.83 1195.57 356.602 1135.65C596.05 1037.2 571.734 416.908 827.954 243.242C1034.19 103.432 1295.54 336.166 1470.99 535.99" stroke="#F36400" stroke-opacity="0.1" stroke-width="2" stroke-miterlimit="10"/>
<path d="M-561.94 1532.93C-453.823 1213.74 -283.06 722.871 -149.737 602.75C-89.8829 548.828 -91.2014 574.892 -56.2456 632.403C-41.6806 656.389 32.34 741.003 77.9359 820.422C160.052 963.869 222.788 1165.11 356.264 1110.67C591.634 1014.72 562.013 384.417 820.135 199.372C1026.83 51.2041 1294.25 275.298 1474.15 468.511" stroke="#F36400" stroke-opacity="0.1" stroke-width="2" stroke-miterlimit="10"/>
<path d="M-561.97 1505.59C-472.188 1174.46 -327.949 717.725 -181.748 617.907C-117.632 574.089 -96.6274 606.905 -50.4796 666.541C-27.329 696.477 35.7756 770.089 79.7157 839.026C163.456 970.337 234.748 1134.46 355.928 1085.59C587.25 992.246 552.356 351.79 812.378 155.413C1019.54 -1.06521 1292.99 214.246 1477.31 400.943" stroke="#F36400" stroke-opacity="0.1" stroke-width="2" stroke-miterlimit="10"/>
<path d="M-562 1478.54C-490.555 1135.41 -372.41 711.914 -214.036 633.345C-145.443 599.301 -101.165 638.066 -45.0518 700.913C-12.9169 736.94 38.9649 799.408 81.188 857.863C166.799 976.426 246.493 1104.43 355.285 1060.9C582.682 970.713 542.605 320.152 804.284 111.829C1012.06 -52.5342 1291.43 153.664 1480.19 333.751" stroke="#F36400" stroke-opacity="0.1" stroke-width="2" stroke-miterlimit="10"/>
<path d="M-562 1451.34C-508.922 1096.27 -416.32 705.306 -246.171 648.645C-26.4086 575.222 143.035 1119.12 354.825 1035.83C578.113 947.956 532.671 287.102 796.373 67.8718C1004.48 -105.227 1290.05 92.6137 1483.22 266.185" stroke="#F36400" stroke-opacity="0.1" stroke-width="2" stroke-miterlimit="10"/>
</svg>
