<svg width="30" height="30" viewBox="0 0 30 30" fill="none" xmlns="http://www.w3.org/2000/svg">
<path d="M18.75 25L11.25 25M8.99614 21.25C7.59874 21.25 6.899 21.25 6.36475 20.9778C5.89434 20.7381 5.51217 20.3546 5.27248 19.8842C5.12123 19.5874 5.05394 19.2399 5.024 18.75M8.99614 21.25L21.0039 21.25M8.99614 21.25H6.99951C6.29945 21.25 5.94976 21.2495 5.68237 21.1133C5.44717 20.9934 5.25608 20.8037 5.13624 20.5685C5 20.3011 5 19.9501 5 19.25V18.75H5.024M5.024 18.75C5 18.3573 5 17.8732 5 17.2502L5 9.00024C5 7.60011 5 6.89953 5.27248 6.36475C5.51217 5.89434 5.89434 5.51217 6.36475 5.27248C6.89953 5 7.60011 5 9.00024 5L21.0002 5C22.4004 5 23.0995 5 23.6342 5.27248C24.1046 5.51217 24.4881 5.89434 24.7278 6.36475C25 6.899 25 7.59874 25 8.99614L25 17.2539C25 17.875 25 18.358 24.9761 18.75M5.024 18.75L24.9761 18.75M24.9761 18.75C24.9462 19.2399 24.879 19.5874 24.7278 19.8842C24.4881 20.3546 24.1046 20.7381 23.6342 20.9778C23.1 21.25 22.4013 21.25 21.0039 21.25M24.9761 18.75H25V19.25C25 19.9501 24.9995 20.3011 24.8633 20.5685C24.7434 20.8037 24.5529 20.9934 24.3177 21.1133C24.0503 21.2495 23.6996 21.25 22.9995 21.25H21.0039" stroke="#FF8C53" stroke-width="2" stroke-linecap="round" stroke-linejoin="round"/>
</svg>
