<svg width="30" height="30" viewBox="0 0 30 30" fill="none" xmlns="http://www.w3.org/2000/svg">
<path d="M8.75 7.75024L8.75 22.2502C8.75 23.6504 8.75 24.3501 9.02248 24.8849C9.26217 25.3553 9.64434 25.7381 10.1147 25.9778C10.649 26.25 11.3487 26.25 12.7461 26.25H17.2539C18.6513 26.25 19.35 26.25 19.8842 25.9778C20.3546 25.7381 20.7381 25.3553 20.9778 24.8849C21.25 24.3506 21.25 23.6519 21.25 22.2545L21.25 7.74614C21.25 6.34874 21.25 5.649 20.9778 5.11475C20.7381 4.64434 20.3546 4.26217 19.8842 4.02248C19.3495 3.75 18.6504 3.75 17.2502 3.75L12.7502 3.75C11.3501 3.75 10.6495 3.75 10.1147 4.02248C9.64434 4.26217 9.26217 4.64434 9.02248 5.11475C8.75 5.64953 8.75 6.35011 8.75 7.75024Z" stroke="#FF8C53" stroke-width="2" stroke-linecap="round" stroke-linejoin="round"/>
</svg>
