<svg width="30" height="30" viewBox="0 0 30 30" fill="none" xmlns="http://www.w3.org/2000/svg">
<path d="M10 5H9.00024C7.60011 5 6.89953 5 6.36475 5.27248C5.89434 5.51217 5.51217 5.89434 5.27248 6.36475C5 6.89953 5 7.60011 5 9.00024L5 21.0002C5 22.4004 5 23.1001 5.27248 23.6349C5.51217 24.1053 5.89434 24.4881 6.36475 24.7278C6.899 25 7.59874 25 8.99614 25H10M10 5L21.0002 5C22.4004 5 23.0995 5 23.6342 5.27248C24.1046 5.51217 24.4881 5.89434 24.7278 6.36475C25 6.899 25 7.59874 25 8.99614L25 21.0045C25 22.4019 25 23.1006 24.7278 23.6349C24.4881 24.1053 24.1046 24.4881 23.6342 24.7278C23.1 25 22.4013 25 21.0039 25L10 25M10 5L10 25M15 13.75H20M15 10L20 10" stroke="#FF8C53" stroke-width="2" stroke-linecap="round" stroke-linejoin="round"/>
</svg>
