<svg width="22" height="21" viewBox="0 0 22 21" fill="none" xmlns="http://www.w3.org/2000/svg">
<path d="M14.75 20L7.25 20M1 12.2502L1 5.25024C1 3.85011 1 3.14953 1.27248 2.61475C1.51217 2.14434 1.89434 1.76217 2.36475 1.52248C2.89953 1.25 3.60011 1.25 5.00024 1.25L17.0002 1.25C18.4004 1.25 19.0995 1.25 19.6342 1.52248C20.1046 1.76217 20.4881 2.14434 20.7278 2.61475C21 3.149 21 3.84874 21 5.24614V12.2539C21 13.6513 21 14.35 20.7278 14.8842C20.4881 15.3546 20.1046 15.7381 19.6342 15.9778C19.1 16.25 18.4013 16.25 17.0039 16.25H4.99614C3.59874 16.25 2.899 16.25 2.36475 15.9778C1.89434 15.7381 1.51217 15.3546 1.27248 14.8842C1 14.3495 1 13.6504 1 12.2502ZM14.125 8.75L8.5 5L8.5 12.5L14.125 8.75Z" stroke="#FF8C53" stroke-width="2" stroke-linecap="round" stroke-linejoin="round"/>
</svg>
