<svg width="195" height="234" viewBox="0 0 195 234" fill="none" xmlns="http://www.w3.org/2000/svg">
<path d="M100.142 16.3052L184.761 87.2704V119.782V165.529L100.142 215.633L9 165.529V87.2704L100.142 16.3052Z" fill="#FBBC05"/>
<path d="M42.4299 166V159H43.2499L46.3899 164.29H45.9499L49.0499 159H49.8699L49.8799 166H48.9199L48.9099 160.51H49.1399L46.3799 165.15H45.9199L43.1399 160.51H43.3899V166H42.4299ZM55.1307 166V164.88L55.0807 164.67V162.76C55.0807 162.353 54.9607 162.04 54.7207 161.82C54.4873 161.593 54.134 161.48 53.6607 161.48C53.3473 161.48 53.0407 161.533 52.7407 161.64C52.4407 161.74 52.1873 161.877 51.9807 162.05L51.5807 161.33C51.854 161.11 52.1807 160.943 52.5607 160.83C52.9473 160.71 53.3507 160.65 53.7707 160.65C54.4973 160.65 55.0573 160.827 55.4507 161.18C55.844 161.533 56.0407 162.073 56.0407 162.8V166H55.1307ZM53.3907 166.06C52.9973 166.06 52.6507 165.993 52.3507 165.86C52.0573 165.727 51.8307 165.543 51.6707 165.31C51.5107 165.07 51.4307 164.8 51.4307 164.5C51.4307 164.213 51.4973 163.953 51.6307 163.72C51.7707 163.487 51.994 163.3 52.3007 163.16C52.614 163.02 53.034 162.95 53.5607 162.95H55.2407V163.64H53.6007C53.1207 163.64 52.7973 163.72 52.6307 163.88C52.464 164.04 52.3807 164.233 52.3807 164.46C52.3807 164.72 52.484 164.93 52.6907 165.09C52.8973 165.243 53.184 165.32 53.5507 165.32C53.9107 165.32 54.224 165.24 54.4907 165.08C54.764 164.92 54.9607 164.687 55.0807 164.38L55.2707 165.04C55.144 165.353 54.9207 165.603 54.6007 165.79C54.2807 165.97 53.8773 166.06 53.3907 166.06ZM57.8172 166V160.7H58.7372V162.14L58.6472 161.78C58.7939 161.413 59.0406 161.133 59.3872 160.94C59.7339 160.747 60.1606 160.65 60.6672 160.65V161.58C60.6272 161.573 60.5872 161.57 60.5472 161.57C60.5139 161.57 60.4806 161.57 60.4472 161.57C59.9339 161.57 59.5272 161.723 59.2272 162.03C58.9272 162.337 58.7772 162.78 58.7772 163.36V166H57.8172ZM62.6304 164.72L62.6504 163.49L65.7004 160.7H66.8604L64.5204 163L64.0004 163.44L62.6304 164.72ZM61.8504 166V158.58H62.8104V166H61.8504ZM65.9004 166L63.8204 163.42L64.4404 162.65L67.0804 166H65.9004ZM70.1577 166.06C69.591 166.06 69.091 165.943 68.6577 165.71C68.231 165.477 67.8977 165.157 67.6577 164.75C67.4244 164.343 67.3077 163.877 67.3077 163.35C67.3077 162.823 67.421 162.357 67.6477 161.95C67.881 161.543 68.1977 161.227 68.5977 161C69.0044 160.767 69.461 160.65 69.9677 160.65C70.481 160.65 70.9344 160.763 71.3277 160.99C71.721 161.217 72.0277 161.537 72.2477 161.95C72.4744 162.357 72.5877 162.833 72.5877 163.38C72.5877 163.42 72.5844 163.467 72.5777 163.52C72.5777 163.573 72.5744 163.623 72.5677 163.67H68.0577V162.98H72.0677L71.6777 163.22C71.6844 162.88 71.6144 162.577 71.4677 162.31C71.321 162.043 71.1177 161.837 70.8577 161.69C70.6044 161.537 70.3077 161.46 69.9677 161.46C69.6344 161.46 69.3377 161.537 69.0777 161.69C68.8177 161.837 68.6144 162.047 68.4677 162.32C68.321 162.587 68.2477 162.893 68.2477 163.24V163.4C68.2477 163.753 68.3277 164.07 68.4877 164.35C68.6544 164.623 68.8844 164.837 69.1777 164.99C69.471 165.143 69.8077 165.22 70.1877 165.22C70.501 165.22 70.7844 165.167 71.0377 165.06C71.2977 164.953 71.5244 164.793 71.7177 164.58L72.2477 165.2C72.0077 165.48 71.7077 165.693 71.3477 165.84C70.9944 165.987 70.5977 166.06 70.1577 166.06ZM75.7407 166.06C75.2074 166.06 74.7941 165.917 74.5007 165.63C74.2074 165.343 74.0607 164.933 74.0607 164.4V159.54H75.0207V164.36C75.0207 164.647 75.0907 164.867 75.2307 165.02C75.3774 165.173 75.5841 165.25 75.8507 165.25C76.1507 165.25 76.4007 165.167 76.6007 165L76.9007 165.69C76.7541 165.817 76.5774 165.91 76.3707 165.97C76.1707 166.03 75.9607 166.06 75.7407 166.06ZM73.1607 161.49V160.7H76.5407V161.49H73.1607ZM78.0614 166V160.7H79.0214V166H78.0614ZM78.5414 159.68C78.3547 159.68 78.198 159.62 78.0714 159.5C77.9514 159.38 77.8914 159.233 77.8914 159.06C77.8914 158.88 77.9514 158.73 78.0714 158.61C78.198 158.49 78.3547 158.43 78.5414 158.43C78.728 158.43 78.8814 158.49 79.0014 158.61C79.128 158.723 79.1914 158.867 79.1914 159.04C79.1914 159.22 79.1314 159.373 79.0114 159.5C78.8914 159.62 78.7347 159.68 78.5414 159.68ZM83.6843 160.65C84.1177 160.65 84.4977 160.733 84.8243 160.9C85.1577 161.067 85.4177 161.32 85.6043 161.66C85.791 162 85.8843 162.43 85.8843 162.95V166H84.9243V163.06C84.9243 162.547 84.7977 162.16 84.5443 161.9C84.2977 161.64 83.9477 161.51 83.4943 161.51C83.1543 161.51 82.8577 161.577 82.6043 161.71C82.351 161.843 82.1543 162.04 82.0143 162.3C81.881 162.56 81.8143 162.883 81.8143 163.27V166H80.8543V160.7H81.7743V162.13L81.6243 161.75C81.7977 161.403 82.0643 161.133 82.4243 160.94C82.7843 160.747 83.2043 160.65 83.6843 160.65ZM89.981 168C89.4943 168 89.021 167.93 88.561 167.79C88.1076 167.657 87.7376 167.463 87.451 167.21L87.911 166.47C88.1576 166.683 88.461 166.85 88.821 166.97C89.181 167.097 89.5576 167.16 89.951 167.16C90.5776 167.16 91.0376 167.013 91.331 166.72C91.6243 166.427 91.771 165.98 91.771 165.38V164.26L91.871 163.21L91.821 162.15V160.7H92.731V165.28C92.731 166.213 92.4976 166.9 92.031 167.34C91.5643 167.78 90.881 168 89.981 168ZM89.861 165.78C89.3476 165.78 88.8876 165.673 88.481 165.46C88.081 165.24 87.761 164.937 87.521 164.55C87.2876 164.163 87.171 163.717 87.171 163.21C87.171 162.697 87.2876 162.25 87.521 161.87C87.761 161.483 88.081 161.183 88.481 160.97C88.8876 160.757 89.3476 160.65 89.861 160.65C90.3143 160.65 90.7276 160.743 91.101 160.93C91.4743 161.11 91.771 161.39 91.991 161.77C92.2176 162.15 92.331 162.63 92.331 163.21C92.331 163.783 92.2176 164.26 91.991 164.64C91.771 165.02 91.4743 165.307 91.101 165.5C90.7276 165.687 90.3143 165.78 89.861 165.78ZM89.971 164.94C90.3243 164.94 90.6376 164.867 90.911 164.72C91.1843 164.573 91.3976 164.37 91.551 164.11C91.711 163.85 91.791 163.55 91.791 163.21C91.791 162.87 91.711 162.57 91.551 162.31C91.3976 162.05 91.1843 161.85 90.911 161.71C90.6376 161.563 90.3243 161.49 89.971 161.49C89.6176 161.49 89.301 161.563 89.021 161.71C88.7476 161.85 88.531 162.05 88.371 162.31C88.2176 162.57 88.141 162.87 88.141 163.21C88.141 163.55 88.2176 163.85 88.371 164.11C88.531 164.37 88.7476 164.573 89.021 164.72C89.301 164.867 89.6176 164.94 89.971 164.94ZM97.3908 166V159H98.3908V165.13H102.181V166H97.3908ZM105.48 166.06C104.913 166.06 104.413 165.943 103.98 165.71C103.553 165.477 103.22 165.157 102.98 164.75C102.747 164.343 102.63 163.877 102.63 163.35C102.63 162.823 102.743 162.357 102.97 161.95C103.203 161.543 103.52 161.227 103.92 161C104.327 160.767 104.783 160.65 105.29 160.65C105.803 160.65 106.257 160.763 106.65 160.99C107.043 161.217 107.35 161.537 107.57 161.95C107.797 162.357 107.91 162.833 107.91 163.38C107.91 163.42 107.907 163.467 107.9 163.52C107.9 163.573 107.897 163.623 107.89 163.67H103.38V162.98H107.39L107 163.22C107.007 162.88 106.937 162.577 106.79 162.31C106.643 162.043 106.44 161.837 106.18 161.69C105.927 161.537 105.63 161.46 105.29 161.46C104.957 161.46 104.66 161.537 104.4 161.69C104.14 161.837 103.937 162.047 103.79 162.32C103.643 162.587 103.57 162.893 103.57 163.24V163.4C103.57 163.753 103.65 164.07 103.81 164.35C103.977 164.623 104.207 164.837 104.5 164.99C104.793 165.143 105.13 165.22 105.51 165.22C105.823 165.22 106.107 165.167 106.36 165.06C106.62 164.953 106.847 164.793 107.04 164.58L107.57 165.2C107.33 165.48 107.03 165.693 106.67 165.84C106.317 165.987 105.92 166.06 105.48 166.06ZM112.387 166V164.88L112.337 164.67V162.76C112.337 162.353 112.217 162.04 111.977 161.82C111.743 161.593 111.39 161.48 110.917 161.48C110.603 161.48 110.297 161.533 109.997 161.64C109.697 161.74 109.443 161.877 109.237 162.05L108.837 161.33C109.11 161.11 109.437 160.943 109.817 160.83C110.203 160.71 110.607 160.65 111.027 160.65C111.753 160.65 112.313 160.827 112.707 161.18C113.1 161.533 113.297 162.073 113.297 162.8V166H112.387ZM110.647 166.06C110.253 166.06 109.907 165.993 109.607 165.86C109.313 165.727 109.087 165.543 108.927 165.31C108.767 165.07 108.687 164.8 108.687 164.5C108.687 164.213 108.753 163.953 108.887 163.72C109.027 163.487 109.25 163.3 109.557 163.16C109.87 163.02 110.29 162.95 110.817 162.95H112.497V163.64H110.857C110.377 163.64 110.053 163.72 109.887 163.88C109.72 164.04 109.637 164.233 109.637 164.46C109.637 164.72 109.74 164.93 109.947 165.09C110.153 165.243 110.44 165.32 110.807 165.32C111.167 165.32 111.48 165.24 111.747 165.08C112.02 164.92 112.217 164.687 112.337 164.38L112.527 165.04C112.4 165.353 112.177 165.603 111.857 165.79C111.537 165.97 111.133 166.06 110.647 166.06ZM117.263 166.06C116.75 166.06 116.29 165.947 115.883 165.72C115.483 165.493 115.166 165.177 114.933 164.77C114.7 164.363 114.583 163.89 114.583 163.35C114.583 162.81 114.7 162.34 114.933 161.94C115.166 161.533 115.483 161.217 115.883 160.99C116.29 160.763 116.75 160.65 117.263 160.65C117.71 160.65 118.113 160.75 118.473 160.95C118.833 161.15 119.12 161.45 119.333 161.85C119.553 162.25 119.663 162.75 119.663 163.35C119.663 163.95 119.556 164.45 119.343 164.85C119.136 165.25 118.853 165.553 118.493 165.76C118.133 165.96 117.723 166.06 117.263 166.06ZM117.343 165.22C117.676 165.22 117.976 165.143 118.243 164.99C118.516 164.837 118.73 164.62 118.883 164.34C119.043 164.053 119.123 163.723 119.123 163.35C119.123 162.97 119.043 162.643 118.883 162.37C118.73 162.09 118.516 161.873 118.243 161.72C117.976 161.567 117.676 161.49 117.343 161.49C117.003 161.49 116.7 161.567 116.433 161.72C116.166 161.873 115.953 162.09 115.793 162.37C115.633 162.643 115.553 162.97 115.553 163.35C115.553 163.723 115.633 164.053 115.793 164.34C115.953 164.62 116.166 164.837 116.433 164.99C116.7 165.143 117.003 165.22 117.343 165.22ZM119.153 166V164.57L119.213 163.34L119.113 162.11V158.58H120.073V166H119.153ZM124.249 166.06C123.683 166.06 123.183 165.943 122.749 165.71C122.323 165.477 121.989 165.157 121.749 164.75C121.516 164.343 121.399 163.877 121.399 163.35C121.399 162.823 121.513 162.357 121.739 161.95C121.973 161.543 122.289 161.227 122.689 161C123.096 160.767 123.553 160.65 124.059 160.65C124.573 160.65 125.026 160.763 125.419 160.99C125.813 161.217 126.119 161.537 126.339 161.95C126.566 162.357 126.679 162.833 126.679 163.38C126.679 163.42 126.676 163.467 126.669 163.52C126.669 163.573 126.666 163.623 126.659 163.67H122.149V162.98H126.159L125.769 163.22C125.776 162.88 125.706 162.577 125.559 162.31C125.413 162.043 125.209 161.837 124.949 161.69C124.696 161.537 124.399 161.46 124.059 161.46C123.726 161.46 123.429 161.537 123.169 161.69C122.909 161.837 122.706 162.047 122.559 162.32C122.413 162.587 122.339 162.893 122.339 163.24V163.4C122.339 163.753 122.419 164.07 122.579 164.35C122.746 164.623 122.976 164.837 123.269 164.99C123.563 165.143 123.899 165.22 124.279 165.22C124.593 165.22 124.876 165.167 125.129 165.06C125.389 164.953 125.616 164.793 125.809 164.58L126.339 165.2C126.099 165.48 125.799 165.693 125.439 165.84C125.086 165.987 124.689 166.06 124.249 166.06ZM128.013 166V160.7H128.933V162.14L128.843 161.78C128.989 161.413 129.236 161.133 129.583 160.94C129.929 160.747 130.356 160.65 130.863 160.65V161.58C130.823 161.573 130.783 161.57 130.743 161.57C130.709 161.57 130.676 161.57 130.643 161.57C130.129 161.57 129.723 161.723 129.423 162.03C129.123 162.337 128.973 162.78 128.973 163.36V166H128.013ZM133.624 166.06C133.184 166.06 132.764 166 132.364 165.88C131.971 165.76 131.661 165.613 131.434 165.44L131.834 164.68C132.061 164.833 132.341 164.963 132.674 165.07C133.008 165.177 133.348 165.23 133.694 165.23C134.141 165.23 134.461 165.167 134.654 165.04C134.854 164.913 134.954 164.737 134.954 164.51C134.954 164.343 134.894 164.213 134.774 164.12C134.654 164.027 134.494 163.957 134.294 163.91C134.101 163.863 133.884 163.823 133.644 163.79C133.404 163.75 133.164 163.703 132.924 163.65C132.684 163.59 132.464 163.51 132.264 163.41C132.064 163.303 131.904 163.16 131.784 162.98C131.664 162.793 131.604 162.547 131.604 162.24C131.604 161.92 131.694 161.64 131.874 161.4C132.054 161.16 132.308 160.977 132.634 160.85C132.968 160.717 133.361 160.65 133.814 160.65C134.161 160.65 134.511 160.693 134.864 160.78C135.224 160.86 135.518 160.977 135.744 161.13L135.334 161.89C135.094 161.73 134.844 161.62 134.584 161.56C134.324 161.5 134.064 161.47 133.804 161.47C133.384 161.47 133.071 161.54 132.864 161.68C132.658 161.813 132.554 161.987 132.554 162.2C132.554 162.38 132.614 162.52 132.734 162.62C132.861 162.713 133.021 162.787 133.214 162.84C133.414 162.893 133.634 162.94 133.874 162.98C134.114 163.013 134.354 163.06 134.594 163.12C134.834 163.173 135.051 163.25 135.244 163.35C135.444 163.45 135.604 163.59 135.724 163.77C135.851 163.95 135.914 164.19 135.914 164.49C135.914 164.81 135.821 165.087 135.634 165.32C135.448 165.553 135.184 165.737 134.844 165.87C134.504 165.997 134.098 166.06 133.624 166.06ZM139.944 160.65C140.377 160.65 140.757 160.733 141.084 160.9C141.417 161.067 141.677 161.32 141.864 161.66C142.051 162 142.144 162.43 142.144 162.95V166H141.184V163.06C141.184 162.547 141.057 162.16 140.804 161.9C140.557 161.64 140.207 161.51 139.754 161.51C139.414 161.51 139.117 161.577 138.864 161.71C138.611 161.843 138.414 162.04 138.274 162.3C138.141 162.56 138.074 162.883 138.074 163.27V166H137.114V158.58H138.074V162.13L137.884 161.75C138.057 161.403 138.324 161.133 138.684 160.94C139.044 160.747 139.464 160.65 139.944 160.65ZM143.921 166V160.7H144.881V166H143.921ZM144.401 159.68C144.214 159.68 144.057 159.62 143.931 159.5C143.811 159.38 143.751 159.233 143.751 159.06C143.751 158.88 143.811 158.73 143.931 158.61C144.057 158.49 144.214 158.43 144.401 158.43C144.587 158.43 144.741 158.49 144.861 158.61C144.987 158.723 145.051 158.867 145.051 159.04C145.051 159.22 144.991 159.373 144.871 159.5C144.751 159.62 144.594 159.68 144.401 159.68ZM149.524 166.06C149.084 166.06 148.68 165.96 148.314 165.76C147.954 165.553 147.664 165.25 147.444 164.85C147.23 164.45 147.124 163.95 147.124 163.35C147.124 162.75 147.227 162.25 147.434 161.85C147.647 161.45 147.934 161.15 148.294 160.95C148.66 160.75 149.07 160.65 149.524 160.65C150.044 160.65 150.504 160.763 150.904 160.99C151.304 161.217 151.62 161.533 151.854 161.94C152.087 162.34 152.204 162.81 152.204 163.35C152.204 163.89 152.087 164.363 151.854 164.77C151.62 165.177 151.304 165.493 150.904 165.72C150.504 165.947 150.044 166.06 149.524 166.06ZM146.714 167.94V160.7H147.634V162.13L147.574 163.36L147.674 164.59V167.94H146.714ZM149.444 165.22C149.784 165.22 150.087 165.143 150.354 164.99C150.627 164.837 150.84 164.62 150.994 164.34C151.154 164.053 151.234 163.723 151.234 163.35C151.234 162.97 151.154 162.643 150.994 162.37C150.84 162.09 150.627 161.873 150.354 161.72C150.087 161.567 149.784 161.49 149.444 161.49C149.11 161.49 148.807 161.567 148.534 161.72C148.267 161.873 148.054 162.09 147.894 162.37C147.74 162.643 147.664 162.97 147.664 163.35C147.664 163.723 147.74 164.053 147.894 164.34C148.054 164.62 148.267 164.837 148.534 164.99C148.807 165.143 149.11 165.22 149.444 165.22ZM74.9788 186.08C74.4455 186.08 73.9522 185.993 73.4988 185.82C73.0522 185.64 72.6622 185.39 72.3288 185.07C72.0022 184.743 71.7455 184.363 71.5588 183.93C71.3722 183.497 71.2788 183.02 71.2788 182.5C71.2788 181.98 71.3722 181.503 71.5588 181.07C71.7455 180.637 72.0055 180.26 72.3388 179.94C72.6722 179.613 73.0622 179.363 73.5088 179.19C73.9622 179.01 74.4555 178.92 74.9888 178.92C75.5288 178.92 76.0255 179.013 76.4788 179.2C76.9388 179.38 77.3288 179.65 77.6488 180.01L76.9988 180.64C76.7322 180.36 76.4322 180.153 76.0988 180.02C75.7655 179.88 75.4088 179.81 75.0288 179.81C74.6355 179.81 74.2688 179.877 73.9288 180.01C73.5955 180.143 73.3055 180.33 73.0588 180.57C72.8122 180.81 72.6188 181.097 72.4788 181.43C72.3455 181.757 72.2788 182.113 72.2788 182.5C72.2788 182.887 72.3455 183.247 72.4788 183.58C72.6188 183.907 72.8122 184.19 73.0588 184.43C73.3055 184.67 73.5955 184.857 73.9288 184.99C74.2688 185.123 74.6355 185.19 75.0288 185.19C75.4088 185.19 75.7655 185.123 76.0988 184.99C76.4322 184.85 76.7322 184.637 76.9988 184.35L77.6488 184.98C77.3288 185.34 76.9388 185.613 76.4788 185.8C76.0255 185.987 75.5255 186.08 74.9788 186.08ZM81.0708 186.06C80.5041 186.06 80.0041 185.943 79.5708 185.71C79.1441 185.477 78.8108 185.157 78.5708 184.75C78.3374 184.343 78.2208 183.877 78.2208 183.35C78.2208 182.823 78.3341 182.357 78.5608 181.95C78.7941 181.543 79.1108 181.227 79.5108 181C79.9174 180.767 80.3741 180.65 80.8808 180.65C81.3941 180.65 81.8474 180.763 82.2408 180.99C82.6341 181.217 82.9408 181.537 83.1608 181.95C83.3874 182.357 83.5008 182.833 83.5008 183.38C83.5008 183.42 83.4974 183.467 83.4908 183.52C83.4908 183.573 83.4874 183.623 83.4808 183.67H78.9708V182.98H82.9808L82.5908 183.22C82.5974 182.88 82.5274 182.577 82.3808 182.31C82.2341 182.043 82.0308 181.837 81.7708 181.69C81.5174 181.537 81.2208 181.46 80.8808 181.46C80.5474 181.46 80.2508 181.537 79.9908 181.69C79.7308 181.837 79.5274 182.047 79.3808 182.32C79.2341 182.587 79.1608 182.893 79.1608 183.24V183.4C79.1608 183.753 79.2408 184.07 79.4008 184.35C79.5674 184.623 79.7974 184.837 80.0908 184.99C80.3841 185.143 80.7208 185.22 81.1008 185.22C81.4141 185.22 81.6974 185.167 81.9508 185.06C82.2108 184.953 82.4374 184.793 82.6308 184.58L83.1608 185.2C82.9208 185.48 82.6208 185.693 82.2608 185.84C81.9074 185.987 81.5108 186.06 81.0708 186.06ZM84.8338 186V180.7H85.7538V182.14L85.6638 181.78C85.8105 181.413 86.0572 181.133 86.4038 180.94C86.7505 180.747 87.1772 180.65 87.6838 180.65V181.58C87.6438 181.573 87.6038 181.57 87.5638 181.57C87.5305 181.57 87.4972 181.57 87.4638 181.57C86.9505 181.57 86.5438 181.723 86.2438 182.03C85.9438 182.337 85.7938 182.78 85.7938 183.36V186H84.8338ZM90.9019 186.06C90.3685 186.06 89.9552 185.917 89.6619 185.63C89.3685 185.343 89.2219 184.933 89.2219 184.4V179.54H90.1819V184.36C90.1819 184.647 90.2519 184.867 90.3919 185.02C90.5385 185.173 90.7452 185.25 91.0119 185.25C91.3119 185.25 91.5619 185.167 91.7619 185L92.0619 185.69C91.9152 185.817 91.7385 185.91 91.5319 185.97C91.3319 186.03 91.1219 186.06 90.9019 186.06ZM88.3219 181.49V180.7H91.7019V181.49H88.3219ZM93.2225 186V180.7H94.1825V186H93.2225ZM93.7025 179.68C93.5158 179.68 93.3592 179.62 93.2325 179.5C93.1125 179.38 93.0525 179.233 93.0525 179.06C93.0525 178.88 93.1125 178.73 93.2325 178.61C93.3592 178.49 93.5158 178.43 93.7025 178.43C93.8892 178.43 94.0425 178.49 94.1625 178.61C94.2892 178.723 94.3525 178.867 94.3525 179.04C94.3525 179.22 94.2925 179.373 94.1725 179.5C94.0525 179.62 93.8958 179.68 93.7025 179.68ZM96.1555 186V180.23C96.1555 179.71 96.3055 179.297 96.6055 178.99C96.9121 178.677 97.3455 178.52 97.9055 178.52C98.1121 178.52 98.3088 178.547 98.4955 178.6C98.6888 178.647 98.8521 178.723 98.9855 178.83L98.6955 179.56C98.5955 179.48 98.4821 179.42 98.3555 179.38C98.2288 179.333 98.0955 179.31 97.9555 179.31C97.6755 179.31 97.4621 179.39 97.3155 179.55C97.1688 179.703 97.0955 179.933 97.0955 180.24V180.95L97.1155 181.39V186H96.1555ZM95.2555 181.49V180.7H98.6355V181.49H95.2555ZM99.5455 186V180.7H100.505V186H99.5455ZM100.025 179.68C99.8388 179.68 99.6821 179.62 99.5555 179.5C99.4355 179.38 99.3755 179.233 99.3755 179.06C99.3755 178.88 99.4355 178.73 99.5555 178.61C99.6821 178.49 99.8388 178.43 100.025 178.43C100.212 178.43 100.365 178.49 100.485 178.61C100.612 178.723 100.675 178.867 100.675 179.04C100.675 179.22 100.615 179.373 100.495 179.5C100.375 179.62 100.219 179.68 100.025 179.68ZM104.644 186.06C104.104 186.06 103.62 185.943 103.194 185.71C102.774 185.477 102.444 185.157 102.204 184.75C101.964 184.343 101.844 183.877 101.844 183.35C101.844 182.823 101.964 182.357 102.204 181.95C102.444 181.543 102.774 181.227 103.194 181C103.62 180.767 104.104 180.65 104.644 180.65C105.124 180.65 105.55 180.747 105.924 180.94C106.304 181.127 106.597 181.407 106.804 181.78L106.074 182.25C105.9 181.99 105.687 181.8 105.434 181.68C105.187 181.553 104.92 181.49 104.634 181.49C104.287 181.49 103.977 181.567 103.704 181.72C103.43 181.873 103.214 182.09 103.054 182.37C102.894 182.643 102.814 182.97 102.814 183.35C102.814 183.73 102.894 184.06 103.054 184.34C103.214 184.62 103.43 184.837 103.704 184.99C103.977 185.143 104.287 185.22 104.634 185.22C104.92 185.22 105.187 185.16 105.434 185.04C105.687 184.913 105.9 184.72 106.074 184.46L106.804 184.92C106.597 185.287 106.304 185.57 105.924 185.77C105.55 185.963 105.124 186.06 104.644 186.06ZM111.337 186V184.88L111.287 184.67V182.76C111.287 182.353 111.167 182.04 110.927 181.82C110.693 181.593 110.34 181.48 109.867 181.48C109.553 181.48 109.247 181.533 108.947 181.64C108.647 181.74 108.393 181.877 108.187 182.05L107.787 181.33C108.06 181.11 108.387 180.943 108.767 180.83C109.153 180.71 109.557 180.65 109.977 180.65C110.703 180.65 111.263 180.827 111.657 181.18C112.05 181.533 112.247 182.073 112.247 182.8V186H111.337ZM109.597 186.06C109.203 186.06 108.857 185.993 108.557 185.86C108.263 185.727 108.037 185.543 107.877 185.31C107.717 185.07 107.637 184.8 107.637 184.5C107.637 184.213 107.703 183.953 107.837 183.72C107.977 183.487 108.2 183.3 108.507 183.16C108.82 183.02 109.24 182.95 109.767 182.95H111.447V183.64H109.807C109.327 183.64 109.003 183.72 108.837 183.88C108.67 184.04 108.587 184.233 108.587 184.46C108.587 184.72 108.69 184.93 108.897 185.09C109.103 185.243 109.39 185.32 109.757 185.32C110.117 185.32 110.43 185.24 110.697 185.08C110.97 184.92 111.167 184.687 111.287 184.38L111.477 185.04C111.35 185.353 111.127 185.603 110.807 185.79C110.487 185.97 110.083 186.06 109.597 186.06ZM115.843 186.06C115.31 186.06 114.897 185.917 114.603 185.63C114.31 185.343 114.163 184.933 114.163 184.4V179.54H115.123V184.36C115.123 184.647 115.193 184.867 115.333 185.02C115.48 185.173 115.687 185.25 115.953 185.25C116.253 185.25 116.503 185.167 116.703 185L117.003 185.69C116.857 185.817 116.68 185.91 116.473 185.97C116.273 186.03 116.063 186.06 115.843 186.06ZM113.263 181.49V180.7H116.643V181.49H113.263ZM120.348 186.06C119.781 186.06 119.281 185.943 118.848 185.71C118.421 185.477 118.088 185.157 117.848 184.75C117.615 184.343 117.498 183.877 117.498 183.35C117.498 182.823 117.611 182.357 117.838 181.95C118.071 181.543 118.388 181.227 118.788 181C119.195 180.767 119.651 180.65 120.158 180.65C120.671 180.65 121.125 180.763 121.518 180.99C121.911 181.217 122.218 181.537 122.438 181.95C122.665 182.357 122.778 182.833 122.778 183.38C122.778 183.42 122.775 183.467 122.768 183.52C122.768 183.573 122.765 183.623 122.758 183.67H118.248V182.98H122.258L121.868 183.22C121.875 182.88 121.805 182.577 121.658 182.31C121.511 182.043 121.308 181.837 121.048 181.69C120.795 181.537 120.498 181.46 120.158 181.46C119.825 181.46 119.528 181.537 119.268 181.69C119.008 181.837 118.805 182.047 118.658 182.32C118.511 182.587 118.438 182.893 118.438 183.24V183.4C118.438 183.753 118.518 184.07 118.678 184.35C118.845 184.623 119.075 184.837 119.368 184.99C119.661 185.143 119.998 185.22 120.378 185.22C120.691 185.22 120.975 185.167 121.228 185.06C121.488 184.953 121.715 184.793 121.908 184.58L122.438 185.2C122.198 185.48 121.898 185.693 121.538 185.84C121.185 185.987 120.788 186.06 120.348 186.06Z" fill="black"/>
<path d="M81.6171 142V130.8H86.7051C87.9211 130.8 88.9931 131.035 89.9211 131.504C90.8491 131.963 91.5744 132.608 92.0971 133.44C92.6197 134.272 92.8811 135.259 92.8811 136.4C92.8811 137.531 92.6197 138.517 92.0971 139.36C91.5744 140.192 90.8491 140.843 89.9211 141.312C88.9931 141.771 87.9211 142 86.7051 142H81.6171ZM84.2091 139.872H86.5771C87.3237 139.872 87.9691 139.733 88.5131 139.456C89.0677 139.168 89.4944 138.763 89.7931 138.24C90.1024 137.717 90.2571 137.104 90.2571 136.4C90.2571 135.685 90.1024 135.072 89.7931 134.56C89.4944 134.037 89.0677 133.637 88.5131 133.36C87.9691 133.072 87.3237 132.928 86.5771 132.928H84.2091V139.872ZM94.8358 142V130.8H97.4278V139.888H103.044V142H94.8358ZM109.665 142.192C108.801 142.192 107.995 142.053 107.249 141.776C106.513 141.488 105.873 141.083 105.329 140.56C104.785 140.037 104.358 139.424 104.049 138.72C103.75 138.016 103.601 137.243 103.601 136.4C103.601 135.557 103.75 134.784 104.049 134.08C104.358 133.376 104.785 132.763 105.329 132.24C105.883 131.717 106.529 131.317 107.265 131.04C108.001 130.752 108.806 130.608 109.681 130.608C110.651 130.608 111.526 130.779 112.305 131.12C113.094 131.451 113.755 131.941 114.289 132.592L112.625 134.128C112.241 133.691 111.814 133.365 111.345 133.152C110.875 132.928 110.363 132.816 109.809 132.816C109.286 132.816 108.806 132.901 108.369 133.072C107.931 133.243 107.553 133.488 107.233 133.808C106.913 134.128 106.662 134.507 106.481 134.944C106.31 135.381 106.225 135.867 106.225 136.4C106.225 136.933 106.31 137.419 106.481 137.856C106.662 138.293 106.913 138.672 107.233 138.992C107.553 139.312 107.931 139.557 108.369 139.728C108.806 139.899 109.286 139.984 109.809 139.984C110.363 139.984 110.875 139.877 111.345 139.664C111.814 139.44 112.241 139.104 112.625 138.656L114.289 140.192C113.755 140.843 113.094 141.339 112.305 141.68C111.526 142.021 110.646 142.192 109.665 142.192Z" fill="black"/>
<path d="M71.0627 64.8H73.6547V76H71.0627V64.8ZM65.9747 76H63.3827V64.8H65.9747V76ZM71.2547 71.408H65.7827V69.216H71.2547V71.408ZM81.4086 76V74.32L81.2486 73.952V70.944C81.2486 70.4107 81.0832 69.9947 80.7526 69.696C80.4326 69.3973 79.9366 69.248 79.2646 69.248C78.8059 69.248 78.3526 69.3227 77.9046 69.472C77.4672 69.6107 77.0939 69.8027 76.7846 70.048L75.8886 68.304C76.3579 67.9733 76.9232 67.7173 77.5846 67.536C78.2459 67.3547 78.9179 67.264 79.6006 67.264C80.9126 67.264 81.9312 67.5733 82.6566 68.192C83.3819 68.8107 83.7446 69.776 83.7446 71.088V76H81.4086ZM78.7846 76.128C78.1126 76.128 77.5366 76.016 77.0566 75.792C76.5766 75.5573 76.2086 75.2427 75.9526 74.848C75.6966 74.4533 75.5686 74.0107 75.5686 73.52C75.5686 73.008 75.6912 72.56 75.9366 72.176C76.1926 71.792 76.5926 71.4933 77.1366 71.28C77.6806 71.056 78.3899 70.944 79.2646 70.944H81.5526V72.4H79.5366C78.9499 72.4 78.5446 72.496 78.3206 72.688C78.1072 72.88 78.0006 73.12 78.0006 73.408C78.0006 73.728 78.1232 73.984 78.3686 74.176C78.6246 74.3573 78.9712 74.448 79.4086 74.448C79.8246 74.448 80.1979 74.352 80.5286 74.16C80.8592 73.9573 81.0992 73.664 81.2486 73.28L81.6326 74.432C81.4512 74.9867 81.1206 75.408 80.6406 75.696C80.1606 75.984 79.5419 76.128 78.7846 76.128ZM90.3381 76.128C89.3567 76.128 88.4927 75.936 87.7461 75.552C87.0101 75.168 86.4394 74.6453 86.0341 73.984C85.6287 73.312 85.4261 72.5493 85.4261 71.696C85.4261 70.832 85.6234 70.0693 86.0181 69.408C86.4234 68.736 86.9727 68.2133 87.6661 67.84C88.3594 67.456 89.1434 67.264 90.0181 67.264C90.8607 67.264 91.6181 67.4453 92.2901 67.808C92.9727 68.16 93.5114 68.672 93.9061 69.344C94.3007 70.0053 94.4981 70.8 94.4981 71.728C94.4981 71.824 94.4927 71.936 94.4821 72.064C94.4714 72.1813 94.4607 72.2933 94.4501 72.4H87.4581V70.944H93.1381L92.1781 71.376C92.1781 70.928 92.0874 70.5387 91.9061 70.208C91.7247 69.8773 91.4741 69.6213 91.1541 69.44C90.8341 69.248 90.4607 69.152 90.0341 69.152C89.6074 69.152 89.2287 69.248 88.8981 69.44C88.5781 69.6213 88.3274 69.8827 88.1461 70.224C87.9647 70.5547 87.8741 70.9493 87.8741 71.408V71.792C87.8741 72.2613 87.9754 72.6773 88.1781 73.04C88.3914 73.392 88.6847 73.664 89.0581 73.856C89.4421 74.0373 89.8901 74.128 90.4021 74.128C90.8607 74.128 91.2607 74.0587 91.6021 73.92C91.9541 73.7813 92.2741 73.5733 92.5621 73.296L93.8901 74.736C93.4954 75.184 92.9994 75.5307 92.4021 75.776C91.8047 76.0107 91.1167 76.128 90.3381 76.128ZM96.1598 76V64.128H98.6558V76H96.1598ZM103.868 76.128C103.132 76.128 102.423 76.0427 101.74 75.872C101.068 75.6907 100.535 75.4667 100.14 75.2L100.972 73.408C101.367 73.6533 101.831 73.856 102.364 74.016C102.908 74.1653 103.442 74.24 103.964 74.24C104.54 74.24 104.946 74.1707 105.18 74.032C105.426 73.8933 105.548 73.7013 105.548 73.456C105.548 73.2533 105.452 73.104 105.26 73.008C105.079 72.9013 104.834 72.8213 104.524 72.768C104.215 72.7147 103.874 72.6613 103.5 72.608C103.138 72.5547 102.77 72.4853 102.396 72.4C102.023 72.304 101.682 72.1653 101.372 71.984C101.063 71.8027 100.812 71.5573 100.62 71.248C100.439 70.9387 100.348 70.5387 100.348 70.048C100.348 69.504 100.503 69.024 100.812 68.608C101.132 68.192 101.591 67.8667 102.188 67.632C102.786 67.3867 103.5 67.264 104.332 67.264C104.919 67.264 105.516 67.328 106.124 67.456C106.732 67.584 107.239 67.7707 107.644 68.016L106.812 69.792C106.396 69.5467 105.975 69.3813 105.548 69.296C105.132 69.2 104.727 69.152 104.332 69.152C103.778 69.152 103.372 69.2267 103.116 69.376C102.86 69.5253 102.732 69.7173 102.732 69.952C102.732 70.1653 102.823 70.3253 103.004 70.432C103.196 70.5387 103.447 70.624 103.756 70.688C104.066 70.752 104.402 70.8107 104.764 70.864C105.138 70.9067 105.511 70.976 105.884 71.072C106.258 71.168 106.594 71.3067 106.892 71.488C107.202 71.6587 107.452 71.8987 107.644 72.208C107.836 72.5067 107.932 72.9013 107.932 73.392C107.932 73.9253 107.772 74.4 107.452 74.816C107.132 75.2213 106.668 75.5413 106.06 75.776C105.463 76.0107 104.732 76.128 103.868 76.128ZM113.568 76.128C112.651 76.128 111.835 75.936 111.12 75.552C110.416 75.168 109.856 74.6453 109.44 73.984C109.035 73.312 108.832 72.5493 108.832 71.696C108.832 70.832 109.035 70.0693 109.44 69.408C109.856 68.736 110.416 68.2133 111.12 67.84C111.835 67.456 112.651 67.264 113.568 67.264C114.475 67.264 115.286 67.456 116 67.84C116.715 68.2133 117.275 68.7307 117.68 69.392C118.086 70.0533 118.288 70.8213 118.288 71.696C118.288 72.5493 118.086 73.312 117.68 73.984C117.275 74.6453 116.715 75.168 116 75.552C115.286 75.936 114.475 76.128 113.568 76.128ZM113.568 74.08C113.984 74.08 114.358 73.984 114.688 73.792C115.019 73.6 115.28 73.328 115.472 72.976C115.664 72.6133 115.76 72.1867 115.76 71.696C115.76 71.1947 115.664 70.768 115.472 70.416C115.28 70.064 115.019 69.792 114.688 69.6C114.358 69.408 113.984 69.312 113.568 69.312C113.152 69.312 112.779 69.408 112.448 69.6C112.118 69.792 111.851 70.064 111.648 70.416C111.456 70.768 111.36 71.1947 111.36 71.696C111.36 72.1867 111.456 72.6133 111.648 72.976C111.851 73.328 112.118 73.6 112.448 73.792C112.779 73.984 113.152 74.08 113.568 74.08ZM120.261 76V67.2C120.261 66.2293 120.549 65.456 121.125 64.88C121.701 64.2933 122.522 64 123.589 64C123.951 64 124.298 64.0373 124.629 64.112C124.97 64.1867 125.258 64.304 125.493 64.464L124.837 66.272C124.698 66.176 124.543 66.1013 124.373 66.048C124.202 65.9947 124.021 65.968 123.829 65.968C123.466 65.968 123.183 66.0747 122.981 66.288C122.789 66.4907 122.693 66.8 122.693 67.216V68.016L122.757 69.088V76H120.261ZM118.933 69.504V67.584H124.901V69.504H118.933ZM129.664 76.128C128.651 76.128 127.862 75.872 127.296 75.36C126.731 74.8373 126.448 74.064 126.448 73.04V65.488H128.944V73.008C128.944 73.3707 129.04 73.6533 129.232 73.856C129.424 74.048 129.686 74.144 130.016 74.144C130.411 74.144 130.747 74.0373 131.024 73.824L131.696 75.584C131.44 75.7653 131.131 75.904 130.768 76C130.416 76.0853 130.048 76.128 129.664 76.128ZM125.12 69.504V67.584H131.088V69.504H125.12ZM41.1646 106.192C40.3006 106.192 39.4952 106.053 38.7486 105.776C38.0126 105.488 37.3726 105.083 36.8286 104.56C36.2846 104.037 35.8579 103.424 35.5486 102.72C35.2499 102.016 35.1006 101.243 35.1006 100.4C35.1006 99.5573 35.2499 98.784 35.5486 98.08C35.8579 97.376 36.2846 96.7627 36.8286 96.24C37.3832 95.7173 38.0286 95.3173 38.7646 95.04C39.5006 94.752 40.3059 94.608 41.1806 94.608C42.1512 94.608 43.0259 94.7787 43.8046 95.12C44.5939 95.4507 45.2552 95.9413 45.7886 96.592L44.1246 98.128C43.7406 97.6907 43.3139 97.3653 42.8446 97.152C42.3752 96.928 41.8632 96.816 41.3086 96.816C40.7859 96.816 40.3059 96.9013 39.8686 97.072C39.4312 97.2427 39.0526 97.488 38.7326 97.808C38.4126 98.128 38.1619 98.5067 37.9806 98.944C37.8099 99.3813 37.7246 99.8667 37.7246 100.4C37.7246 100.933 37.8099 101.419 37.9806 101.856C38.1619 102.293 38.4126 102.672 38.7326 102.992C39.0526 103.312 39.4312 103.557 39.8686 103.728C40.3059 103.899 40.7859 103.984 41.3086 103.984C41.8632 103.984 42.3752 103.877 42.8446 103.664C43.3139 103.44 43.7406 103.104 44.1246 102.656L45.7886 104.192C45.2552 104.843 44.5939 105.339 43.8046 105.68C43.0259 106.021 42.1459 106.192 41.1646 106.192ZM54.4542 99.312H59.8462V101.328H54.4542V99.312ZM54.6462 103.92H60.7422V106H52.0702V94.8H60.5342V96.88H54.6462V103.92ZM67.3358 106V94.8H72.1838C73.1865 94.8 74.0505 94.9653 74.7758 95.296C75.5011 95.616 76.0611 96.08 76.4558 96.688C76.8505 97.296 77.0478 98.0213 77.0478 98.864C77.0478 99.696 76.8505 100.416 76.4558 101.024C76.0611 101.621 75.5011 102.08 74.7758 102.4C74.0505 102.72 73.1865 102.88 72.1838 102.88H68.7758L69.9278 101.744V106H67.3358ZM74.4558 106L71.6558 101.936H74.4238L77.2558 106H74.4558ZM69.9278 102.032L68.7758 100.816H72.0398C72.8398 100.816 73.4371 100.645 73.8318 100.304C74.2265 99.952 74.4238 99.472 74.4238 98.864C74.4238 98.2453 74.2265 97.7653 73.8318 97.424C73.4371 97.0827 72.8398 96.912 72.0398 96.912H68.7758L69.9278 95.68V102.032ZM85.9527 106V96.912H82.3687V94.8H92.1287V96.912H88.5447V106H85.9527ZM98.0546 106V94.8H100.647V106H98.0546ZM110.236 99.84H115.612V101.92H110.236V99.84ZM110.428 106H107.836V94.8H116.3V96.88H110.428V106ZM122.586 106V94.8H125.178V106H122.586ZM134.751 99.312H140.143V101.328H134.751V99.312ZM134.943 103.92H141.039V106H132.367V94.8H140.831V96.88H134.943V103.92ZM147.633 106V94.8H152.721C153.937 94.8 155.009 95.0347 155.937 95.504C156.865 95.9627 157.59 96.608 158.113 97.44C158.635 98.272 158.897 99.2587 158.897 100.4C158.897 101.531 158.635 102.517 158.113 103.36C157.59 104.192 156.865 104.843 155.937 105.312C155.009 105.771 153.937 106 152.721 106H147.633ZM150.225 103.872H152.593C153.339 103.872 153.985 103.733 154.529 103.456C155.083 103.168 155.51 102.763 155.809 102.24C156.118 101.717 156.273 101.104 156.273 100.4C156.273 99.6853 156.118 99.072 155.809 98.56C155.51 98.0373 155.083 97.6373 154.529 97.36C153.985 97.072 153.339 96.928 152.593 96.928H150.225V103.872Z" fill="black"/>
<path d="M1 79.8902L101.095 1.28988L194 79.8679V115.781V166.454L101.097 232.786L1 166.432V79.8902Z" stroke="#F1C118" stroke-width="2"/>
<line x1="37" y1="116.5" x2="165" y2="116.5" stroke="#201A18"/>
</svg>
