<svg width="20" height="21" viewBox="0 0 20 21" fill="none" xmlns="http://www.w3.org/2000/svg">
<path d="M3.121 16.304C5.21942 15.1179 7.58958 14.4963 10 14.5C12.5 14.5 14.847 15.155 16.879 16.304M13 8.5C13 9.29565 12.6839 10.0587 12.1213 10.6213C11.5587 11.1839 10.7956 11.5 10 11.5C9.20435 11.5 8.44129 11.1839 7.87868 10.6213C7.31607 10.0587 7 9.29565 7 8.5C7 7.70435 7.31607 6.94129 7.87868 6.37868C8.44129 5.81607 9.20435 5.5 10 5.5C10.7956 5.5 11.5587 5.81607 12.1213 6.37868C12.6839 6.94129 13 7.70435 13 8.5ZM19 10.5C19 11.6819 18.7672 12.8522 18.3149 13.9442C17.8626 15.0361 17.1997 16.0282 16.364 16.864C15.5282 17.6997 14.5361 18.3626 13.4442 18.8149C12.3522 19.2672 11.1819 19.5 10 19.5C8.8181 19.5 7.64778 19.2672 6.55585 18.8149C5.46392 18.3626 4.47177 17.6997 3.63604 16.864C2.80031 16.0282 2.13738 15.0361 1.68508 13.9442C1.23279 12.8522 1 11.6819 1 10.5C1 8.11305 1.94821 5.82387 3.63604 4.13604C5.32387 2.44821 7.61305 1.5 10 1.5C12.3869 1.5 14.6761 2.44821 16.364 4.13604C18.0518 5.82387 19 8.11305 19 10.5Z" stroke="#655D59" stroke-width="2" stroke-linecap="round" stroke-linejoin="round"/>
</svg>
