<svg width="50" height="50" viewBox="0 0 50 50" fill="none" xmlns="http://www.w3.org/2000/svg">
<path d="M31.2502 35.4167V37.5C31.2502 40.9518 28.4519 43.75 25.0002 43.75C21.5484 43.75 18.7502 40.9518 18.7502 37.5V35.4167M31.2502 35.4167H18.7502M31.2502 35.4167H38.7304C39.5273 35.4167 39.9277 35.4167 40.2504 35.3078C40.8667 35.0999 41.3491 34.6159 41.557 33.9995C41.6662 33.6756 41.6662 33.274 41.6662 32.4707C41.6662 32.1192 41.6658 31.9435 41.6383 31.7759C41.5864 31.4593 41.4635 31.159 41.2763 30.8984C41.1774 30.7606 41.0517 30.6349 40.8039 30.3871L39.9924 29.5756C39.7306 29.3138 39.5835 28.9586 39.5835 28.5883V20.8333C39.5835 12.7792 33.0543 6.24998 25.0002 6.25C16.946 6.25002 10.4168 12.7792 10.4168 20.8333V28.5884C10.4168 28.9587 10.2694 29.3138 10.0076 29.5756L9.19613 30.3871C8.94757 30.6356 8.82317 30.7605 8.72412 30.8984C8.53695 31.1591 8.41297 31.4592 8.361 31.7759C8.3335 31.9435 8.3335 32.1192 8.3335 32.4707C8.3335 33.274 8.3335 33.6755 8.44277 33.9995C8.65068 34.6159 9.13516 35.0999 9.75155 35.3078C10.0742 35.4167 10.4731 35.4167 11.2701 35.4167H18.7502" stroke="#F36400" stroke-width="2" stroke-linecap="round" stroke-linejoin="round"/>
</svg>
