<svg width="26" height="26" viewBox="0 0 26 26" fill="none" xmlns="http://www.w3.org/2000/svg">
<path d="M16.75 10.5L11.75 15.5L9.25 13M7.16467 2.92188L2.92187 7.16467L2.91802 7.16828C2.48821 7.59809 2.2728 7.81351 2.11865 8.06505C1.98158 8.28873 1.88032 8.53287 1.81908 8.78796C1.75 9.07568 1.75 9.38132 1.75 9.9928L1.75 16.0072C1.75 16.6187 1.75 16.9244 1.81908 17.2121C1.88032 17.4672 1.98158 17.711 2.11865 17.9347C2.27321 18.1869 2.48977 18.4035 2.92187 18.8356L7.16466 23.0784C7.59704 23.5107 7.81276 23.7265 8.06505 23.8811C8.28873 24.0181 8.53226 24.1198 8.78735 24.181C9.07463 24.25 9.37978 24.25 9.98939 24.25L16.0094 24.25C16.619 24.25 16.9254 24.25 17.2127 24.181C17.4678 24.1198 17.7116 24.0181 17.9353 23.8811C18.1876 23.7265 18.4038 23.5107 18.8362 23.0784L23.079 18.8356C23.5113 18.4032 23.7271 18.187 23.8817 17.9347C24.0188 17.711 24.1192 17.4672 24.1804 17.2121C24.2495 16.9244 24.25 16.6187 24.25 16.0072L24.25 9.9928C24.25 9.38132 24.2495 9.07568 24.1804 8.78796C24.1192 8.53287 24.0188 8.28874 23.8817 8.06506C23.7271 7.81277 23.5113 7.59701 23.079 7.16466L18.8362 2.92188C18.4041 2.48977 18.1875 2.27321 17.9353 2.11865C17.7116 1.98158 17.4678 1.88032 17.2127 1.81908C16.925 1.75 16.6181 1.75 16.0066 1.75L9.99219 1.75C9.38071 1.75 9.07507 1.75 8.78735 1.81908C8.53226 1.88032 8.28873 1.98158 8.06505 2.11865C7.81505 2.27185 7.60132 2.48558 7.17675 2.91017L7.16467 2.92188Z" stroke="#201A18" stroke-width="2" stroke-linecap="round" stroke-linejoin="round"/>
</svg>
