<svg width="18" height="21" viewBox="0 0 18 21" fill="none" xmlns="http://www.w3.org/2000/svg">
<path d="M12 15.5H17L15.595 14.095C15.4063 13.9063 15.2567 13.6822 15.1546 13.4357C15.0525 13.1891 15 12.9249 15 12.658V9.5C15.0002 8.25894 14.6156 7.04834 13.8992 6.03489C13.1829 5.02144 12.17 4.25496 11 3.841V3.5C11 2.96957 10.7893 2.46086 10.4142 2.08579C10.0391 1.71071 9.53043 1.5 9 1.5C8.46957 1.5 7.96086 1.71071 7.58579 2.08579C7.21071 2.46086 7 2.96957 7 3.5V3.841C4.67 4.665 3 6.888 3 9.5V12.659C3 13.197 2.786 13.714 2.405 14.095L1 15.5H6M12 15.5V16.5C12 17.2956 11.6839 18.0587 11.1213 18.6213C10.5587 19.1839 9.79565 19.5 9 19.5C8.20435 19.5 7.44129 19.1839 6.87868 18.6213C6.31607 18.0587 6 17.2956 6 16.5V15.5M12 15.5H6" stroke="#655D59" stroke-width="2" stroke-linecap="round" stroke-linejoin="round"/>
</svg>
