<svg width="20" height="18" viewBox="0 0 20 18" fill="none" xmlns="http://www.w3.org/2000/svg">
<path d="M1.9458 7.61422C1.68476 7.37282 1.82656 6.93641 2.17964 6.89454L7.18262 6.30113C7.32652 6.28407 7.45151 6.19371 7.51221 6.06212L9.6224 1.4873C9.77132 1.16443 10.2303 1.16437 10.3792 1.48723L12.4894 6.06202C12.5501 6.19361 12.6743 6.28422 12.8182 6.30128L17.8215 6.89454C18.1745 6.93641 18.3159 7.37295 18.0549 7.61435L14.3565 11.0352C14.2501 11.1336 14.2027 11.28 14.231 11.4221L15.2125 16.3635C15.2818 16.7123 14.9107 16.9825 14.6004 16.8088L10.2043 14.3474C10.0778 14.2766 9.92422 14.277 9.79777 14.3477L5.4012 16.8082C5.09094 16.9819 4.71912 16.7123 4.78841 16.3635L5.77012 11.4224C5.79836 11.2803 5.75111 11.1335 5.64472 11.0351L1.9458 7.61422Z" stroke="#F36400" stroke-width="2" stroke-linecap="round" stroke-linejoin="round"/>
</svg>
