<svg width="40" height="40" viewBox="0 0 40 40" fill="none" xmlns="http://www.w3.org/2000/svg">
<path d="M1.25 20H11.6667M1.25 20C1.25 30.3553 9.64466 38.75 20 38.75M1.25 20C1.25 9.64466 9.64466 1.25 20 1.25M11.6667 20H28.3333M11.6667 20C11.6667 30.3553 15.3976 38.75 20 38.75M11.6667 20C11.6667 9.64466 15.3976 1.25 20 1.25M28.3333 20H38.75M28.3333 20C28.3333 9.64466 24.6024 1.25 20 1.25M28.3333 20C28.3333 30.3553 24.6024 38.75 20 38.75M38.75 20C38.75 9.64466 30.3553 1.25 20 1.25M38.75 20C38.75 30.3553 30.3553 38.75 20 38.75" stroke="#F36400" stroke-width="2" stroke-linecap="round" stroke-linejoin="round"/>
</svg>
