<svg width="26" height="28" viewBox="0 0 26 28" fill="none" xmlns="http://www.w3.org/2000/svg">
<path d="M18.9661 0.515013C18.9024 0.443763 16.6055 0.543138 14.6067 2.71251C12.608 4.88001 12.9155 7.36626 12.9605 7.43001C13.0055 7.49376 15.8105 7.59314 17.6011 5.07126C19.3917 2.54939 19.0299 0.588138 18.9661 0.515013ZM25.1799 22.5144C25.0899 22.3344 20.8205 20.2006 21.218 16.0981C21.6155 11.9956 24.3586 10.8688 24.4017 10.7469C24.4449 10.625 23.2824 9.26564 22.0505 8.57751C21.1458 8.09283 20.1449 7.8149 19.1199 7.76376C18.9174 7.75814 18.2142 7.58564 16.7686 7.98126C15.8161 8.24189 13.6692 9.08564 13.0786 9.11939C12.4861 9.15314 10.7236 8.14064 8.82799 7.87251C7.61486 7.63814 6.32861 8.11814 5.40799 8.48751C4.48924 8.85501 2.74174 9.90126 1.51924 12.6819C0.296736 15.4606 0.936111 19.8631 1.39361 21.2319C1.85111 22.6006 2.56549 24.8394 3.78049 26.4744C4.86049 28.3194 6.29299 29.6 6.89111 30.035C7.48924 30.47 9.17674 30.7588 10.3467 30.1606C11.288 29.5831 12.9867 29.2513 13.658 29.2756C14.3274 29.3 15.6474 29.5644 16.9992 30.2863C18.0699 30.6556 19.0824 30.5019 20.0967 30.0894C21.1111 29.675 22.5792 28.1038 24.293 24.9181C24.943 23.4369 25.2386 22.6356 25.1799 22.5144Z" fill="black"/>
<path d="M18.9661 0.515013C18.9024 0.443763 16.6055 0.543138 14.6067 2.71251C12.608 4.88001 12.9155 7.36626 12.9605 7.43001C13.0055 7.49376 15.8105 7.59314 17.6011 5.07126C19.3917 2.54939 19.0299 0.588138 18.9661 0.515013ZM25.1799 22.5144C25.0899 22.3344 20.8205 20.2006 21.218 16.0981C21.6155 11.9956 24.3586 10.8688 24.4017 10.7469C24.4449 10.625 23.2824 9.26564 22.0505 8.57751C21.1458 8.09283 20.1449 7.8149 19.1199 7.76376C18.9174 7.75814 18.2142 7.58564 16.7686 7.98126C15.8161 8.24189 13.6692 9.08564 13.0786 9.11939C12.4861 9.15314 10.7236 8.14064 8.82799 7.87251C7.61486 7.63814 6.32861 8.11814 5.40799 8.48751C4.48924 8.85501 2.74174 9.90126 1.51924 12.6819C0.296736 15.4606 0.936111 19.8631 1.39361 21.2319C1.85111 22.6006 2.56549 24.8394 3.78049 26.4744C4.86049 28.3194 6.29299 29.6 6.89111 30.035C7.48924 30.47 9.17674 30.7588 10.3467 30.1606C11.288 29.5831 12.9867 29.2513 13.658 29.2756C14.3274 29.3 15.6474 29.5644 16.9992 30.2863C18.0699 30.6556 19.0824 30.5019 20.0967 30.0894C21.1111 29.675 22.5792 28.1038 24.293 24.9181C24.943 23.4369 25.2386 22.6356 25.1799 22.5144Z" fill="black"/>
</svg>
